<?xml version="1.0" encoding="utf-8" standalone="no"?>
<!DOCTYPE svg PUBLIC "-//W3C//DTD SVG 1.1//EN"
  "http://www.w3.org/Graphics/SVG/1.1/DTD/svg11.dtd">
<!-- Created with matplotlib (https://matplotlib.org/) -->
<svg height="345.6pt" version="1.1" viewBox="0 0 864 345.6" width="864pt" xmlns="http://www.w3.org/2000/svg" xmlns:xlink="http://www.w3.org/1999/xlink">
 <defs>
  <style type="text/css">
*{stroke-linecap:butt;stroke-linejoin:round;}
  </style>
 </defs>
 <g id="figure_1">
  <g id="patch_1">
   <path d="M 0 345.6 
L 864 345.6 
L 864 0 
L 0 0 
z
" style="fill:#ffffff;"/>
  </g>
  <g id="axes_1">
   <g id="patch_2">
    <path d="M 108 307.584 
L 777.6 307.584 
L 777.6 41.472 
L 108 41.472 
z
" style="fill:#ffffff;"/>
   </g>
   <g id="matplotlib.axis_1">
    <g id="xtick_1">
     <g id="line2d_1">
      <defs>
       <path d="M 0 0 
L 0 3.5 
" id="mb4b7155456" style="stroke:#000000;stroke-width:0.8;"/>
      </defs>
      <g>
       <use style="stroke:#000000;stroke-width:0.8;" x="108" xlink:href="#mb4b7155456" y="307.584"/>
      </g>
     </g>
     <g id="text_1">
      <!-- Γ -->
      <defs>
       <path d="M 9.8125 0 
L 9.8125 72.90625 
L 55.171875 72.90625 
L 55.171875 64.59375 
L 19.671875 64.59375 
L 19.671875 0 
z
" id="DejaVuSans-915"/>
      </defs>
      <g transform="translate(105.214062 322.182437)scale(0.1 -0.1)">
       <use xlink:href="#DejaVuSans-915"/>
      </g>
     </g>
    </g>
    <g id="xtick_2">
     <g id="line2d_2">
      <g>
       <use style="stroke:#000000;stroke-width:0.8;" x="173.464611" xlink:href="#mb4b7155456" y="307.584"/>
      </g>
     </g>
     <g id="text_2">
      <!-- X -->
      <defs>
       <path d="M 6.296875 72.90625 
L 16.890625 72.90625 
L 35.015625 45.796875 
L 53.21875 72.90625 
L 63.8125 72.90625 
L 40.375 37.890625 
L 65.375 0 
L 54.78125 0 
L 34.28125 31 
L 13.625 0 
L 2.984375 0 
L 29 38.921875 
z
" id="DejaVuSans-88"/>
      </defs>
      <g transform="translate(170.039611 322.182437)scale(0.1 -0.1)">
       <use xlink:href="#DejaVuSans-88"/>
      </g>
     </g>
    </g>
    <g id="xtick_3">
     <g id="line2d_3">
      <g>
       <use style="stroke:#000000;stroke-width:0.8;" x="238.929221" xlink:href="#mb4b7155456" y="307.584"/>
      </g>
     </g>
     <g id="text_3">
      <!-- M -->
      <defs>
       <path d="M 9.8125 72.90625 
L 24.515625 72.90625 
L 43.109375 23.296875 
L 61.8125 72.90625 
L 76.515625 72.90625 
L 76.515625 0 
L 66.890625 0 
L 66.890625 64.015625 
L 48.09375 14.015625 
L 38.1875 14.015625 
L 19.390625 64.015625 
L 19.390625 0 
L 9.8125 0 
z
" id="DejaVuSans-77"/>
      </defs>
      <g transform="translate(234.615159 322.182437)scale(0.1 -0.1)">
       <use xlink:href="#DejaVuSans-77"/>
      </g>
     </g>
    </g>
    <g id="xtick_4">
     <g id="line2d_4">
      <g>
       <use style="stroke:#000000;stroke-width:0.8;" x="331.510162" xlink:href="#mb4b7155456" y="307.584"/>
      </g>
     </g>
     <g id="text_4">
      <!-- Γ -->
      <g transform="translate(328.724224 322.182437)scale(0.1 -0.1)">
       <use xlink:href="#DejaVuSans-915"/>
      </g>
     </g>
    </g>
    <g id="xtick_5">
     <g id="line2d_5">
      <g>
       <use style="stroke:#000000;stroke-width:0.8;" x="396.974772" xlink:href="#mb4b7155456" y="307.584"/>
      </g>
     </g>
     <g id="text_5">
      <!-- Z -->
      <defs>
       <path d="M 5.609375 72.90625 
L 62.890625 72.90625 
L 62.890625 65.375 
L 16.796875 8.296875 
L 64.015625 8.296875 
L 64.015625 0 
L 4.5 0 
L 4.5 7.515625 
L 50.59375 64.59375 
L 5.609375 64.59375 
z
" id="DejaVuSans-90"/>
      </defs>
      <g transform="translate(393.549772 322.182437)scale(0.1 -0.1)">
       <use xlink:href="#DejaVuSans-90"/>
      </g>
     </g>
    </g>
    <g id="xtick_6">
     <g id="line2d_6">
      <g>
       <use style="stroke:#000000;stroke-width:0.8;" x="462.439383" xlink:href="#mb4b7155456" y="307.584"/>
      </g>
     </g>
     <g id="text_6">
      <!-- R -->
      <defs>
       <path d="M 44.390625 34.1875 
Q 47.5625 33.109375 50.5625 29.59375 
Q 53.5625 26.078125 56.59375 19.921875 
L 66.609375 0 
L 56 0 
L 46.6875 18.703125 
Q 43.0625 26.03125 39.671875 28.421875 
Q 36.28125 30.8125 30.421875 30.8125 
L 19.671875 30.8125 
L 19.671875 0 
L 9.8125 0 
L 9.8125 72.90625 
L 32.078125 72.90625 
Q 44.578125 72.90625 50.734375 67.671875 
Q 56.890625 62.453125 56.890625 51.90625 
Q 56.890625 45.015625 53.6875 40.46875 
Q 50.484375 35.9375 44.390625 34.1875 
z
M 19.671875 64.796875 
L 19.671875 38.921875 
L 32.078125 38.921875 
Q 39.203125 38.921875 42.84375 42.21875 
Q 46.484375 45.515625 46.484375 51.90625 
Q 46.484375 58.296875 42.84375 61.546875 
Q 39.203125 64.796875 32.078125 64.796875 
z
" id="DejaVuSans-82"/>
      </defs>
      <g transform="translate(458.965164 322.182437)scale(0.1 -0.1)">
       <use xlink:href="#DejaVuSans-82"/>
      </g>
     </g>
    </g>
    <g id="xtick_7">
     <g id="line2d_7">
      <g>
       <use style="stroke:#000000;stroke-width:0.8;" x="527.903994" xlink:href="#mb4b7155456" y="307.584"/>
      </g>
     </g>
     <g id="text_7">
      <!-- A -->
      <defs>
       <path d="M 34.1875 63.1875 
L 20.796875 26.90625 
L 47.609375 26.90625 
z
M 28.609375 72.90625 
L 39.796875 72.90625 
L 67.578125 0 
L 57.328125 0 
L 50.6875 18.703125 
L 17.828125 18.703125 
L 11.1875 0 
L 0.78125 0 
z
" id="DejaVuSans-65"/>
      </defs>
      <g transform="translate(524.483681 322.182437)scale(0.1 -0.1)">
       <use xlink:href="#DejaVuSans-65"/>
      </g>
     </g>
    </g>
    <g id="xtick_8">
     <g id="line2d_8">
      <g>
       <use style="stroke:#000000;stroke-width:0.8;" x="620.484934" xlink:href="#mb4b7155456" y="307.584"/>
      </g>
     </g>
     <g id="text_8">
      <!-- Z -->
      <g transform="translate(617.059934 322.182437)scale(0.1 -0.1)">
       <use xlink:href="#DejaVuSans-90"/>
      </g>
     </g>
    </g>
    <g id="xtick_9">
     <g id="line2d_9">
      <g>
       <use style="stroke:#000000;stroke-width:0.8;" x="633.577856" xlink:href="#mb4b7155456" y="307.584"/>
      </g>
     </g>
     <g id="text_9">
      <!-- X -->
      <g transform="translate(630.152856 322.182437)scale(0.1 -0.1)">
       <use xlink:href="#DejaVuSans-88"/>
      </g>
     </g>
    </g>
    <g id="xtick_10">
     <g id="line2d_10">
      <g>
       <use style="stroke:#000000;stroke-width:0.8;" x="699.042467" xlink:href="#mb4b7155456" y="307.584"/>
      </g>
     </g>
     <g id="text_10">
      <!-- R -->
      <g transform="translate(695.568248 322.182437)scale(0.1 -0.1)">
       <use xlink:href="#DejaVuSans-82"/>
      </g>
     </g>
    </g>
    <g id="xtick_11">
     <g id="line2d_11">
      <g>
       <use style="stroke:#000000;stroke-width:0.8;" x="712.135389" xlink:href="#mb4b7155456" y="307.584"/>
      </g>
     </g>
     <g id="text_11">
      <!-- M -->
      <g transform="translate(707.821327 322.182437)scale(0.1 -0.1)">
       <use xlink:href="#DejaVuSans-77"/>
      </g>
     </g>
    </g>
    <g id="xtick_12">
     <g id="line2d_12">
      <g>
       <use style="stroke:#000000;stroke-width:0.8;" x="777.6" xlink:href="#mb4b7155456" y="307.584"/>
      </g>
     </g>
     <g id="text_12">
      <!-- A -->
      <g transform="translate(774.179688 322.182437)scale(0.1 -0.1)">
       <use xlink:href="#DejaVuSans-65"/>
      </g>
     </g>
    </g>
   </g>
   <g id="matplotlib.axis_2">
    <g id="ytick_1">
     <g id="line2d_13">
      <defs>
       <path d="M 0 0 
L -3.5 0 
" id="md0bdffde6b" style="stroke:#000000;stroke-width:0.8;"/>
      </defs>
      <g>
       <use style="stroke:#000000;stroke-width:0.8;" x="108" xlink:href="#md0bdffde6b" y="307.584"/>
      </g>
     </g>
     <g id="text_13">
      <!-- 0.00 -->
      <defs>
       <path d="M 31.78125 66.40625 
Q 24.171875 66.40625 20.328125 58.90625 
Q 16.5 51.421875 16.5 36.375 
Q 16.5 21.390625 20.328125 13.890625 
Q 24.171875 6.390625 31.78125 6.390625 
Q 39.453125 6.390625 43.28125 13.890625 
Q 47.125 21.390625 47.125 36.375 
Q 47.125 51.421875 43.28125 58.90625 
Q 39.453125 66.40625 31.78125 66.40625 
z
M 31.78125 74.21875 
Q 44.046875 74.21875 50.515625 64.515625 
Q 56.984375 54.828125 56.984375 36.375 
Q 56.984375 17.96875 50.515625 8.265625 
Q 44.046875 -1.421875 31.78125 -1.421875 
Q 19.53125 -1.421875 13.0625 8.265625 
Q 6.59375 17.96875 6.59375 36.375 
Q 6.59375 54.828125 13.0625 64.515625 
Q 19.53125 74.21875 31.78125 74.21875 
z
" id="DejaVuSans-48"/>
       <path d="M 10.6875 12.40625 
L 21 12.40625 
L 21 0 
L 10.6875 0 
z
" id="DejaVuSans-46"/>
      </defs>
      <g transform="translate(78.734375 311.383219)scale(0.1 -0.1)">
       <use xlink:href="#DejaVuSans-48"/>
       <use x="63.623047" xlink:href="#DejaVuSans-46"/>
       <use x="95.410156" xlink:href="#DejaVuSans-48"/>
       <use x="159.033203" xlink:href="#DejaVuSans-48"/>
      </g>
     </g>
    </g>
    <g id="ytick_2">
     <g id="line2d_14">
      <g>
       <use style="stroke:#000000;stroke-width:0.8;" x="108" xlink:href="#md0bdffde6b" y="269.568"/>
      </g>
     </g>
     <g id="text_14">
      <!-- 0.05 -->
      <defs>
       <path d="M 10.796875 72.90625 
L 49.515625 72.90625 
L 49.515625 64.59375 
L 19.828125 64.59375 
L 19.828125 46.734375 
Q 21.96875 47.46875 24.109375 47.828125 
Q 26.265625 48.1875 28.421875 48.1875 
Q 40.625 48.1875 47.75 41.5 
Q 54.890625 34.8125 54.890625 23.390625 
Q 54.890625 11.625 47.5625 5.09375 
Q 40.234375 -1.421875 26.90625 -1.421875 
Q 22.3125 -1.421875 17.546875 -0.640625 
Q 12.796875 0.140625 7.71875 1.703125 
L 7.71875 11.625 
Q 12.109375 9.234375 16.796875 8.0625 
Q 21.484375 6.890625 26.703125 6.890625 
Q 35.15625 6.890625 40.078125 11.328125 
Q 45.015625 15.765625 45.015625 23.390625 
Q 45.015625 31 40.078125 35.4375 
Q 35.15625 39.890625 26.703125 39.890625 
Q 22.75 39.890625 18.8125 39.015625 
Q 14.890625 38.140625 10.796875 36.28125 
z
" id="DejaVuSans-53"/>
      </defs>
      <g transform="translate(78.734375 273.367219)scale(0.1 -0.1)">
       <use xlink:href="#DejaVuSans-48"/>
       <use x="63.623047" xlink:href="#DejaVuSans-46"/>
       <use x="95.410156" xlink:href="#DejaVuSans-48"/>
       <use x="159.033203" xlink:href="#DejaVuSans-53"/>
      </g>
     </g>
    </g>
    <g id="ytick_3">
     <g id="line2d_15">
      <g>
       <use style="stroke:#000000;stroke-width:0.8;" x="108" xlink:href="#md0bdffde6b" y="231.552"/>
      </g>
     </g>
     <g id="text_15">
      <!-- 0.10 -->
      <defs>
       <path d="M 12.40625 8.296875 
L 28.515625 8.296875 
L 28.515625 63.921875 
L 10.984375 60.40625 
L 10.984375 69.390625 
L 28.421875 72.90625 
L 38.28125 72.90625 
L 38.28125 8.296875 
L 54.390625 8.296875 
L 54.390625 0 
L 12.40625 0 
z
" id="DejaVuSans-49"/>
      </defs>
      <g transform="translate(78.734375 235.351219)scale(0.1 -0.1)">
       <use xlink:href="#DejaVuSans-48"/>
       <use x="63.623047" xlink:href="#DejaVuSans-46"/>
       <use x="95.410156" xlink:href="#DejaVuSans-49"/>
       <use x="159.033203" xlink:href="#DejaVuSans-48"/>
      </g>
     </g>
    </g>
    <g id="ytick_4">
     <g id="line2d_16">
      <g>
       <use style="stroke:#000000;stroke-width:0.8;" x="108" xlink:href="#md0bdffde6b" y="193.536"/>
      </g>
     </g>
     <g id="text_16">
      <!-- 0.15 -->
      <g transform="translate(78.734375 197.335219)scale(0.1 -0.1)">
       <use xlink:href="#DejaVuSans-48"/>
       <use x="63.623047" xlink:href="#DejaVuSans-46"/>
       <use x="95.410156" xlink:href="#DejaVuSans-49"/>
       <use x="159.033203" xlink:href="#DejaVuSans-53"/>
      </g>
     </g>
    </g>
    <g id="ytick_5">
     <g id="line2d_17">
      <g>
       <use style="stroke:#000000;stroke-width:0.8;" x="108" xlink:href="#md0bdffde6b" y="155.52"/>
      </g>
     </g>
     <g id="text_17">
      <!-- 0.20 -->
      <defs>
       <path d="M 19.1875 8.296875 
L 53.609375 8.296875 
L 53.609375 0 
L 7.328125 0 
L 7.328125 8.296875 
Q 12.9375 14.109375 22.625 23.890625 
Q 32.328125 33.6875 34.8125 36.53125 
Q 39.546875 41.84375 41.421875 45.53125 
Q 43.3125 49.21875 43.3125 52.78125 
Q 43.3125 58.59375 39.234375 62.25 
Q 35.15625 65.921875 28.609375 65.921875 
Q 23.96875 65.921875 18.8125 64.3125 
Q 13.671875 62.703125 7.8125 59.421875 
L 7.8125 69.390625 
Q 13.765625 71.78125 18.9375 73 
Q 24.125 74.21875 28.421875 74.21875 
Q 39.75 74.21875 46.484375 68.546875 
Q 53.21875 62.890625 53.21875 53.421875 
Q 53.21875 48.921875 51.53125 44.890625 
Q 49.859375 40.875 45.40625 35.40625 
Q 44.1875 33.984375 37.640625 27.21875 
Q 31.109375 20.453125 19.1875 8.296875 
z
" id="DejaVuSans-50"/>
      </defs>
      <g transform="translate(78.734375 159.319219)scale(0.1 -0.1)">
       <use xlink:href="#DejaVuSans-48"/>
       <use x="63.623047" xlink:href="#DejaVuSans-46"/>
       <use x="95.410156" xlink:href="#DejaVuSans-50"/>
       <use x="159.033203" xlink:href="#DejaVuSans-48"/>
      </g>
     </g>
    </g>
    <g id="ytick_6">
     <g id="line2d_18">
      <g>
       <use style="stroke:#000000;stroke-width:0.8;" x="108" xlink:href="#md0bdffde6b" y="117.504"/>
      </g>
     </g>
     <g id="text_18">
      <!-- 0.25 -->
      <g transform="translate(78.734375 121.303219)scale(0.1 -0.1)">
       <use xlink:href="#DejaVuSans-48"/>
       <use x="63.623047" xlink:href="#DejaVuSans-46"/>
       <use x="95.410156" xlink:href="#DejaVuSans-50"/>
       <use x="159.033203" xlink:href="#DejaVuSans-53"/>
      </g>
     </g>
    </g>
    <g id="ytick_7">
     <g id="line2d_19">
      <g>
       <use style="stroke:#000000;stroke-width:0.8;" x="108" xlink:href="#md0bdffde6b" y="79.488"/>
      </g>
     </g>
     <g id="text_19">
      <!-- 0.30 -->
      <defs>
       <path d="M 40.578125 39.3125 
Q 47.65625 37.796875 51.625 33 
Q 55.609375 28.21875 55.609375 21.1875 
Q 55.609375 10.40625 48.1875 4.484375 
Q 40.765625 -1.421875 27.09375 -1.421875 
Q 22.515625 -1.421875 17.65625 -0.515625 
Q 12.796875 0.390625 7.625 2.203125 
L 7.625 11.71875 
Q 11.71875 9.328125 16.59375 8.109375 
Q 21.484375 6.890625 26.8125 6.890625 
Q 36.078125 6.890625 40.9375 10.546875 
Q 45.796875 14.203125 45.796875 21.1875 
Q 45.796875 27.640625 41.28125 31.265625 
Q 36.765625 34.90625 28.71875 34.90625 
L 20.21875 34.90625 
L 20.21875 43.015625 
L 29.109375 43.015625 
Q 36.375 43.015625 40.234375 45.921875 
Q 44.09375 48.828125 44.09375 54.296875 
Q 44.09375 59.90625 40.109375 62.90625 
Q 36.140625 65.921875 28.71875 65.921875 
Q 24.65625 65.921875 20.015625 65.03125 
Q 15.375 64.15625 9.8125 62.3125 
L 9.8125 71.09375 
Q 15.4375 72.65625 20.34375 73.4375 
Q 25.25 74.21875 29.59375 74.21875 
Q 40.828125 74.21875 47.359375 69.109375 
Q 53.90625 64.015625 53.90625 55.328125 
Q 53.90625 49.265625 50.4375 45.09375 
Q 46.96875 40.921875 40.578125 39.3125 
z
" id="DejaVuSans-51"/>
      </defs>
      <g transform="translate(78.734375 83.287219)scale(0.1 -0.1)">
       <use xlink:href="#DejaVuSans-48"/>
       <use x="63.623047" xlink:href="#DejaVuSans-46"/>
       <use x="95.410156" xlink:href="#DejaVuSans-51"/>
       <use x="159.033203" xlink:href="#DejaVuSans-48"/>
      </g>
     </g>
    </g>
    <g id="ytick_8">
     <g id="line2d_20">
      <g>
       <use style="stroke:#000000;stroke-width:0.8;" x="108" xlink:href="#md0bdffde6b" y="41.472"/>
      </g>
     </g>
     <g id="text_20">
      <!-- 0.35 -->
      <g transform="translate(78.734375 45.271219)scale(0.1 -0.1)">
       <use xlink:href="#DejaVuSans-48"/>
       <use x="63.623047" xlink:href="#DejaVuSans-46"/>
       <use x="95.410156" xlink:href="#DejaVuSans-51"/>
       <use x="159.033203" xlink:href="#DejaVuSans-53"/>
      </g>
     </g>
    </g>
   </g>
   <g id="line2d_21">
    <path clip-path="url(#paab4740b15)" d="M 108 307.584 
L 108 41.472 
" style="fill:none;stroke:#d3d3d3;stroke-linecap:square;stroke-width:1.5;"/>
   </g>
   <g id="line2d_22">
    <path clip-path="url(#paab4740b15)" d="M 173.464611 307.584 
L 173.464611 41.472 
" style="fill:none;stroke:#d3d3d3;stroke-linecap:square;stroke-width:1.5;"/>
   </g>
   <g id="line2d_23">
    <path clip-path="url(#paab4740b15)" d="M 238.929221 307.584 
L 238.929221 41.472 
" style="fill:none;stroke:#d3d3d3;stroke-linecap:square;stroke-width:1.5;"/>
   </g>
   <g id="line2d_24">
    <path clip-path="url(#paab4740b15)" d="M 331.510162 307.584 
L 331.510162 41.472 
" style="fill:none;stroke:#d3d3d3;stroke-linecap:square;stroke-width:1.5;"/>
   </g>
   <g id="line2d_25">
    <path clip-path="url(#paab4740b15)" d="M 396.974772 307.584 
L 396.974772 41.472 
" style="fill:none;stroke:#d3d3d3;stroke-linecap:square;stroke-width:1.5;"/>
   </g>
   <g id="line2d_26">
    <path clip-path="url(#paab4740b15)" d="M 462.439383 307.584 
L 462.439383 41.472 
" style="fill:none;stroke:#d3d3d3;stroke-linecap:square;stroke-width:1.5;"/>
   </g>
   <g id="line2d_27">
    <path clip-path="url(#paab4740b15)" d="M 527.903994 307.584 
L 527.903994 41.472 
" style="fill:none;stroke:#d3d3d3;stroke-linecap:square;stroke-width:1.5;"/>
   </g>
   <g id="line2d_28">
    <path clip-path="url(#paab4740b15)" d="M 620.484934 307.584 
L 620.484934 41.472 
" style="fill:none;stroke:#d3d3d3;stroke-linecap:square;stroke-width:1.5;"/>
   </g>
   <g id="line2d_29">
    <path clip-path="url(#paab4740b15)" d="M 108 307.584 
L 125.949974 257.922939 
L 135.452901 232.262215 
L 142.844067 212.85193 
L 150.235233 194.091794 
L 156.570518 178.666422 
L 161.849922 166.391055 
L 166.073445 157.052045 
L 169.241087 150.423575 
L 172.40873 144.302999 
L 173.464611 142.45162 
L 175.576372 142.47595 
L 177.688134 142.311721 
L 179.799896 141.959693 
L 181.911657 141.422147 
L 184.023419 140.702884 
L 186.135181 139.806467 
L 188.246942 138.738217 
L 191.414585 136.826772 
L 194.582227 134.56482 
L 197.74987 131.978212 
L 200.917512 129.092797 
L 204.085154 125.93899 
L 208.308678 121.367186 
L 212.532201 116.444114 
L 217.811605 109.912965 
L 227.314532 97.643681 
L 231.538056 92.351094 
L 233.649817 89.927194 
L 235.761579 87.868247 
L 236.81746 87.09044 
L 237.873341 86.572662 
L 238.929221 86.388664 
L 239.981278 86.623603 
L 241.033334 87.285082 
L 242.08539 88.286423 
L 243.137446 89.53867 
L 245.241558 92.552579 
L 247.345671 96.013555 
L 250.501839 101.744847 
L 253.658007 107.930051 
L 257.866232 116.693499 
L 263.126513 128.281536 
L 268.386793 140.423846 
L 274.69913 155.586148 
L 282.063523 173.942554 
L 289.427916 192.885926 
L 297.844365 215.113121 
L 308.364927 243.558213 
L 322.041657 281.255183 
L 331.510162 307.584 
L 353.683659 258.465199 
L 365.298348 233.289027 
L 373.745394 215.46743 
L 380.080679 202.544271 
L 385.360083 192.285274 
L 388.527726 186.553221 
L 390.639488 183.067154 
L 392.751249 180.062369 
L 393.80713 178.845097 
L 394.863011 177.897738 
L 395.918892 177.290243 
L 396.974772 177.079634 
L 399.086534 176.976991 
L 401.198296 176.669821 
L 403.310057 176.160407 
L 405.421819 175.452549 
L 407.533581 174.55081 
L 409.645342 173.462792 
L 411.757104 172.194578 
L 414.924746 169.974444 
L 418.092389 167.401521 
L 421.260031 164.509263 
L 424.427674 161.336448 
L 428.651197 156.736512 
L 432.87472 151.802796 
L 439.210005 144.003433 
L 448.712933 132.222275 
L 452.936456 127.369152 
L 456.104098 124.087611 
L 458.21586 122.145754 
L 460.327622 120.459364 
L 462.439383 119.081664 
L 464.551145 119.524931 
L 466.662906 119.788762 
L 468.774668 119.868595 
L 470.88643 119.76215 
L 472.998191 119.470948 
L 475.109953 118.995748 
L 477.221715 118.340352 
L 479.333476 117.508562 
L 481.445238 116.50646 
L 484.61288 114.696138 
L 487.780523 112.543672 
L 490.948165 110.077955 
L 494.115808 107.33472 
L 498.339331 103.309586 
L 502.562854 98.956754 
L 508.898139 92.059131 
L 516.289305 84.039276 
L 519.456947 80.902195 
L 520.512828 79.944192 
L 521.568709 79.376993 
L 523.680471 78.739085 
L 525.792232 78.343718 
L 527.903994 78.209142 
L 530.008106 78.343718 
L 532.112218 78.745928 
L 534.216331 79.419571 
L 535.268387 80.071926 
L 537.372499 82.206144 
L 540.528668 85.862523 
L 543.684836 89.915789 
L 547.893061 95.755046 
L 553.153341 103.515633 
L 561.56979 116.465403 
L 572.090352 132.659459 
L 578.402689 141.948288 
L 583.662969 149.236716 
L 587.871194 154.673764 
L 592.079418 159.681231 
L 595.235587 163.111795 
L 598.391755 166.229868 
L 601.547924 169.005036 
L 604.704092 171.409928 
L 606.808204 172.79371 
L 608.912317 173.993495 
L 611.016429 175.00396 
L 613.120541 175.819023 
L 615.224654 176.434883 
L 617.328766 176.846976 
L 619.432878 177.053783 
L 620.484934 177.079634 
L 620.484934 177.079634 
" style="fill:none;stroke:#191970;stroke-linecap:square;stroke-width:1.5;"/>
   </g>
   <g id="line2d_30">
    <path clip-path="url(#paab4740b15)" d="M 108 307.584 
L 128.061736 246.573414 
L 138.620544 215.189914 
L 147.06759 190.747907 
L 154.458756 170.055037 
L 159.73816 155.891796 
L 162.905803 147.884106 
L 165.017564 143.034785 
L 166.073445 140.925658 
L 167.129326 139.206574 
L 168.185207 138.092705 
L 169.241087 137.774131 
L 170.296968 138.244769 
L 171.352849 139.308457 
L 172.40873 140.757627 
L 173.464611 142.449339 
L 175.576372 142.234168 
L 177.688134 141.830438 
L 179.799896 141.238909 
L 181.911657 140.462623 
L 184.023419 139.50538 
L 186.135181 138.373263 
L 189.302823 136.357655 
L 192.470465 133.984696 
L 195.638108 131.281759 
L 198.80575 128.280015 
L 201.973393 125.014441 
L 206.196916 120.315663 
L 211.47632 114.019453 
L 220.979248 102.15466 
L 226.258652 95.777096 
L 229.426294 92.285706 
L 231.538056 90.219917 
L 233.649817 88.473462 
L 235.761579 87.177116 
L 236.81746 86.743734 
L 237.873341 86.476861 
L 238.929221 86.386383 
L 241.033334 86.540728 
L 243.137446 87.027333 
L 245.241558 87.926031 
L 246.293614 88.560899 
L 247.345671 89.334904 
L 248.397727 90.255652 
L 250.501839 92.539653 
L 252.605951 95.375647 
L 254.710064 98.68608 
L 256.814176 102.385037 
L 259.970344 108.511695 
L 263.126513 115.179702 
L 267.334737 124.718676 
L 271.542962 134.842337 
L 276.803242 148.150979 
L 282.063523 162.050388 
L 288.37586 179.359834 
L 295.740253 200.249626 
L 304.156702 224.829251 
L 314.677264 256.305738 
L 330.458106 304.36593 
L 331.510162 307.584 
L 353.683659 258.465047 
L 365.298348 233.288723 
L 373.745394 215.46743 
L 380.080679 202.544271 
L 385.360083 192.284513 
L 388.527726 186.552461 
L 390.639488 183.066394 
L 392.751249 180.062369 
L 393.80713 178.844337 
L 394.863011 177.896978 
L 395.918892 177.289482 
L 396.974772 177.079634 
L 399.086534 176.95114 
L 401.198296 176.566418 
L 403.310057 175.92927 
L 405.421819 175.042737 
L 407.533581 173.914422 
L 409.645342 172.551168 
L 411.757104 170.96286 
L 413.868866 169.160141 
L 417.036508 166.077043 
L 420.20415 162.57653 
L 423.371793 158.70346 
L 426.539435 154.503452 
L 430.762959 148.480197 
L 436.042363 140.451218 
L 444.489409 127.356987 
L 446.601171 124.372731 
L 448.712933 121.760271 
L 450.824694 119.704366 
L 451.880575 118.922757 
L 452.936456 118.308419 
L 453.992337 117.855268 
L 455.048217 117.555702 
L 456.104098 117.400596 
L 457.159979 117.381588 
L 458.21586 117.492595 
L 459.271741 117.725253 
L 461.383502 118.52663 
L 462.439383 119.080143 
L 464.551145 118.459722 
L 466.662906 117.667469 
L 469.830549 116.178762 
L 472.998191 114.361597 
L 476.165834 112.263114 
L 480.389357 109.129836 
L 486.724642 104.028849 
L 498.339331 94.631293 
L 505.730497 88.946381 
L 511.009901 85.157706 
L 514.177543 83.088876 
L 517.345186 81.263347 
L 519.456947 80.228552 
L 520.512828 79.777682 
L 524.736351 76.916598 
L 525.792232 76.463447 
L 526.848113 76.179848 
L 527.903994 76.081766 
L 528.95605 76.179087 
L 530.008106 76.463447 
L 531.060162 76.919639 
L 532.112218 77.528655 
L 536.320443 80.365409 
L 538.424555 81.584202 
L 540.528668 83.072148 
L 542.63278 84.823165 
L 544.736892 86.822807 
L 546.841004 89.055107 
L 549.997173 92.7936 
L 553.153341 96.931261 
L 557.361566 102.936269 
L 561.56979 109.344246 
L 567.882127 119.396436 
L 580.506801 139.639956 
L 585.767082 147.60887 
L 589.975306 153.591828 
L 593.131475 157.782712 
L 596.287643 161.671749 
L 599.443811 165.21408 
L 602.59998 168.367127 
L 605.756148 171.087552 
L 607.860261 172.642406 
L 609.964373 173.976768 
L 612.068485 175.082273 
L 614.172597 175.951319 
L 616.27671 176.576302 
L 618.380822 176.953421 
L 620.484934 177.079634 
L 620.484934 177.079634 
" style="fill:none;stroke:#191970;stroke-linecap:square;stroke-width:1.5;"/>
   </g>
   <g id="line2d_31">
    <path clip-path="url(#paab4740b15)" d="M 108 80.750131 
L 112.223523 80.874063 
L 116.447047 81.257265 
L 119.614689 81.737027 
L 122.782331 82.405348 
L 125.949974 83.294162 
L 129.117616 84.438444 
L 132.285259 85.875448 
L 135.452901 87.643192 
L 138.620544 89.77589 
L 141.788186 92.300913 
L 144.955829 95.234988 
L 148.123471 98.583437 
L 151.291114 102.336376 
L 154.458756 106.468716 
L 157.626398 110.930273 
L 165.017564 121.680438 
L 166.073445 122.903032 
L 167.129326 123.787284 
L 168.185207 124.116503 
L 169.241087 123.699848 
L 170.296968 122.544922 
L 171.352849 120.844846 
L 173.464611 116.57641 
L 175.576372 116.782456 
L 177.688134 116.817431 
L 179.799896 116.682094 
L 181.911657 116.377966 
L 184.023419 115.908088 
L 186.135181 115.275502 
L 189.302823 114.030098 
L 192.470465 112.444831 
L 195.638108 110.540229 
L 198.80575 108.339103 
L 201.973393 105.868063 
L 205.141035 103.156762 
L 209.364559 99.224387 
L 214.643963 93.931799 
L 225.202771 83.120809 
L 228.370413 80.270369 
L 230.482175 78.644045 
L 232.593937 77.331732 
L 234.705698 76.39958 
L 236.81746 75.865075 
L 238.929221 75.695524 
L 241.033334 75.830861 
L 243.137446 76.213302 
L 251.553895 78.203059 
L 254.710064 78.446362 
L 257.866232 78.424312 
L 262.074457 78.142994 
L 270.490906 77.25342 
L 276.803242 76.666452 
L 282.063523 76.404142 
L 286.271748 76.395018 
L 290.479972 76.573693 
L 295.740253 77.034447 
L 302.05259 77.834304 
L 317.833432 79.975365 
L 323.093713 80.447524 
L 328.353993 80.706793 
L 333.621923 80.9136 
L 335.733685 81.397164 
L 337.845447 82.187896 
L 339.957208 83.26527 
L 342.06897 84.604954 
L 344.180732 86.181097 
L 346.292493 87.97089 
L 349.460136 91.01065 
L 352.627778 94.421445 
L 355.795421 98.153856 
L 358.963063 102.169106 
L 363.186586 107.907241 
L 367.41011 114.027817 
L 372.689514 122.127506 
L 379.024799 132.350769 
L 388.527726 147.907676 
L 390.639488 151.079731 
L 392.751249 153.860221 
L 393.80713 154.999181 
L 394.863011 155.891036 
L 395.918892 156.465078 
L 396.974772 156.664282 
L 399.086534 156.560118 
L 401.198296 156.250668 
L 403.310057 155.738212 
L 405.421819 155.026552 
L 407.533581 154.121011 
L 409.645342 153.029192 
L 412.812985 151.060723 
L 415.980627 148.726541 
L 419.14827 146.066181 
L 422.315912 143.125263 
L 426.539435 138.856067 
L 431.818839 133.147584 
L 442.377648 121.618852 
L 448.712933 114.930317 
L 451.880575 111.116552 
L 458.21586 102.930947 
L 460.327622 100.641623 
L 461.383502 99.692744 
L 462.439383 98.911895 
L 465.607026 98.787963 
L 468.774668 98.369027 
L 471.942311 97.633797 
L 475.109953 96.584556 
L 478.277595 95.354358 
L 481.445238 93.888461 
L 484.61288 92.19903 
L 487.780523 90.303552 
L 492.004046 87.485046 
L 496.227569 84.3837 
L 501.506973 80.209544 
L 514.177543 69.997686 
L 517.345186 67.791237 
L 519.456947 66.512379 
L 521.568709 65.440328 
L 523.680471 64.624504 
L 525.792232 64.111288 
L 527.903994 63.936415 
L 530.008106 64.112809 
L 532.112218 64.635909 
L 534.216331 65.49431 
L 536.320443 66.667484 
L 538.424555 68.13186 
L 540.528668 69.862349 
L 542.63278 71.830817 
L 545.788948 75.171663 
L 548.945117 78.901033 
L 552.101285 82.941373 
L 556.30951 88.694715 
L 561.56979 96.278907 
L 580.506801 124.089132 
L 584.715026 129.815101 
L 588.92325 135.194365 
L 593.131475 140.142528 
L 596.287643 143.52139 
L 599.443811 146.579397 
L 602.59998 149.283095 
L 605.756148 151.602071 
L 607.860261 152.921987 
L 609.964373 154.051062 
L 612.068485 154.983974 
L 614.172597 155.715402 
L 616.27671 156.241544 
L 618.380822 156.557837 
L 620.484934 156.664282 
L 620.484934 156.664282 
" style="fill:none;stroke:#dc143c;stroke-linecap:square;stroke-width:1.5;"/>
   </g>
   <g id="line2d_32">
    <path clip-path="url(#paab4740b15)" d="M 108 80.750131 
L 110.111762 80.672579 
L 112.223523 80.43916 
L 114.335285 80.051397 
L 117.502927 79.183112 
L 120.67057 77.978004 
L 123.838212 76.44596 
L 127.005855 74.599903 
L 130.173497 72.45504 
L 133.34114 70.029619 
L 136.508782 67.34569 
L 140.732305 63.407992 
L 144.955829 59.123589 
L 146.011709 58.007439 
L 147.06759 59.209505 
L 150.235233 65.04116 
L 153.402875 71.370063 
L 157.626398 80.345641 
L 162.905803 92.177741 
L 173.464611 116.569567 
L 175.576372 116.191688 
L 177.688134 115.644257 
L 179.799896 114.928036 
L 181.911657 114.046825 
L 185.0793 112.422781 
L 188.246942 110.451272 
L 191.414585 108.152824 
L 194.582227 105.55177 
L 197.74987 102.676239 
L 201.973393 98.468628 
L 206.196916 93.91127 
L 211.47632 87.861404 
L 223.091009 74.330749 
L 225.202771 72.191969 
L 226.258652 71.278065 
L 227.314532 70.55424 
L 228.370413 70.119337 
L 229.426294 70.066115 
L 230.482175 70.399895 
L 231.538056 71.025638 
L 233.649817 72.696061 
L 235.761579 74.389294 
L 236.81746 75.06902 
L 237.873341 75.529774 
L 238.929221 75.694764 
L 239.981278 75.538138 
L 241.033334 75.107796 
L 243.137446 73.767352 
L 248.397727 70.063834 
L 251.553895 68.172157 
L 255.76212 65.94366 
L 256.814176 65.412196 
L 257.866232 65.155208 
L 265.230625 66.618063 
L 273.647074 68.329544 
L 279.959411 69.812168 
L 287.323804 71.773793 
L 309.416983 77.924782 
L 314.677264 79.05918 
L 319.937544 79.932787 
L 324.145769 80.41559 
L 328.353993 80.688545 
L 333.621923 80.9136 
L 335.733685 81.397164 
L 337.845447 82.187896 
L 339.957208 83.26527 
L 342.06897 84.604193 
L 344.180732 86.181097 
L 346.292493 87.97089 
L 349.460136 91.01065 
L 352.627778 94.420685 
L 355.795421 98.153856 
L 360.018944 103.564293 
L 364.242467 109.403551 
L 368.46599 115.610043 
L 373.745394 123.797929 
L 380.080679 134.090381 
L 388.527726 147.906916 
L 390.639488 151.078971 
L 392.751249 153.859461 
L 393.80713 154.999181 
L 394.863011 155.890276 
L 395.918892 156.464317 
L 396.974772 156.663521 
L 399.086534 156.544911 
L 401.198296 156.186801 
L 403.310057 155.593751 
L 405.421819 154.769564 
L 407.533581 153.719562 
L 409.645342 152.452109 
L 411.757104 150.975567 
L 413.868866 149.299062 
L 417.036508 146.436457 
L 420.20415 143.192932 
L 423.371793 139.612585 
L 426.539435 135.745597 
L 430.762959 130.233277 
L 436.042363 122.954734 
L 445.54529 109.728968 
L 448.712933 105.662016 
L 450.824694 103.193257 
L 452.936456 101.024064 
L 455.048217 99.286733 
L 456.104098 98.631337 
L 457.159979 98.150054 
L 458.21586 97.864174 
L 459.271741 97.791183 
L 460.327622 97.942487 
L 461.383502 98.317325 
L 462.439383 98.904292 
L 465.607026 98.738542 
L 468.774668 98.286912 
L 471.942311 97.565368 
L 475.109953 96.563267 
L 477.221715 95.653924 
L 479.333476 94.57655 
L 481.445238 93.325064 
L 483.557 91.8911 
L 485.668761 90.268577 
L 488.836404 87.479724 
L 492.004046 84.275735 
L 495.171689 80.696148 
L 498.339331 76.799508 
L 502.562854 71.237768 
L 509.95402 61.053281 
L 511.009901 60.730145 
L 513.121662 60.689088 
L 515.233424 60.847235 
L 517.345186 61.212948 
L 519.456947 61.767982 
L 525.792232 63.718963 
L 527.903994 63.936415 
L 530.008106 63.715922 
L 532.112218 63.126674 
L 535.268387 61.850857 
L 542.63278 58.419533 
L 543.684836 59.113705 
L 547.893061 65.716324 
L 553.153341 74.460004 
L 561.56979 88.971471 
L 572.090352 107.058724 
L 578.402689 117.427968 
L 582.610913 123.982687 
L 586.819138 130.161047 
L 591.027362 135.880934 
L 594.183531 139.821673 
L 597.339699 143.424829 
L 600.495868 146.656189 
L 603.652036 149.483059 
L 605.756148 151.128392 
L 607.860261 152.573 
L 609.964373 153.80852 
L 612.068485 154.828869 
L 614.172597 155.627965 
L 616.27671 156.202767 
L 618.380822 156.548713 
L 620.484934 156.663521 
L 620.484934 156.663521 
" style="fill:none;stroke:#dc143c;stroke-linecap:square;stroke-width:1.5;"/>
   </g>
   <g id="line2d_33">
    <path clip-path="url(#paab4740b15)" d="M 108 45.732073 
L 115.391166 45.611942 
L 129.117616 45.269038 
L 131.229378 45.41578 
L 133.34114 45.74956 
L 135.452901 46.378345 
L 136.508782 46.845181 
L 137.564663 47.437471 
L 138.620544 48.170419 
L 139.676425 49.055432 
L 141.788186 51.293814 
L 143.899948 54.11308 
L 146.011709 57.413629 
L 147.06759 56.877604 
L 154.458756 48.71785 
L 159.73816 42.989599 
L 162.905803 39.85556 
L 165.017564 38.00266 
L 167.129326 36.413591 
L 169.241087 35.142336 
L 171.352849 34.222349 
L 173.464611 33.648307 
L 179.799896 34.369851 
L 185.0793 35.215327 
L 189.302823 36.142157 
L 192.470465 37.037053 
L 195.638108 38.144079 
L 198.80575 39.49897 
L 201.973393 41.127575 
L 205.141035 43.047383 
L 208.308678 45.259914 
L 211.47632 47.755284 
L 214.643963 50.509924 
L 218.867486 54.510728 
L 225.202771 60.661716 
L 226.258652 61.526961 
L 227.314532 62.225695 
L 228.370413 62.656796 
L 229.426294 62.724465 
L 230.482175 62.424138 
L 231.538056 61.847816 
L 233.649817 60.300564 
L 235.761579 58.7229 
L 236.81746 58.077389 
L 237.873341 57.631841 
L 238.929221 57.469893 
L 239.981278 57.617395 
L 241.033334 58.018084 
L 243.137446 59.211786 
L 246.293614 61.112586 
L 248.397727 62.188439 
L 250.501839 63.075732 
L 253.658007 64.11509 
L 256.814176 64.919508 
L 257.866232 64.885294 
L 267.334737 60.061064 
L 276.803242 54.91902 
L 283.115579 51.561446 
L 287.323804 49.536714 
L 290.479972 48.209196 
L 293.636141 47.093046 
L 296.792309 46.216397 
L 299.948478 45.587612 
L 303.104646 45.193766 
L 306.260814 45.000645 
L 310.469039 44.979356 
L 316.781376 45.227981 
L 327.301937 45.681892 
L 332.566043 45.709263 
L 334.677804 45.529828 
L 336.789566 45.180081 
L 339.957208 44.374141 
L 343.124851 43.296008 
L 347.348374 41.563238 
L 352.627778 39.121091 
L 377.968918 27.035044 
L 383.248322 24.851405 
L 387.471845 23.333046 
L 390.639488 22.41534 
L 393.80713 21.790356 
L 395.918892 21.590392 
L 398.030653 21.610161 
L 400.142415 21.971313 
L 402.254177 22.663204 
L 404.365938 23.641736 
L 406.4777 24.859008 
L 409.645342 27.046449 
L 412.812985 29.578314 
L 415.980627 32.380854 
L 420.20415 36.444764 
L 425.483555 41.907663 
L 433.930601 51.093089 
L 440.265886 57.868301 
L 444.489409 62.044739 
L 447.657052 64.861724 
L 450.824694 67.325921 
L 453.992337 69.397033 
L 456.104098 70.550438 
L 458.21586 71.496276 
L 460.327622 72.159276 
L 461.383502 72.341752 
L 465.607026 72.480891 
L 468.774668 72.348595 
L 471.942311 72.007972 
L 475.109953 71.471946 
L 479.333476 70.48277 
L 483.557 69.228242 
L 488.836404 67.386747 
L 501.506973 62.747274 
L 504.674616 61.820444 
L 507.842258 61.119429 
L 509.95402 60.819863 
L 511.009901 59.608673 
L 515.233424 54.038569 
L 517.345186 51.464886 
L 518.401067 50.611046 
L 527.903994 50.925059 
L 532.112218 50.8323 
L 537.372499 50.451379 
L 539.476611 53.110218 
L 542.63278 57.544404 
L 543.684836 57.926845 
L 557.361566 51.430671 
L 564.725959 47.653402 
L 572.090352 43.603177 
L 580.506801 38.705956 
L 595.235587 30.094572 
L 600.495868 27.31104 
L 604.704092 25.33801 
L 607.860261 24.063713 
L 611.016429 23.031199 
L 614.172597 22.239706 
L 617.328766 21.737134 
L 619.432878 21.58431 
L 620.484934 21.565302 
L 620.484934 21.565302 
" style="fill:none;stroke:#dc143c;stroke-linecap:square;stroke-width:1.5;"/>
   </g>
   <g id="line2d_34">
    <path clip-path="url(#paab4740b15)" d="M 108 45.731313 
L 112.223523 45.603579 
L 116.447047 45.222659 
L 120.67057 44.606039 
L 124.894093 43.781092 
L 130.173497 42.531126 
L 162.905803 34.286216 
L 166.073445 33.694687 
L 169.241087 33.368509 
L 171.352849 33.380675 
L 173.464611 33.645266 
L 181.911657 32.971622 
L 187.191061 32.72908 
L 191.414585 32.734403 
L 194.582227 32.94121 
L 197.74987 33.408806 
L 199.861631 33.903014 
L 201.973393 34.562972 
L 204.085154 35.396283 
L 206.196916 36.402947 
L 209.364559 38.220872 
L 212.532201 40.369536 
L 215.699843 42.793436 
L 219.923367 46.328164 
L 227.314532 52.622093 
L 229.426294 54.193674 
L 231.538056 55.523474 
L 233.649817 56.524815 
L 235.761579 57.1536 
L 237.873341 57.436439 
L 239.981278 57.449364 
L 243.137446 57.160443 
L 246.293614 56.574236 
L 249.449783 55.748529 
L 252.605951 54.713733 
L 255.76212 53.476692 
L 258.918288 52.037407 
L 262.074457 50.397396 
L 265.230625 48.561224 
L 269.43885 45.82027 
L 273.647074 42.767585 
L 277.855299 39.437384 
L 284.167635 34.324232 
L 285.219692 33.972964 
L 286.271748 34.13035 
L 288.37586 34.912719 
L 298.896421 39.187999 
L 304.156702 41.033295 
L 309.416983 42.61248 
L 313.625207 43.663242 
L 317.833432 44.510239 
L 322.041657 45.142065 
L 326.249881 45.548836 
L 330.458106 45.723709 
L 333.621923 45.640835 
L 335.733685 45.373962 
L 337.845447 44.945142 
L 341.013089 44.040361 
L 344.180732 42.888476 
L 348.404255 41.09184 
L 354.73954 38.09922 
L 373.745394 28.920637 
L 380.080679 26.132544 
L 385.360083 24.058391 
L 388.527726 23.000786 
L 391.695368 22.168996 
L 393.80713 21.790356 
L 395.918892 21.590392 
L 402.254177 21.37218 
L 406.4777 20.946401 
L 410.701223 20.310774 
L 414.924746 19.615841 
L 415.980627 19.598354 
L 419.14827 21.844339 
L 422.315912 24.315379 
L 426.539435 27.917775 
L 430.762959 31.818217 
L 431.818839 32.913078 
L 436.042363 39.365153 
L 445.54529 54.481836 
L 449.768813 60.986373 
L 452.936456 65.439567 
L 455.048217 68.019333 
L 457.159979 70.116296 
L 458.21586 70.932119 
L 459.271741 71.571548 
L 460.327622 72.02622 
L 461.383502 72.296893 
L 462.439383 72.394975 
L 465.607026 72.089326 
L 468.774668 71.557102 
L 471.942311 70.802104 
L 475.109953 69.828134 
L 478.277595 68.642796 
L 481.445238 67.258253 
L 485.668761 65.125555 
L 489.892284 62.705457 
L 495.171689 59.358528 
L 502.562854 54.324449 
L 506.786378 51.435233 
L 507.842258 50.882481 
L 511.009901 50.608765 
L 515.233424 50.522089 
L 517.345186 50.57151 
L 518.401067 50.256737 
L 520.512828 48.044966 
L 522.62459 46.17686 
L 524.736351 44.753541 
L 525.792232 44.25249 
L 526.848113 43.926313 
L 527.903994 43.811505 
L 528.95605 43.926313 
L 530.008106 44.25097 
L 531.060162 44.75126 
L 532.112218 45.400573 
L 534.216331 47.093046 
L 536.320443 49.237148 
L 537.372499 50.422487 
L 541.580724 49.809669 
L 544.736892 49.159596 
L 547.893061 48.33845 
L 552.101285 46.975956 
L 556.30951 45.32226 
L 557.361566 44.866829 
L 561.56979 43.905024 
L 565.778015 42.662661 
L 569.98624 41.182318 
L 575.24652 39.060265 
L 581.558857 36.219709 
L 589.975306 32.144394 
L 600.495868 27.089787 
L 605.756148 24.849884 
L 609.964373 23.334566 
L 613.120541 22.452595 
L 616.27671 21.859546 
L 619.432878 21.582789 
L 620.484934 21.564541 
L 620.484934 21.564541 
" style="fill:none;stroke:#dc143c;stroke-linecap:square;stroke-width:1.5;"/>
   </g>
   <g id="line2d_35">
    <path clip-path="url(#paab4740b15)" d="M 108 20.014249 
L 111.167642 20.117652 
L 114.335285 20.422541 
L 117.502927 20.915988 
L 121.726451 21.824571 
L 127.005855 23.245609 
L 137.564663 26.213898 
L 141.788186 27.124001 
L 144.955829 27.614408 
L 148.123471 27.914734 
L 151.291114 28.013576 
L 154.458756 27.911693 
L 157.626398 27.61897 
L 161.849922 26.960532 
L 166.073445 26.057272 
L 173.464611 24.230984 
L 179.799896 24.335148 
L 185.0793 24.617987 
L 190.358704 25.143368 
L 195.638108 25.921935 
L 199.861631 26.736238 
L 203.029274 27.52469 
L 206.196916 28.573171 
L 208.308678 29.470349 
L 210.420439 30.545441 
L 212.532201 31.798449 
L 215.699843 33.976765 
L 218.867486 36.443244 
L 223.091009 40.02283 
L 230.482175 46.371502 
L 232.593937 47.959811 
L 234.705698 49.279726 
L 235.761579 49.792942 
L 236.81746 50.180705 
L 237.873341 50.422487 
L 238.929221 50.505362 
L 239.981278 50.323645 
L 241.033334 49.823355 
L 242.08539 49.09801 
L 244.189502 47.274002 
L 245.241558 48.57567 
L 247.345671 47.15159 
L 249.449783 45.433267 
L 252.605951 42.481705 
L 263.126513 32.166444 
L 265.230625 30.416947 
L 267.334737 28.955612 
L 268.386793 28.399058 
L 269.43885 28.006733 
L 270.490906 27.808289 
L 271.542962 27.802967 
L 272.595018 27.957312 
L 274.69913 28.574692 
L 277.855299 29.85355 
L 283.115579 32.095734 
L 284.167635 32.37249 
L 285.219692 32.244756 
L 286.271748 31.593923 
L 288.37586 29.775237 
L 292.584085 25.749343 
L 293.636141 24.713027 
L 294.688197 27.906371 
L 298.896421 27.038085 
L 304.156702 25.661146 
L 318.885488 21.553137 
L 323.093713 20.723628 
L 326.249881 20.296328 
L 329.406049 20.059868 
L 335.733685 19.963308 
L 342.06897 19.697956 
L 348.404255 19.20907 
L 354.73954 18.508055 
L 361.074825 17.608596 
L 368.46599 16.332019 
L 376.913037 14.619018 
L 386.415964 12.446024 
L 394.863011 10.380995 
L 395.918892 12.478717 
L 399.086534 12.613294 
L 401.198296 12.932628 
L 403.310057 13.433679 
L 405.421819 14.10048 
L 408.589461 15.389983 
L 411.757104 17.001101 
L 415.980627 19.539049 
L 417.036508 19.647775 
L 418.092389 20.025654 
L 420.20415 21.236083 
L 423.371793 23.455457 
L 426.539435 25.989604 
L 427.595316 27.033523 
L 429.707078 29.841385 
L 431.818839 32.833244 
L 437.098244 38.092378 
L 447.657052 48.808328 
L 450.824694 51.671693 
L 452.936456 53.326909 
L 455.048217 54.684841 
L 457.159979 55.662612 
L 458.21586 55.986509 
L 459.271741 56.192556 
L 460.327622 56.277711 
L 461.383502 56.242737 
L 462.439383 56.091433 
L 466.662906 56.309645 
L 470.88643 56.339297 
L 475.109953 56.181911 
L 479.333476 55.842808 
L 484.61288 55.176768 
L 489.892284 54.27807 
L 497.28345 52.768074 
L 503.618735 51.505943 
L 507.842258 50.728896 
L 512.065782 48.035843 
L 515.233424 46.217917 
L 518.401067 44.640253 
L 521.568709 43.343148 
L 524.736351 42.318236 
L 526.848113 41.770806 
L 527.903994 41.603535 
L 530.008106 41.984456 
L 533.164275 42.82537 
L 538.424555 44.29963 
L 541.580724 44.98848 
L 544.736892 45.453036 
L 547.893061 45.666685 
L 551.049229 45.628669 
L 554.205397 45.351913 
L 557.361566 44.857705 
L 561.56979 42.886956 
L 565.778015 40.689631 
L 571.038296 37.696251 
L 578.402689 33.199718 
L 595.235587 22.762045 
L 600.495868 19.788434 
L 604.704092 17.611638 
L 608.912317 15.665219 
L 612.068485 14.397765 
L 615.224654 13.353085 
L 617.328766 12.836828 
L 619.432878 12.541824 
L 620.484934 12.501527 
L 620.484934 12.501527 
" style="fill:none;stroke:#dc143c;stroke-linecap:square;stroke-width:1.5;"/>
   </g>
   <g id="line2d_36">
    <path clip-path="url(#paab4740b15)" d="M 633.577856 307.584 
L 633.577856 41.472 
" style="fill:none;stroke:#d3d3d3;stroke-linecap:square;stroke-width:1.5;"/>
   </g>
   <g id="line2d_37">
    <path clip-path="url(#paab4740b15)" d="M 699.042467 307.584 
L 699.042467 41.472 
" style="fill:none;stroke:#d3d3d3;stroke-linecap:square;stroke-width:1.5;"/>
   </g>
   <g id="line2d_38">
    <path clip-path="url(#paab4740b15)" d="M 633.577856 142.45162 
L 634.526619 142.442496 
L 635.475381 142.415124 
L 636.424144 142.370266 
L 637.372906 142.307159 
L 638.321669 142.226565 
L 639.270431 142.127724 
L 640.219194 142.011395 
L 641.167956 141.877578 
L 642.116719 141.726275 
L 643.065481 141.557484 
L 644.014244 141.371205 
L 644.963006 141.1682 
L 645.911769 140.948467 
L 646.860531 140.712008 
L 647.809294 140.459581 
L 648.758056 140.190428 
L 649.706818 139.906068 
L 650.655581 139.605742 
L 651.604343 139.290209 
L 652.553106 138.95947 
L 653.501868 138.614285 
L 654.450631 138.254653 
L 655.399393 137.882097 
L 656.348156 137.495094 
L 657.296918 137.095165 
L 658.245681 136.683072 
L 659.194443 136.258813 
L 660.143206 135.82239 
L 661.091968 135.375322 
L 662.040731 134.917609 
L 662.989493 134.450012 
L 663.938256 133.972531 
L 664.887018 133.486687 
L 665.835781 132.992479 
L 666.784543 132.491428 
L 667.733305 131.982774 
L 668.682068 131.468797 
L 669.63083 130.949499 
L 670.579593 130.426399 
L 671.528355 129.899497 
L 672.477118 129.369554 
L 673.42588 128.838851 
L 674.374643 128.308147 
L 675.323405 127.777444 
L 676.272168 127.249021 
L 677.22093 126.72364 
L 678.169693 126.202061 
L 679.118455 125.686564 
L 680.067218 125.17867 
L 681.01598 124.67838 
L 681.964743 124.188733 
L 682.913505 123.711252 
L 683.862268 123.246697 
L 684.81103 122.798108 
L 685.759792 122.365486 
L 686.708555 121.951872 
L 687.657317 121.559547 
L 688.60608 121.189271 
L 689.554842 120.843325 
L 690.503605 120.523991 
L 691.452367 120.232028 
L 692.40113 119.969718 
L 693.349892 119.739341 
L 694.298655 119.541658 
L 695.247417 119.377428 
L 696.19618 119.248934 
L 697.144942 119.156175 
L 698.093705 119.100672 
L 699.042467 119.081664 
" style="fill:none;stroke:#191970;stroke-linecap:square;stroke-width:1.5;"/>
   </g>
   <g id="line2d_39">
    <path clip-path="url(#paab4740b15)" d="M 633.577856 142.449339 
L 634.526619 142.440215 
L 635.475381 142.412844 
L 636.424144 142.367985 
L 637.372906 142.304878 
L 638.321669 142.224284 
L 639.270431 142.125443 
L 640.219194 142.009114 
L 641.167956 141.875297 
L 642.116719 141.723994 
L 643.065481 141.555203 
L 644.014244 141.368924 
L 644.963006 141.165919 
L 645.911769 140.946186 
L 646.860531 140.709727 
L 647.809294 140.4573 
L 648.758056 140.188147 
L 649.706818 139.903788 
L 650.655581 139.603461 
L 651.604343 139.287928 
L 652.553106 138.957189 
L 653.501868 138.612004 
L 654.450631 138.253133 
L 655.399393 137.879816 
L 656.348156 137.492813 
L 657.296918 137.092884 
L 658.245681 136.680791 
L 659.194443 136.256532 
L 660.143206 135.820109 
L 661.091968 135.373041 
L 662.040731 134.915328 
L 662.989493 134.447731 
L 663.938256 133.97025 
L 664.887018 133.484406 
L 665.835781 132.990198 
L 666.784543 132.489147 
L 667.733305 131.980493 
L 668.682068 131.466516 
L 669.63083 130.947218 
L 670.579593 130.424118 
L 671.528355 129.897216 
L 672.477118 129.368033 
L 673.42588 128.83733 
L 674.374643 128.305866 
L 675.323405 127.775163 
L 676.272168 127.24674 
L 677.22093 126.721359 
L 678.169693 126.19978 
L 679.118455 125.684283 
L 680.067218 125.176389 
L 681.01598 124.676099 
L 681.964743 124.187213 
L 682.913505 123.708972 
L 683.862268 123.245176 
L 684.81103 122.795827 
L 685.759792 122.363205 
L 686.708555 121.950351 
L 687.657317 121.557266 
L 688.60608 121.18699 
L 689.554842 120.841044 
L 690.503605 120.52171 
L 691.452367 120.230508 
L 692.40113 119.968197 
L 693.349892 119.73782 
L 694.298655 119.539377 
L 695.247417 119.375908 
L 696.19618 119.247414 
L 697.144942 119.154655 
L 698.093705 119.099151 
L 699.042467 119.080143 
" style="fill:none;stroke:#191970;stroke-linecap:square;stroke-width:1.5;"/>
   </g>
   <g id="line2d_40">
    <path clip-path="url(#paab4740b15)" d="M 633.577856 116.57641 
L 634.526619 116.569567 
L 635.475381 116.549038 
L 636.424144 116.514824 
L 637.372906 116.466924 
L 638.321669 116.405338 
L 639.270431 116.330066 
L 640.219194 116.241869 
L 641.167956 116.139986 
L 642.116719 116.024417 
L 643.065481 115.896684 
L 644.014244 115.754504 
L 644.963006 115.600159 
L 645.911769 115.433649 
L 646.860531 115.253453 
L 647.809294 115.061092 
L 648.758056 114.857326 
L 649.706818 114.640635 
L 650.655581 114.412539 
L 651.604343 114.172278 
L 652.553106 113.921372 
L 653.501868 113.659062 
L 654.450631 113.385347 
L 655.399393 113.101747 
L 656.348156 112.808264 
L 657.296918 112.504136 
L 658.245681 112.190884 
L 659.194443 111.869268 
L 660.143206 111.537769 
L 661.091968 111.197906 
L 662.040731 110.85044 
L 662.989493 110.496131 
L 663.938256 110.134218 
L 664.887018 109.765463 
L 665.835781 109.390625 
L 666.784543 109.010465 
L 667.733305 108.625743 
L 668.682068 108.23646 
L 669.63083 107.843374 
L 670.579593 107.447247 
L 671.528355 107.04884 
L 672.477118 106.648911 
L 673.42588 106.248223 
L 674.374643 105.847534 
L 675.323405 105.447606 
L 676.272168 105.048438 
L 677.22093 104.653071 
L 678.169693 104.260746 
L 679.118455 103.872223 
L 680.067218 103.490542 
L 681.01598 103.114944 
L 681.964743 102.746949 
L 682.913505 102.388078 
L 683.862268 102.039852 
L 684.81103 101.702269 
L 685.759792 101.378373 
L 686.708555 101.068163 
L 687.657317 100.773919 
L 688.60608 100.495642 
L 689.554842 100.236372 
L 690.503605 99.996872 
L 691.452367 99.7779 
L 692.40113 99.580977 
L 693.349892 99.407624 
L 694.298655 99.258601 
L 695.247417 99.135429 
L 696.19618 99.038868 
L 697.144942 98.968919 
L 698.093705 98.926341 
L 699.042467 98.911895 
" style="fill:none;stroke:#dc143c;stroke-linecap:square;stroke-width:1.5;"/>
   </g>
   <g id="line2d_41">
    <path clip-path="url(#paab4740b15)" d="M 633.577856 116.569567 
L 634.526619 116.562724 
L 635.475381 116.542195 
L 636.424144 116.507981 
L 637.372906 116.460081 
L 638.321669 116.398495 
L 639.270431 116.323223 
L 640.219194 116.235026 
L 641.167956 116.133143 
L 642.116719 116.017574 
L 643.065481 115.88908 
L 644.014244 115.747661 
L 644.963006 115.593316 
L 645.911769 115.426045 
L 646.860531 115.24661 
L 647.809294 115.054249 
L 648.758056 114.849723 
L 649.706818 114.633032 
L 650.655581 114.404936 
L 651.604343 114.164675 
L 652.553106 113.913009 
L 653.501868 113.650698 
L 654.450631 113.377743 
L 655.399393 113.094144 
L 656.348156 112.7999 
L 657.296918 112.496532 
L 658.245681 112.183281 
L 659.194443 111.860905 
L 660.143206 111.529405 
L 661.091968 111.189542 
L 662.040731 110.842076 
L 662.989493 110.487007 
L 663.938256 110.125094 
L 664.887018 109.756339 
L 665.835781 109.382262 
L 666.784543 109.002102 
L 667.733305 108.61662 
L 668.682068 108.227336 
L 669.63083 107.83425 
L 670.579593 107.438124 
L 671.528355 107.039716 
L 672.477118 106.639788 
L 673.42588 106.239099 
L 674.374643 105.83765 
L 675.323405 105.437722 
L 676.272168 105.039314 
L 677.22093 104.643187 
L 678.169693 104.250862 
L 679.118455 103.862339 
L 680.067218 103.479898 
L 681.01598 103.1043 
L 681.964743 102.737065 
L 682.913505 102.378194 
L 683.862268 102.029207 
L 684.81103 101.692385 
L 685.759792 101.368489 
L 686.708555 101.058278 
L 687.657317 100.764035 
L 688.60608 100.486518 
L 689.554842 100.226488 
L 690.503605 99.986988 
L 691.452367 99.768015 
L 692.40113 99.571853 
L 693.349892 99.3985 
L 694.298655 99.250237 
L 695.247417 99.127066 
L 696.19618 99.030505 
L 697.144942 98.960556 
L 698.093705 98.918738 
L 699.042467 98.904292 
" style="fill:none;stroke:#dc143c;stroke-linecap:square;stroke-width:1.5;"/>
   </g>
   <g id="line2d_42">
    <path clip-path="url(#paab4740b15)" d="M 633.577856 33.648307 
L 634.526619 33.675679 
L 635.475381 33.757033 
L 636.424144 33.89237 
L 637.372906 34.079409 
L 638.321669 34.316628 
L 639.270431 34.602509 
L 640.219194 34.932488 
L 641.167956 35.305805 
L 642.116719 35.717898 
L 643.065481 36.167247 
L 644.014244 36.651571 
L 644.963006 37.166308 
L 645.911769 37.710697 
L 646.860531 38.281697 
L 647.809294 38.877028 
L 648.758056 39.495168 
L 649.706818 40.134597 
L 650.655581 40.792274 
L 651.604343 41.467438 
L 652.553106 42.158569 
L 653.501868 42.864146 
L 654.450631 43.583409 
L 655.399393 44.314076 
L 656.348156 45.056148 
L 657.296918 45.808105 
L 658.245681 46.568425 
L 659.194443 47.337108 
L 660.143206 48.111875 
L 661.091968 48.893484 
L 662.040731 49.679654 
L 662.989493 50.469627 
L 663.938256 51.263401 
L 664.887018 52.060216 
L 665.835781 52.857792 
L 666.784543 53.655368 
L 667.733305 54.453704 
L 668.682068 55.250519 
L 669.63083 56.045053 
L 670.579593 56.836547 
L 671.528355 57.623478 
L 672.477118 58.405847 
L 673.42588 59.181373 
L 674.374643 59.950057 
L 675.323405 60.710377 
L 676.272168 61.460813 
L 677.22093 62.199844 
L 678.169693 62.92747 
L 679.118455 63.64065 
L 680.067218 64.338624 
L 681.01598 65.020631 
L 681.964743 65.68363 
L 682.913505 66.326861 
L 683.862268 66.948042 
L 684.81103 67.546414 
L 685.759792 68.118935 
L 686.708555 68.664084 
L 687.657317 69.180342 
L 688.60608 69.664666 
L 689.554842 70.116296 
L 690.503605 70.532191 
L 691.452367 70.91083 
L 692.40113 71.249933 
L 693.349892 71.548739 
L 694.298655 71.804206 
L 695.247417 72.015575 
L 696.19618 72.181325 
L 697.144942 72.300695 
L 698.093705 72.372925 
L 699.042467 72.397256 
" style="fill:none;stroke:#dc143c;stroke-linecap:square;stroke-width:1.5;"/>
   </g>
   <g id="line2d_43">
    <path clip-path="url(#paab4740b15)" d="M 633.577856 33.645266 
L 634.526619 33.671877 
L 635.475381 33.753992 
L 636.424144 33.889329 
L 637.372906 34.076367 
L 638.321669 34.313587 
L 639.270431 34.598707 
L 640.219194 34.929446 
L 641.167956 35.302003 
L 642.116719 35.714857 
L 643.065481 36.164206 
L 644.014244 36.64777 
L 644.963006 37.163267 
L 645.911769 37.707656 
L 646.860531 38.277896 
L 647.809294 38.873987 
L 648.758056 39.492127 
L 649.706818 40.130796 
L 650.655581 40.788472 
L 651.604343 41.463636 
L 652.553106 42.154767 
L 653.501868 42.860344 
L 654.450631 43.578847 
L 655.399393 44.309514 
L 656.348156 45.051587 
L 657.296918 45.803543 
L 658.245681 46.563863 
L 659.194443 47.331786 
L 660.143206 48.107313 
L 661.091968 48.888161 
L 662.040731 49.675092 
L 662.989493 50.465065 
L 663.938256 51.258839 
L 664.887018 52.054894 
L 665.835781 52.85247 
L 666.784543 53.650806 
L 667.733305 54.448381 
L 668.682068 55.245197 
L 669.63083 56.039731 
L 670.579593 56.831224 
L 671.528355 57.618916 
L 672.477118 58.400525 
L 673.42588 59.176812 
L 674.374643 59.945495 
L 675.323405 60.705055 
L 676.272168 61.455491 
L 677.22093 62.195282 
L 678.169693 62.922148 
L 679.118455 63.636088 
L 680.067218 64.334062 
L 681.01598 65.015309 
L 681.964743 65.679068 
L 682.913505 66.322299 
L 683.862268 66.944241 
L 684.81103 67.541852 
L 685.759792 68.115133 
L 686.708555 68.660283 
L 687.657317 69.17654 
L 688.60608 69.661624 
L 689.554842 70.113254 
L 690.503605 70.529149 
L 691.452367 70.908549 
L 692.40113 71.247652 
L 693.349892 71.546458 
L 694.298655 71.802685 
L 695.247417 72.014054 
L 696.19618 72.179804 
L 697.144942 72.299174 
L 698.093705 72.371405 
L 699.042467 72.394975 
" style="fill:none;stroke:#dc143c;stroke-linecap:square;stroke-width:1.5;"/>
   </g>
   <g id="line2d_44">
    <path clip-path="url(#paab4740b15)" d="M 633.577856 24.229463 
L 634.526619 24.261396 
L 635.475381 24.355676 
L 636.424144 24.509261 
L 637.372906 24.718349 
L 638.321669 24.977618 
L 639.270431 25.283267 
L 640.219194 25.628452 
L 641.167956 26.010132 
L 642.116719 26.422986 
L 643.065481 26.863212 
L 644.014244 27.329288 
L 644.963006 27.815892 
L 645.911769 28.323026 
L 646.860531 28.846886 
L 647.809294 29.386714 
L 648.758056 29.940987 
L 649.706818 30.507425 
L 650.655581 31.085268 
L 651.604343 31.673756 
L 652.553106 32.270607 
L 653.501868 32.875822 
L 654.450631 33.48864 
L 655.399393 34.108301 
L 656.348156 34.733284 
L 657.296918 35.363589 
L 658.245681 35.997696 
L 659.194443 36.635604 
L 660.143206 37.275794 
L 661.091968 37.919025 
L 662.040731 38.563016 
L 662.989493 39.208527 
L 663.938256 39.854039 
L 664.887018 40.49879 
L 665.835781 41.142781 
L 666.784543 41.784492 
L 667.733305 42.423921 
L 668.682068 43.060308 
L 669.63083 43.692895 
L 670.579593 44.320159 
L 671.528355 44.9421 
L 672.477118 45.55796 
L 673.42588 46.166976 
L 674.374643 46.766868 
L 675.323405 47.359158 
L 676.272168 47.940803 
L 677.22093 48.511803 
L 678.169693 49.070638 
L 679.118455 49.617308 
L 680.067218 50.149532 
L 681.01598 50.66731 
L 681.964743 51.168361 
L 682.913505 51.652685 
L 683.862268 52.118001 
L 684.81103 52.564308 
L 685.759792 52.988567 
L 686.708555 53.391537 
L 687.657317 53.770936 
L 688.60608 54.125245 
L 689.554842 54.453704 
L 690.503605 54.75479 
L 691.452367 55.027745 
L 692.40113 55.271808 
L 693.349892 55.485458 
L 694.298655 55.667935 
L 695.247417 55.818478 
L 696.19618 55.935567 
L 697.144942 56.019963 
L 698.093705 56.070904 
L 699.042467 56.088392 
" style="fill:none;stroke:#dc143c;stroke-linecap:square;stroke-width:1.5;"/>
   </g>
   <g id="line2d_45">
    <path clip-path="url(#paab4740b15)" d="M 712.135389 307.584 
L 712.135389 41.472 
" style="fill:none;stroke:#d3d3d3;stroke-linecap:square;stroke-width:1.5;"/>
   </g>
   <g id="line2d_46">
    <path clip-path="url(#paab4740b15)" d="M 777.6 307.584 
L 777.6 41.472 
" style="fill:none;stroke:#d3d3d3;stroke-linecap:square;stroke-width:1.5;"/>
   </g>
   <g id="line2d_47">
    <path clip-path="url(#paab4740b15)" d="M 712.135389 86.388664 
L 713.084152 86.397788 
L 714.032914 86.398548 
L 714.981677 86.390945 
L 715.930439 86.374218 
L 716.879202 86.348367 
L 717.827964 86.314153 
L 718.776727 86.270815 
L 719.725489 86.219113 
L 720.674252 86.158287 
L 721.623014 86.089098 
L 722.571776 86.011546 
L 723.520539 85.924869 
L 724.469301 85.829829 
L 725.418064 85.727186 
L 726.366826 85.616179 
L 727.315589 85.496809 
L 728.264351 85.369075 
L 729.213114 85.234499 
L 730.161876 85.091558 
L 731.110639 84.941775 
L 732.059401 84.784389 
L 733.008164 84.62016 
L 733.956926 84.449088 
L 734.905689 84.271173 
L 735.854451 84.087176 
L 736.803214 83.896335 
L 737.751976 83.700933 
L 738.700739 83.498688 
L 739.649501 83.291881 
L 740.598264 83.079752 
L 741.547026 82.86306 
L 742.495788 82.642568 
L 743.444551 82.417513 
L 744.393313 82.189417 
L 745.342076 81.95828 
L 746.290838 81.724101 
L 747.239601 81.486881 
L 748.188363 81.248901 
L 749.137126 81.0094 
L 750.085888 80.807916 
L 751.034651 80.634563 
L 751.983413 80.465011 
L 752.932176 80.300782 
L 753.880938 80.141115 
L 754.829701 79.98753 
L 755.778463 79.839268 
L 756.727226 79.697088 
L 757.675988 79.561751 
L 758.624751 79.432497 
L 759.573513 79.309325 
L 760.522275 79.192996 
L 761.471038 79.08351 
L 762.4198 78.980867 
L 763.368563 78.885066 
L 764.317325 78.795348 
L 765.266088 78.712474 
L 766.21485 78.636442 
L 767.163613 78.567252 
L 768.112375 78.504146 
L 769.061138 78.447122 
L 770.0099 78.396941 
L 770.958663 78.352082 
L 771.907425 78.314066 
L 772.856188 78.282132 
L 773.80495 78.255521 
L 774.753713 78.234993 
L 775.702475 78.220547 
L 776.651238 78.212183 
L 777.6 78.209142 
" style="fill:none;stroke:#191970;stroke-linecap:square;stroke-width:1.5;"/>
   </g>
   <g id="line2d_48">
    <path clip-path="url(#paab4740b15)" d="M 712.135389 86.386383 
L 713.084152 86.368896 
L 714.032914 86.341524 
L 714.981677 86.305789 
L 715.930439 86.261691 
L 716.879202 86.208468 
L 717.827964 86.147643 
L 718.776727 86.077693 
L 719.725489 86.000141 
L 720.674252 85.914985 
L 721.623014 85.821466 
L 722.571776 85.720343 
L 723.520539 85.611617 
L 724.469301 85.496049 
L 725.418064 85.372877 
L 726.366826 85.243622 
L 727.315589 85.107525 
L 728.264351 84.964585 
L 729.213114 84.816323 
L 730.161876 84.661978 
L 731.110639 84.50231 
L 732.059401 84.337321 
L 733.008164 84.16777 
L 733.956926 83.994417 
L 734.905689 83.816502 
L 735.854451 83.635546 
L 736.803214 83.451548 
L 737.751976 83.264509 
L 738.700739 83.07519 
L 739.649501 82.883589 
L 740.598264 82.691988 
L 741.547026 82.498867 
L 742.495788 82.304986 
L 743.444551 82.111864 
L 744.393313 81.919503 
L 745.342076 81.728663 
L 746.290838 81.539343 
L 747.239601 81.351544 
L 748.188363 81.167547 
L 749.137126 80.98583 
L 750.085888 80.768379 
L 751.034651 80.527357 
L 751.983413 80.286336 
L 752.932176 80.046075 
L 753.880938 79.806574 
L 754.829701 79.569354 
L 755.778463 79.335176 
L 756.727226 79.103278 
L 757.675988 78.875182 
L 758.624751 78.650888 
L 759.573513 78.432676 
L 760.522275 78.219026 
L 761.471038 78.012219 
L 762.4198 77.812255 
L 763.368563 77.620654 
L 764.317325 77.436657 
L 765.266088 77.261783 
L 766.21485 77.096794 
L 767.163613 76.942449 
L 768.112375 76.798748 
L 769.061138 76.667213 
L 770.0099 76.547843 
L 770.958663 76.440637 
L 771.907425 76.347118 
L 772.856188 76.266524 
L 773.80495 76.200376 
L 774.753713 76.148675 
L 775.702475 76.112179 
L 776.651238 76.08937 
L 777.6 76.081766 
" style="fill:none;stroke:#191970;stroke-linecap:square;stroke-width:1.5;"/>
   </g>
   <g id="line2d_49">
    <path clip-path="url(#paab4740b15)" d="M 712.135389 75.695524 
L 713.084152 75.690962 
L 714.032914 75.676516 
L 714.981677 75.653706 
L 715.930439 75.621012 
L 716.879202 75.579195 
L 717.827964 75.528253 
L 718.776727 75.468188 
L 719.725489 75.399759 
L 720.674252 75.321446 
L 721.623014 75.23401 
L 722.571776 75.138209 
L 723.520539 75.034045 
L 724.469301 74.920758 
L 725.418064 74.799107 
L 726.366826 74.668332 
L 727.315589 74.529953 
L 728.264351 74.383212 
L 729.213114 74.228867 
L 730.161876 74.066158 
L 731.110639 73.896607 
L 732.059401 73.718692 
L 733.008164 73.533934 
L 733.956926 73.341573 
L 734.905689 73.14313 
L 735.854451 72.937083 
L 736.803214 72.725714 
L 737.751976 72.507502 
L 738.700739 72.283968 
L 739.649501 72.054351 
L 740.598264 71.819412 
L 741.547026 71.579912 
L 742.495788 71.335849 
L 743.444551 71.087224 
L 744.393313 70.834798 
L 745.342076 70.57857 
L 746.290838 70.319301 
L 747.239601 70.057751 
L 748.188363 69.79392 
L 749.137126 69.527808 
L 750.085888 69.260936 
L 751.034651 68.993303 
L 751.983413 68.72491 
L 752.932176 68.457277 
L 753.880938 68.190405 
L 754.829701 67.925053 
L 755.778463 67.661983 
L 756.727226 67.401953 
L 757.675988 67.144965 
L 758.624751 66.892539 
L 759.573513 66.644675 
L 760.522275 66.403653 
L 761.471038 66.167954 
L 762.4198 65.940618 
L 763.368563 65.720886 
L 764.317325 65.510277 
L 765.266088 65.309553 
L 766.21485 65.119473 
L 767.163613 64.940797 
L 768.112375 64.775048 
L 769.061138 64.621463 
L 770.0099 64.482324 
L 770.958663 64.357632 
L 771.907425 64.248146 
L 772.856188 64.153866 
L 773.80495 64.076314 
L 774.753713 64.015488 
L 775.702475 63.97215 
L 776.651238 63.945539 
L 777.6 63.936415 
" style="fill:none;stroke:#dc143c;stroke-linecap:square;stroke-width:1.5;"/>
   </g>
   <g id="line2d_50">
    <path clip-path="url(#paab4740b15)" d="M 712.135389 75.694764 
L 713.084152 75.690202 
L 714.032914 75.675756 
L 714.981677 75.652946 
L 715.930439 75.620252 
L 716.879202 75.578435 
L 717.827964 75.527493 
L 718.776727 75.467428 
L 719.725489 75.398999 
L 720.674252 75.320686 
L 721.623014 75.23401 
L 722.571776 75.137449 
L 723.520539 75.033285 
L 724.469301 74.919997 
L 725.418064 74.798346 
L 726.366826 74.667571 
L 727.315589 74.529193 
L 728.264351 74.382451 
L 729.213114 74.228106 
L 730.161876 74.065398 
L 731.110639 73.895846 
L 732.059401 73.717932 
L 733.008164 73.533174 
L 733.956926 73.340813 
L 734.905689 73.142369 
L 735.854451 72.936323 
L 736.803214 72.724954 
L 737.751976 72.506742 
L 738.700739 72.283208 
L 739.649501 72.053591 
L 740.598264 71.818652 
L 741.547026 71.579151 
L 742.495788 71.335089 
L 743.444551 71.086464 
L 744.393313 70.834038 
L 745.342076 70.57781 
L 746.290838 70.318541 
L 747.239601 70.056991 
L 748.188363 69.79316 
L 749.137126 69.527048 
L 750.085888 69.260175 
L 751.034651 68.992543 
L 751.983413 68.72415 
L 752.932176 68.456517 
L 753.880938 68.189645 
L 754.829701 67.924293 
L 755.778463 67.661222 
L 756.727226 67.401193 
L 757.675988 67.144205 
L 758.624751 66.891779 
L 759.573513 66.643914 
L 760.522275 66.402893 
L 761.471038 66.167194 
L 762.4198 65.939858 
L 763.368563 65.720125 
L 764.317325 65.509517 
L 765.266088 65.308792 
L 766.21485 65.118712 
L 767.163613 64.940037 
L 768.112375 64.774287 
L 769.061138 64.620703 
L 770.0099 64.481564 
L 770.958663 64.356872 
L 771.907425 64.247386 
L 772.856188 64.153106 
L 773.80495 64.075553 
L 774.753713 64.014728 
L 775.702475 63.971389 
L 776.651238 63.944778 
L 777.6 63.936415 
" style="fill:none;stroke:#dc143c;stroke-linecap:square;stroke-width:1.5;"/>
   </g>
   <g id="line2d_51">
    <path clip-path="url(#paab4740b15)" d="M 712.135389 57.469893 
L 713.084152 57.464571 
L 714.032914 57.447084 
L 714.981677 57.418952 
L 715.930439 57.378655 
L 716.879202 57.326953 
L 717.827964 57.264607 
L 718.776727 57.190095 
L 719.725489 57.10494 
L 720.674252 57.007619 
L 721.623014 56.900413 
L 722.571776 56.781043 
L 723.520539 56.651028 
L 724.469301 56.510369 
L 725.418064 56.358305 
L 726.366826 56.195597 
L 727.315589 56.022244 
L 728.264351 55.838246 
L 729.213114 55.787305 
L 730.161876 56.003236 
L 731.110639 56.209283 
L 732.059401 56.404685 
L 733.008164 56.589443 
L 733.956926 56.762796 
L 734.905689 56.924744 
L 735.854451 57.074527 
L 736.803214 57.211384 
L 737.751976 57.336077 
L 738.700739 57.447844 
L 739.649501 57.545925 
L 740.598264 57.630321 
L 741.547026 57.70027 
L 742.495788 57.755773 
L 743.444551 57.796831 
L 744.393313 57.822682 
L 745.342076 57.833326 
L 746.290838 57.827244 
L 747.239601 57.805955 
L 748.188363 57.767939 
L 749.137126 57.713956 
L 750.085888 57.642486 
L 751.034651 57.555049 
L 751.983413 57.449364 
L 752.932176 57.327713 
L 753.880938 57.188575 
L 754.829701 57.032709 
L 755.778463 56.860116 
L 756.727226 56.670036 
L 757.675988 56.46399 
L 758.624751 56.242737 
L 759.573513 56.004756 
L 760.522275 55.75233 
L 761.471038 55.485458 
L 762.4198 55.2049 
L 763.368563 54.912177 
L 764.317325 54.608049 
L 765.266088 54.293276 
L 766.21485 53.97014 
L 767.163613 53.640922 
L 768.112375 53.307901 
L 769.061138 52.973361 
L 770.0099 52.641861 
L 770.958663 52.317965 
L 771.907425 52.007754 
L 772.856188 51.718072 
L 773.80495 51.457283 
L 774.753713 51.23755 
L 775.702475 51.068759 
L 776.651238 50.962314 
L 777.6 50.925059 
" style="fill:none;stroke:#dc143c;stroke-linecap:square;stroke-width:1.5;"/>
   </g>
   <g id="line2d_52">
    <path clip-path="url(#paab4740b15)" d="M 712.135389 57.468372 
L 713.084152 57.46305 
L 714.032914 57.445563 
L 714.981677 57.417431 
L 715.930439 57.377134 
L 716.879202 57.325432 
L 717.827964 57.263086 
L 718.776727 57.188575 
L 719.725489 57.103419 
L 720.674252 57.006858 
L 721.623014 56.898893 
L 722.571776 56.779523 
L 723.520539 56.649508 
L 724.469301 56.508849 
L 725.418064 56.356785 
L 726.366826 56.194076 
L 727.315589 56.020723 
L 728.264351 55.836726 
L 729.213114 55.643604 
L 730.161876 55.439078 
L 731.110639 55.224668 
L 732.059401 54.999613 
L 733.008164 54.765435 
L 733.956926 54.520612 
L 734.905689 54.267425 
L 735.854451 54.004355 
L 736.803214 53.73216 
L 737.751976 53.451602 
L 738.700739 53.16192 
L 739.649501 52.864635 
L 740.598264 52.558986 
L 741.547026 52.245734 
L 742.495788 51.924879 
L 743.444551 51.597181 
L 744.393313 51.263401 
L 745.342076 50.922778 
L 746.290838 50.576832 
L 747.239601 50.225564 
L 748.188363 49.869734 
L 749.137126 49.509343 
L 750.085888 49.145149 
L 751.034651 48.778675 
L 751.983413 48.40916 
L 752.932176 48.038884 
L 753.880938 47.667087 
L 754.829701 47.295291 
L 755.778463 46.924255 
L 756.727226 46.5555 
L 757.675988 46.189025 
L 758.624751 45.827113 
L 759.573513 45.469763 
L 760.522275 45.119255 
L 761.471038 44.77559 
L 762.4198 44.44105 
L 763.368563 44.116393 
L 764.317325 43.803901 
L 765.266088 43.504335 
L 766.21485 43.219976 
L 767.163613 42.950822 
L 768.112375 42.699917 
L 769.061138 42.467259 
L 770.0099 42.25589 
L 770.958663 42.06581 
L 771.907425 41.89854 
L 772.856188 41.754839 
L 773.80495 41.636229 
L 774.753713 41.54347 
L 775.702475 41.476562 
L 776.651238 43.764365 
L 777.6 43.811505 
" style="fill:none;stroke:#dc143c;stroke-linecap:square;stroke-width:1.5;"/>
   </g>
   <g id="line2d_53">
    <path clip-path="url(#paab4740b15)" d="M 712.135389 50.506883 
L 713.084152 50.852068 
L 714.032914 51.192691 
L 714.981677 51.528753 
L 715.930439 51.860252 
L 716.879202 52.186429 
L 717.827964 52.506524 
L 718.776727 52.821297 
L 719.725489 53.129226 
L 720.674252 53.430313 
L 721.623014 53.724557 
L 722.571776 54.011958 
L 723.520539 54.290995 
L 724.469301 54.562429 
L 725.418064 54.82474 
L 726.366826 55.079447 
L 727.315589 55.32427 
L 728.264351 55.56073 
L 729.213114 55.642084 
L 730.161876 55.437558 
L 731.110639 55.223148 
L 732.059401 54.998093 
L 733.008164 54.763914 
L 733.956926 54.519091 
L 734.905689 54.265905 
L 735.854451 54.002834 
L 736.803214 53.730639 
L 737.751976 53.450081 
L 738.700739 53.160399 
L 739.649501 52.863114 
L 740.598264 52.557466 
L 741.547026 52.244214 
L 742.495788 51.923359 
L 743.444551 51.595661 
L 744.393313 51.26188 
L 745.342076 50.921257 
L 746.290838 50.575311 
L 747.239601 50.224044 
L 748.188363 49.868214 
L 749.137126 49.507822 
L 750.085888 49.143629 
L 751.034651 48.777155 
L 751.983413 48.407639 
L 752.932176 48.037363 
L 753.880938 47.665567 
L 754.829701 47.29377 
L 755.778463 46.922734 
L 756.727226 46.553979 
L 757.675988 46.187505 
L 758.624751 45.825592 
L 759.573513 45.468242 
L 760.522275 45.117734 
L 761.471038 44.77407 
L 762.4198 44.439529 
L 763.368563 44.114872 
L 764.317325 43.802381 
L 765.266088 43.502815 
L 766.21485 43.218455 
L 767.163613 42.949302 
L 768.112375 42.698396 
L 769.061138 42.465738 
L 770.0099 42.254369 
L 770.958663 42.064289 
L 771.907425 41.897019 
L 772.856188 41.753318 
L 773.80495 41.634708 
L 774.753713 41.541949 
L 775.702475 41.475041 
L 776.651238 41.434744 
L 777.6 41.421059 
" style="fill:none;stroke:#dc143c;stroke-linecap:square;stroke-width:1.5;"/>
   </g>
   <g id="patch_3">
    <path d="M 108 307.584 
L 108 41.472 
" style="fill:none;stroke:#000000;stroke-linecap:square;stroke-linejoin:miter;stroke-width:0.8;"/>
   </g>
   <g id="patch_4">
    <path d="M 777.6 307.584 
L 777.6 41.472 
" style="fill:none;stroke:#000000;stroke-linecap:square;stroke-linejoin:miter;stroke-width:0.8;"/>
   </g>
   <g id="patch_5">
    <path d="M 108 307.584 
L 777.6 307.584 
" style="fill:none;stroke:#000000;stroke-linecap:square;stroke-linejoin:miter;stroke-width:0.8;"/>
   </g>
   <g id="patch_6">
    <path d="M 108 41.472 
L 777.6 41.472 
" style="fill:none;stroke:#000000;stroke-linecap:square;stroke-linejoin:miter;stroke-width:0.8;"/>
   </g>
  </g>
 </g>
 <defs>
  <clipPath id="paab4740b15">
   <rect height="266.112" width="669.6" x="108" y="41.472"/>
  </clipPath>
 </defs>
</svg>
