<?xml version="1.0" encoding="utf-8" standalone="no"?>
<!DOCTYPE svg PUBLIC "-//W3C//DTD SVG 1.1//EN"
  "http://www.w3.org/Graphics/SVG/1.1/DTD/svg11.dtd">
<!-- Created with matplotlib (https://matplotlib.org/) -->
<svg height="345.6pt" version="1.1" viewBox="0 0 864 345.6" width="864pt" xmlns="http://www.w3.org/2000/svg" xmlns:xlink="http://www.w3.org/1999/xlink">
 <defs>
  <style type="text/css">
*{stroke-linecap:butt;stroke-linejoin:round;}
  </style>
 </defs>
 <g id="figure_1">
  <g id="patch_1">
   <path d="M 0 345.6 
L 864 345.6 
L 864 0 
L 0 0 
z
" style="fill:#ffffff;"/>
  </g>
  <g id="axes_1">
   <g id="patch_2">
    <path d="M 108 307.584 
L 777.6 307.584 
L 777.6 41.472 
L 108 41.472 
z
" style="fill:#ffffff;"/>
   </g>
   <g id="matplotlib.axis_1">
    <g id="xtick_1">
     <g id="line2d_1">
      <defs>
       <path d="M 0 0 
L 0 3.5 
" id="m799ff6da02" style="stroke:#000000;stroke-width:0.8;"/>
      </defs>
      <g>
       <use style="stroke:#000000;stroke-width:0.8;" x="108" xlink:href="#m799ff6da02" y="307.584"/>
      </g>
     </g>
     <g id="text_1">
      <!-- Γ -->
      <defs>
       <path d="M 9.8125 0 
L 9.8125 72.90625 
L 55.171875 72.90625 
L 55.171875 64.59375 
L 19.671875 64.59375 
L 19.671875 0 
z
" id="DejaVuSans-915"/>
      </defs>
      <g transform="translate(105.214062 322.182437)scale(0.1 -0.1)">
       <use xlink:href="#DejaVuSans-915"/>
      </g>
     </g>
    </g>
    <g id="xtick_2">
     <g id="line2d_2">
      <g>
       <use style="stroke:#000000;stroke-width:0.8;" x="192.122738" xlink:href="#m799ff6da02" y="307.584"/>
      </g>
     </g>
     <g id="text_2">
      <!-- Y -->
      <defs>
       <path d="M -0.203125 72.90625 
L 10.40625 72.90625 
L 30.609375 42.921875 
L 50.6875 72.90625 
L 61.28125 72.90625 
L 35.5 34.71875 
L 35.5 0 
L 25.59375 0 
L 25.59375 34.71875 
z
" id="DejaVuSans-89"/>
      </defs>
      <g transform="translate(189.068832 322.182437)scale(0.1 -0.1)">
       <use xlink:href="#DejaVuSans-89"/>
      </g>
     </g>
    </g>
    <g id="xtick_3">
     <g id="line2d_3">
      <g>
       <use style="stroke:#000000;stroke-width:0.8;" x="207.264831" xlink:href="#m799ff6da02" y="307.584"/>
      </g>
     </g>
     <g id="text_3">
      <!-- C₀ -->
      <defs>
       <path d="M 64.40625 67.28125 
L 64.40625 56.890625 
Q 59.421875 61.53125 53.78125 63.8125 
Q 48.140625 66.109375 41.796875 66.109375 
Q 29.296875 66.109375 22.65625 58.46875 
Q 16.015625 50.828125 16.015625 36.375 
Q 16.015625 21.96875 22.65625 14.328125 
Q 29.296875 6.6875 41.796875 6.6875 
Q 48.140625 6.6875 53.78125 8.984375 
Q 59.421875 11.28125 64.40625 15.921875 
L 64.40625 5.609375 
Q 59.234375 2.09375 53.4375 0.328125 
Q 47.65625 -1.421875 41.21875 -1.421875 
Q 24.65625 -1.421875 15.125 8.703125 
Q 5.609375 18.84375 5.609375 36.375 
Q 5.609375 53.953125 15.125 64.078125 
Q 24.65625 74.21875 41.21875 74.21875 
Q 47.75 74.21875 53.53125 72.484375 
Q 59.328125 70.75 64.40625 67.28125 
z
" id="DejaVuSans-67"/>
       <path d="M 27.828125 33.046875 
Q 25.390625 37.25 20.453125 37.25 
Q 15.53125 37.25 13.09375 33.046875 
Q 10.59375 28.84375 10.59375 20.453125 
Q 10.59375 12 13.09375 7.8125 
Q 15.53125 3.609375 20.453125 3.609375 
Q 25.390625 3.609375 27.828125 7.8125 
Q 30.328125 12 30.328125 20.453125 
Q 30.328125 28.84375 27.828125 33.046875 
z
M 20.453125 41.59375 
Q 28.328125 41.59375 32.46875 36.171875 
Q 36.625 30.75 36.625 20.453125 
Q 36.625 10.09375 32.46875 4.671875 
Q 28.328125 -0.734375 20.453125 -0.734375 
Q 12.546875 -0.734375 8.390625 4.671875 
Q 4.25 10.09375 4.25 20.453125 
Q 4.25 30.75 8.390625 36.171875 
Q 12.546875 41.59375 20.453125 41.59375 
z
" id="DejaVuSans-8320"/>
      </defs>
      <g transform="translate(201.768737 322.182437)scale(0.1 -0.1)">
       <use xlink:href="#DejaVuSans-67"/>
       <use x="69.824219" xlink:href="#DejaVuSans-8320"/>
      </g>
     </g>
    </g>
    <g id="xtick_4">
     <g id="line2d_4">
      <g>
       <use style="stroke:#000000;stroke-width:0.8;" x="219.161583" xlink:href="#m799ff6da02" y="307.584"/>
      </g>
     </g>
     <g id="text_4">
      <!-- Σ₀ -->
      <defs>
       <path d="M 21.140625 8.296875 
L 56.78125 8.296875 
L 56.78125 0 
L 9.8125 0 
L 9.8125 8.296875 
L 33.203125 38.765625 
L 9.8125 64.59375 
L 9.8125 72.90625 
L 55.90625 72.90625 
L 55.90625 64.59375 
L 21.140625 64.59375 
L 44.53125 38.96875 
z
" id="DejaVuSans-931"/>
      </defs>
      <g transform="translate(213.99752 322.182437)scale(0.1 -0.1)">
       <use xlink:href="#DejaVuSans-931"/>
       <use x="63.183594" xlink:href="#DejaVuSans-8320"/>
      </g>
     </g>
    </g>
    <g id="xtick_5">
     <g id="line2d_5">
      <g>
       <use style="stroke:#000000;stroke-width:0.8;" x="288.142228" xlink:href="#m799ff6da02" y="307.584"/>
      </g>
     </g>
     <g id="text_5">
      <!-- Γ -->
      <g transform="translate(285.35629 322.182437)scale(0.1 -0.1)">
       <use xlink:href="#DejaVuSans-915"/>
      </g>
     </g>
    </g>
    <g id="xtick_6">
     <g id="line2d_6">
      <g>
       <use style="stroke:#000000;stroke-width:0.8;" x="347.625986" xlink:href="#m799ff6da02" y="307.584"/>
      </g>
     </g>
     <g id="text_6">
      <!-- Z -->
      <defs>
       <path d="M 5.609375 72.90625 
L 62.890625 72.90625 
L 62.890625 65.375 
L 16.796875 8.296875 
L 64.015625 8.296875 
L 64.015625 0 
L 4.5 0 
L 4.5 7.515625 
L 50.59375 64.59375 
L 5.609375 64.59375 
z
" id="DejaVuSans-90"/>
      </defs>
      <g transform="translate(344.200986 322.182437)scale(0.1 -0.1)">
       <use xlink:href="#DejaVuSans-90"/>
      </g>
     </g>
    </g>
    <g id="xtick_7">
     <g id="line2d_7">
      <g>
       <use style="stroke:#000000;stroke-width:0.8;" x="416.606632" xlink:href="#m799ff6da02" y="307.584"/>
      </g>
     </g>
     <g id="text_7">
      <!-- A₀ -->
      <defs>
       <path d="M 34.1875 63.1875 
L 20.796875 26.90625 
L 47.609375 26.90625 
z
M 28.609375 72.90625 
L 39.796875 72.90625 
L 67.578125 0 
L 57.328125 0 
L 50.6875 18.703125 
L 17.828125 18.703125 
L 11.1875 0 
L 0.78125 0 
z
" id="DejaVuSans-65"/>
      </defs>
      <g transform="translate(411.181632 322.182437)scale(0.1 -0.1)">
       <use xlink:href="#DejaVuSans-65"/>
       <use x="68.408203" xlink:href="#DejaVuSans-8320"/>
      </g>
     </g>
    </g>
    <g id="xtick_8">
     <g id="line2d_8">
      <g>
       <use style="stroke:#000000;stroke-width:0.8;" x="428.503383" xlink:href="#m799ff6da02" y="307.584"/>
      </g>
     </g>
     <g id="text_8">
      <!-- E₀ -->
      <defs>
       <path d="M 9.8125 72.90625 
L 55.90625 72.90625 
L 55.90625 64.59375 
L 19.671875 64.59375 
L 19.671875 43.015625 
L 54.390625 43.015625 
L 54.390625 34.71875 
L 19.671875 34.71875 
L 19.671875 8.296875 
L 56.78125 8.296875 
L 56.78125 0 
L 9.8125 0 
z
" id="DejaVuSans-69"/>
      </defs>
      <g transform="translate(423.339321 322.182437)scale(0.1 -0.1)">
       <use xlink:href="#DejaVuSans-69"/>
       <use x="63.183594" xlink:href="#DejaVuSans-8320"/>
      </g>
     </g>
    </g>
    <g id="xtick_9">
     <g id="line2d_9">
      <g>
       <use style="stroke:#000000;stroke-width:0.8;" x="443.645476" xlink:href="#m799ff6da02" y="307.584"/>
      </g>
     </g>
     <g id="text_9">
      <!-- T -->
      <defs>
       <path d="M -0.296875 72.90625 
L 61.375 72.90625 
L 61.375 64.59375 
L 35.5 64.59375 
L 35.5 0 
L 25.59375 0 
L 25.59375 64.59375 
L -0.296875 64.59375 
z
" id="DejaVuSans-84"/>
      </defs>
      <g transform="translate(440.59157 322.182437)scale(0.1 -0.1)">
       <use xlink:href="#DejaVuSans-84"/>
      </g>
     </g>
    </g>
    <g id="xtick_10">
     <g id="line2d_10">
      <g>
       <use style="stroke:#000000;stroke-width:0.8;" x="503.129235" xlink:href="#m799ff6da02" y="307.584"/>
      </g>
     </g>
     <g id="text_10">
      <!-- Y -->
      <g transform="translate(500.075328 322.182437)scale(0.1 -0.1)">
       <use xlink:href="#DejaVuSans-89"/>
      </g>
     </g>
    </g>
    <g id="xtick_11">
     <g id="line2d_11">
      <g>
       <use style="stroke:#000000;stroke-width:0.8;" x="515.025986" xlink:href="#m799ff6da02" y="307.584"/>
      </g>
     </g>
     <g id="text_11">
      <!-- Γ -->
      <g transform="translate(512.240049 322.182437)scale(0.1 -0.1)">
       <use xlink:href="#DejaVuSans-915"/>
      </g>
     </g>
    </g>
    <g id="xtick_12">
     <g id="line2d_12">
      <g>
       <use style="stroke:#000000;stroke-width:0.8;" x="574.509745" xlink:href="#m799ff6da02" y="307.584"/>
      </g>
     </g>
     <g id="text_12">
      <!-- S -->
      <defs>
       <path d="M 53.515625 70.515625 
L 53.515625 60.890625 
Q 47.90625 63.578125 42.921875 64.890625 
Q 37.9375 66.21875 33.296875 66.21875 
Q 25.25 66.21875 20.875 63.09375 
Q 16.5 59.96875 16.5 54.203125 
Q 16.5 49.359375 19.40625 46.890625 
Q 22.3125 44.4375 30.421875 42.921875 
L 36.375 41.703125 
Q 47.40625 39.59375 52.65625 34.296875 
Q 57.90625 29 57.90625 20.125 
Q 57.90625 9.515625 50.796875 4.046875 
Q 43.703125 -1.421875 29.984375 -1.421875 
Q 24.8125 -1.421875 18.96875 -0.25 
Q 13.140625 0.921875 6.890625 3.21875 
L 6.890625 13.375 
Q 12.890625 10.015625 18.65625 8.296875 
Q 24.421875 6.59375 29.984375 6.59375 
Q 38.421875 6.59375 43.015625 9.90625 
Q 47.609375 13.234375 47.609375 19.390625 
Q 47.609375 24.75 44.3125 27.78125 
Q 41.015625 30.8125 33.5 32.328125 
L 27.484375 33.5 
Q 16.453125 35.6875 11.515625 40.375 
Q 6.59375 45.0625 6.59375 53.421875 
Q 6.59375 63.09375 13.40625 68.65625 
Q 20.21875 74.21875 32.171875 74.21875 
Q 37.3125 74.21875 42.625 73.28125 
Q 47.953125 72.359375 53.515625 70.515625 
z
" id="DejaVuSans-83"/>
      </defs>
      <g transform="translate(571.335526 322.182437)scale(0.1 -0.1)">
       <use xlink:href="#DejaVuSans-83"/>
      </g>
     </g>
    </g>
    <g id="xtick_13">
     <g id="line2d_13">
      <g>
       <use style="stroke:#000000;stroke-width:0.8;" x="633.993503" xlink:href="#m799ff6da02" y="307.584"/>
      </g>
     </g>
     <g id="text_13">
      <!-- R -->
      <defs>
       <path d="M 44.390625 34.1875 
Q 47.5625 33.109375 50.5625 29.59375 
Q 53.5625 26.078125 56.59375 19.921875 
L 66.609375 0 
L 56 0 
L 46.6875 18.703125 
Q 43.0625 26.03125 39.671875 28.421875 
Q 36.28125 30.8125 30.421875 30.8125 
L 19.671875 30.8125 
L 19.671875 0 
L 9.8125 0 
L 9.8125 72.90625 
L 32.078125 72.90625 
Q 44.578125 72.90625 50.734375 67.671875 
Q 56.890625 62.453125 56.890625 51.90625 
Q 56.890625 45.015625 53.6875 40.46875 
Q 50.484375 35.9375 44.390625 34.1875 
z
M 19.671875 64.796875 
L 19.671875 38.921875 
L 32.078125 38.921875 
Q 39.203125 38.921875 42.84375 42.21875 
Q 46.484375 45.515625 46.484375 51.90625 
Q 46.484375 58.296875 42.84375 61.546875 
Q 39.203125 64.796875 32.078125 64.796875 
z
" id="DejaVuSans-82"/>
      </defs>
      <g transform="translate(630.519285 322.182437)scale(0.1 -0.1)">
       <use xlink:href="#DejaVuSans-82"/>
      </g>
     </g>
    </g>
    <g id="xtick_14">
     <g id="line2d_14">
      <g>
       <use style="stroke:#000000;stroke-width:0.8;" x="693.477262" xlink:href="#m799ff6da02" y="307.584"/>
      </g>
     </g>
     <g id="text_14">
      <!-- Z -->
      <g transform="translate(690.052262 322.182437)scale(0.1 -0.1)">
       <use xlink:href="#DejaVuSans-90"/>
      </g>
     </g>
    </g>
    <g id="xtick_15">
     <g id="line2d_15">
      <g>
       <use style="stroke:#000000;stroke-width:0.8;" x="777.6" xlink:href="#m799ff6da02" y="307.584"/>
      </g>
     </g>
     <g id="text_15">
      <!-- T -->
      <g transform="translate(774.546094 322.182437)scale(0.1 -0.1)">
       <use xlink:href="#DejaVuSans-84"/>
      </g>
     </g>
    </g>
   </g>
   <g id="matplotlib.axis_2">
    <g id="ytick_1">
     <g id="line2d_16">
      <defs>
       <path d="M 0 0 
L -3.5 0 
" id="m244637783a" style="stroke:#000000;stroke-width:0.8;"/>
      </defs>
      <g>
       <use style="stroke:#000000;stroke-width:0.8;" x="108" xlink:href="#m244637783a" y="307.584"/>
      </g>
     </g>
     <g id="text_16">
      <!-- 0.0 -->
      <defs>
       <path d="M 31.78125 66.40625 
Q 24.171875 66.40625 20.328125 58.90625 
Q 16.5 51.421875 16.5 36.375 
Q 16.5 21.390625 20.328125 13.890625 
Q 24.171875 6.390625 31.78125 6.390625 
Q 39.453125 6.390625 43.28125 13.890625 
Q 47.125 21.390625 47.125 36.375 
Q 47.125 51.421875 43.28125 58.90625 
Q 39.453125 66.40625 31.78125 66.40625 
z
M 31.78125 74.21875 
Q 44.046875 74.21875 50.515625 64.515625 
Q 56.984375 54.828125 56.984375 36.375 
Q 56.984375 17.96875 50.515625 8.265625 
Q 44.046875 -1.421875 31.78125 -1.421875 
Q 19.53125 -1.421875 13.0625 8.265625 
Q 6.59375 17.96875 6.59375 36.375 
Q 6.59375 54.828125 13.0625 64.515625 
Q 19.53125 74.21875 31.78125 74.21875 
z
" id="DejaVuSans-48"/>
       <path d="M 10.6875 12.40625 
L 21 12.40625 
L 21 0 
L 10.6875 0 
z
" id="DejaVuSans-46"/>
      </defs>
      <g transform="translate(85.096875 311.383219)scale(0.1 -0.1)">
       <use xlink:href="#DejaVuSans-48"/>
       <use x="63.623047" xlink:href="#DejaVuSans-46"/>
       <use x="95.410156" xlink:href="#DejaVuSans-48"/>
      </g>
     </g>
    </g>
    <g id="ytick_2">
     <g id="line2d_17">
      <g>
       <use style="stroke:#000000;stroke-width:0.8;" x="108" xlink:href="#m244637783a" y="259.2"/>
      </g>
     </g>
     <g id="text_17">
      <!-- 0.1 -->
      <defs>
       <path d="M 12.40625 8.296875 
L 28.515625 8.296875 
L 28.515625 63.921875 
L 10.984375 60.40625 
L 10.984375 69.390625 
L 28.421875 72.90625 
L 38.28125 72.90625 
L 38.28125 8.296875 
L 54.390625 8.296875 
L 54.390625 0 
L 12.40625 0 
z
" id="DejaVuSans-49"/>
      </defs>
      <g transform="translate(85.096875 262.999219)scale(0.1 -0.1)">
       <use xlink:href="#DejaVuSans-48"/>
       <use x="63.623047" xlink:href="#DejaVuSans-46"/>
       <use x="95.410156" xlink:href="#DejaVuSans-49"/>
      </g>
     </g>
    </g>
    <g id="ytick_3">
     <g id="line2d_18">
      <g>
       <use style="stroke:#000000;stroke-width:0.8;" x="108" xlink:href="#m244637783a" y="210.816"/>
      </g>
     </g>
     <g id="text_18">
      <!-- 0.2 -->
      <defs>
       <path d="M 19.1875 8.296875 
L 53.609375 8.296875 
L 53.609375 0 
L 7.328125 0 
L 7.328125 8.296875 
Q 12.9375 14.109375 22.625 23.890625 
Q 32.328125 33.6875 34.8125 36.53125 
Q 39.546875 41.84375 41.421875 45.53125 
Q 43.3125 49.21875 43.3125 52.78125 
Q 43.3125 58.59375 39.234375 62.25 
Q 35.15625 65.921875 28.609375 65.921875 
Q 23.96875 65.921875 18.8125 64.3125 
Q 13.671875 62.703125 7.8125 59.421875 
L 7.8125 69.390625 
Q 13.765625 71.78125 18.9375 73 
Q 24.125 74.21875 28.421875 74.21875 
Q 39.75 74.21875 46.484375 68.546875 
Q 53.21875 62.890625 53.21875 53.421875 
Q 53.21875 48.921875 51.53125 44.890625 
Q 49.859375 40.875 45.40625 35.40625 
Q 44.1875 33.984375 37.640625 27.21875 
Q 31.109375 20.453125 19.1875 8.296875 
z
" id="DejaVuSans-50"/>
      </defs>
      <g transform="translate(85.096875 214.615219)scale(0.1 -0.1)">
       <use xlink:href="#DejaVuSans-48"/>
       <use x="63.623047" xlink:href="#DejaVuSans-46"/>
       <use x="95.410156" xlink:href="#DejaVuSans-50"/>
      </g>
     </g>
    </g>
    <g id="ytick_4">
     <g id="line2d_19">
      <g>
       <use style="stroke:#000000;stroke-width:0.8;" x="108" xlink:href="#m244637783a" y="162.432"/>
      </g>
     </g>
     <g id="text_19">
      <!-- 0.3 -->
      <defs>
       <path d="M 40.578125 39.3125 
Q 47.65625 37.796875 51.625 33 
Q 55.609375 28.21875 55.609375 21.1875 
Q 55.609375 10.40625 48.1875 4.484375 
Q 40.765625 -1.421875 27.09375 -1.421875 
Q 22.515625 -1.421875 17.65625 -0.515625 
Q 12.796875 0.390625 7.625 2.203125 
L 7.625 11.71875 
Q 11.71875 9.328125 16.59375 8.109375 
Q 21.484375 6.890625 26.8125 6.890625 
Q 36.078125 6.890625 40.9375 10.546875 
Q 45.796875 14.203125 45.796875 21.1875 
Q 45.796875 27.640625 41.28125 31.265625 
Q 36.765625 34.90625 28.71875 34.90625 
L 20.21875 34.90625 
L 20.21875 43.015625 
L 29.109375 43.015625 
Q 36.375 43.015625 40.234375 45.921875 
Q 44.09375 48.828125 44.09375 54.296875 
Q 44.09375 59.90625 40.109375 62.90625 
Q 36.140625 65.921875 28.71875 65.921875 
Q 24.65625 65.921875 20.015625 65.03125 
Q 15.375 64.15625 9.8125 62.3125 
L 9.8125 71.09375 
Q 15.4375 72.65625 20.34375 73.4375 
Q 25.25 74.21875 29.59375 74.21875 
Q 40.828125 74.21875 47.359375 69.109375 
Q 53.90625 64.015625 53.90625 55.328125 
Q 53.90625 49.265625 50.4375 45.09375 
Q 46.96875 40.921875 40.578125 39.3125 
z
" id="DejaVuSans-51"/>
      </defs>
      <g transform="translate(85.096875 166.231219)scale(0.1 -0.1)">
       <use xlink:href="#DejaVuSans-48"/>
       <use x="63.623047" xlink:href="#DejaVuSans-46"/>
       <use x="95.410156" xlink:href="#DejaVuSans-51"/>
      </g>
     </g>
    </g>
    <g id="ytick_5">
     <g id="line2d_20">
      <g>
       <use style="stroke:#000000;stroke-width:0.8;" x="108" xlink:href="#m244637783a" y="114.048"/>
      </g>
     </g>
     <g id="text_20">
      <!-- 0.4 -->
      <defs>
       <path d="M 37.796875 64.3125 
L 12.890625 25.390625 
L 37.796875 25.390625 
z
M 35.203125 72.90625 
L 47.609375 72.90625 
L 47.609375 25.390625 
L 58.015625 25.390625 
L 58.015625 17.1875 
L 47.609375 17.1875 
L 47.609375 0 
L 37.796875 0 
L 37.796875 17.1875 
L 4.890625 17.1875 
L 4.890625 26.703125 
z
" id="DejaVuSans-52"/>
      </defs>
      <g transform="translate(85.096875 117.847219)scale(0.1 -0.1)">
       <use xlink:href="#DejaVuSans-48"/>
       <use x="63.623047" xlink:href="#DejaVuSans-46"/>
       <use x="95.410156" xlink:href="#DejaVuSans-52"/>
      </g>
     </g>
    </g>
    <g id="ytick_6">
     <g id="line2d_21">
      <g>
       <use style="stroke:#000000;stroke-width:0.8;" x="108" xlink:href="#m244637783a" y="65.664"/>
      </g>
     </g>
     <g id="text_21">
      <!-- 0.5 -->
      <defs>
       <path d="M 10.796875 72.90625 
L 49.515625 72.90625 
L 49.515625 64.59375 
L 19.828125 64.59375 
L 19.828125 46.734375 
Q 21.96875 47.46875 24.109375 47.828125 
Q 26.265625 48.1875 28.421875 48.1875 
Q 40.625 48.1875 47.75 41.5 
Q 54.890625 34.8125 54.890625 23.390625 
Q 54.890625 11.625 47.5625 5.09375 
Q 40.234375 -1.421875 26.90625 -1.421875 
Q 22.3125 -1.421875 17.546875 -0.640625 
Q 12.796875 0.140625 7.71875 1.703125 
L 7.71875 11.625 
Q 12.109375 9.234375 16.796875 8.0625 
Q 21.484375 6.890625 26.703125 6.890625 
Q 35.15625 6.890625 40.078125 11.328125 
Q 45.015625 15.765625 45.015625 23.390625 
Q 45.015625 31 40.078125 35.4375 
Q 35.15625 39.890625 26.703125 39.890625 
Q 22.75 39.890625 18.8125 39.015625 
Q 14.890625 38.140625 10.796875 36.28125 
z
" id="DejaVuSans-53"/>
      </defs>
      <g transform="translate(85.096875 69.463219)scale(0.1 -0.1)">
       <use xlink:href="#DejaVuSans-48"/>
       <use x="63.623047" xlink:href="#DejaVuSans-46"/>
       <use x="95.410156" xlink:href="#DejaVuSans-53"/>
      </g>
     </g>
    </g>
   </g>
   <g id="line2d_22">
    <path clip-path="url(#p0c80d90cf0)" d="M 108 307.584 
L 108 41.472 
" style="fill:none;stroke:#d3d3d3;stroke-linecap:square;stroke-width:1.5;"/>
   </g>
   <g id="line2d_23">
    <path clip-path="url(#p0c80d90cf0)" d="M 192.122738 307.584 
L 192.122738 41.472 
" style="fill:none;stroke:#d3d3d3;stroke-linecap:square;stroke-width:1.5;"/>
   </g>
   <g id="line2d_24">
    <path clip-path="url(#p0c80d90cf0)" d="M 207.264831 307.584 
L 207.264831 41.472 
" style="fill:none;stroke:#d3d3d3;stroke-linecap:square;stroke-width:1.5;"/>
   </g>
   <g id="line2d_25">
    <path clip-path="url(#p0c80d90cf0)" d="M 108 307.584 
L 123.522648 253.826473 
L 131.534337 226.889649 
L 138.043835 205.788902 
L 143.551871 188.723866 
L 148.058447 175.476326 
L 152.064291 164.391068 
L 155.569405 155.351485 
L 158.573789 148.195492 
L 161.077442 142.720842 
L 163.581095 137.753741 
L 165.584017 134.183969 
L 167.586939 131.00127 
L 169.589862 128.224028 
L 171.592784 125.86047 
L 173.595706 123.903821 
L 175.598629 122.332792 
L 177.601551 121.112064 
L 179.604473 120.197123 
L 181.607396 119.535229 
L 184.111049 118.987523 
L 187.115432 118.620772 
L 190.620546 118.448525 
L 193.636947 118.484329 
L 195.655893 118.713669 
L 197.674839 119.136061 
L 199.693784 119.766505 
L 201.71273 120.626289 
L 203.731676 121.738153 
L 205.750622 123.128225 
L 207.264831 124.36734 
L 207.264831 124.36734 
" style="fill:none;stroke:#191970;stroke-linecap:square;stroke-width:1.5;"/>
   </g>
   <g id="line2d_26">
    <path clip-path="url(#p0c80d90cf0)" d="M 108 307.584 
L 123.522648 247.147546 
L 131.534337 216.827228 
L 138.043835 193.018429 
L 143.551871 173.678861 
L 148.559177 156.935578 
L 152.565022 144.276388 
L 156.070136 133.893181 
L 159.07452 125.677578 
L 161.578172 119.492652 
L 163.581095 115.133253 
L 165.083287 112.301338 
L 166.585478 109.908749 
L 168.08767 107.985485 
L 169.589862 106.517998 
L 171.092054 105.450163 
L 172.594245 104.703598 
L 174.096437 104.200888 
L 176.099359 103.797366 
L 178.603012 103.56609 
L 182.108126 103.509481 
L 195.655893 103.74366 
L 199.693784 104.045576 
L 203.226939 104.518771 
L 206.760094 105.225661 
L 207.264831 105.348073 
L 207.264831 105.348073 
" style="fill:none;stroke:#191970;stroke-linecap:square;stroke-width:1.5;"/>
   </g>
   <g id="line2d_27">
    <path clip-path="url(#p0c80d90cf0)" d="M 108 145.675169 
L 109.502192 145.586627 
L 111.004384 145.320515 
L 112.506575 144.878769 
L 114.509498 144.019469 
L 116.51242 142.856801 
L 118.515342 141.399959 
L 120.518265 139.658619 
L 122.521187 137.644877 
L 125.02484 134.764577 
L 127.528493 131.50785 
L 130.032146 127.90421 
L 133.036529 123.165481 
L 136.040913 118.026132 
L 139.546027 111.595899 
L 143.551871 103.778012 
L 148.559177 93.477542 
L 149.059908 92.423255 
L 151.563561 92.386483 
L 156.070136 92.23746 
L 158.573789 91.971832 
L 160.576711 91.570729 
L 162.078903 91.098501 
L 163.581095 90.419674 
L 165.083287 89.472315 
L 166.585478 88.2003 
L 168.08767 86.574597 
L 169.589862 84.608755 
L 171.592784 81.562015 
L 174.597168 76.458954 
L 180.105204 66.978109 
L 182.608857 63.074972 
L 184.611779 60.296279 
L 186.614702 57.939011 
L 188.116893 56.529585 
L 189.619085 55.503844 
L 190.620546 55.065485 
L 191.622007 54.841951 
L 198.684312 54.359078 
L 202.217467 53.743634 
L 205.750622 52.87998 
L 207.264831 52.43775 
L 207.264831 52.43775 
" style="fill:none;stroke:#dc143c;stroke-linecap:square;stroke-width:1.5;"/>
   </g>
   <g id="line2d_28">
    <path clip-path="url(#p0c80d90cf0)" d="M 108 93.056602 
L 118.014612 92.939996 
L 147.557716 92.390838 
L 149.059908 92.394225 
L 152.565022 84.956152 
L 167.586939 52.900301 
L 168.588401 51.007519 
L 170.591323 50.982843 
L 172.093515 50.764631 
L 173.595706 50.364979 
L 175.097898 49.78292 
L 177.100821 48.736374 
L 179.103743 47.415007 
L 181.607396 45.45739 
L 189.118355 39.212467 
L 190.620546 38.447032 
L 191.622007 38.194952 
L 192.122738 38.162534 
L 192.627474 38.246723 
L 193.636947 38.827814 
L 195.151157 40.225628 
L 203.226939 48.447521 
L 205.750622 50.517389 
L 207.264831 51.576515 
L 207.264831 51.576515 
" style="fill:none;stroke:#dc143c;stroke-linecap:square;stroke-width:1.5;"/>
   </g>
   <g id="line2d_29">
    <path clip-path="url(#p0c80d90cf0)" d="M 108 64.745188 
L 111.004384 64.626647 
L 114.008767 64.27296 
L 117.013151 63.691868 
L 120.017534 62.896919 
L 123.522648 61.723607 
L 127.528493 60.103711 
L 132.035068 58.010135 
L 140.547488 53.709281 
L 145.054063 51.564419 
L 148.058447 50.338368 
L 150.5621 49.523098 
L 153.065753 48.969101 
L 155.068675 48.759114 
L 157.071597 48.780403 
L 159.07452 49.02571 
L 161.578172 49.572449 
L 166.585478 50.772372 
L 168.08767 50.970747 
L 168.588401 50.891881 
L 171.592784 45.165635 
L 173.595706 41.741015 
L 175.097898 39.50761 
L 176.60009 37.666598 
L 178.102282 36.276526 
L 179.604473 35.314652 
L 181.106665 34.687112 
L 182.608857 34.289395 
L 184.611779 33.979254 
L 187.616163 33.763945 
L 192.627474 33.596052 
L 193.636947 32.997542 
L 195.151157 31.541668 
L 196.160629 30.431739 
L 199.693784 30.188367 
L 200.198521 30.403192 
L 200.703257 30.80478 
L 201.71273 32.164854 
L 202.722203 34.040218 
L 204.236412 37.318717 
L 206.760094 43.404457 
L 207.264831 44.684698 
L 207.264831 44.684698 
" style="fill:none;stroke:#dc143c;stroke-linecap:square;stroke-width:1.5;"/>
   </g>
   <g id="line2d_30">
    <path clip-path="url(#p0c80d90cf0)" d="M 108 61.488461 
L 110.503653 61.388306 
L 113.007306 61.088325 
L 115.510959 60.592389 
L 118.515342 59.746153 
L 121.519726 58.640095 
L 124.524109 57.2926 
L 128.029223 55.444332 
L 131.534337 53.33866 
L 135.540182 50.67754 
L 140.547488 47.082609 
L 156.070136 35.714304 
L 160.576711 32.803523 
L 164.582556 30.492703 
L 165.584017 30.077084 
L 168.08767 30.039345 
L 171.592784 29.712269 
L 179.604473 28.836518 
L 182.608857 28.787167 
L 184.611779 28.948285 
L 186.614702 29.314552 
L 191.622007 30.523668 
L 194.141684 30.513508 
L 196.160629 30.424965 
L 196.665366 30.008863 
L 198.684312 29.989509 
L 200.703257 30.105147 
L 206.760094 29.680335 
L 207.264831 29.664369 
L 207.264831 29.664369 
" style="fill:none;stroke:#dc143c;stroke-linecap:square;stroke-width:1.5;"/>
   </g>
   <g id="line2d_31">
    <path clip-path="url(#p0c80d90cf0)" d="M 108 12.528691 
L 111.004384 12.637555 
L 114.008767 12.956406 
L 117.513881 13.567012 
L 121.519726 14.522112 
L 126.026301 15.835254 
L 132.535799 17.993664 
L 149.560638 23.756198 
L 155.068675 25.491249 
L 157.071597 27.165335 
L 158.573789 28.15382 
L 160.075981 28.913933 
L 161.578172 29.460188 
L 163.080364 29.817746 
L 165.083287 30.053376 
L 165.584017 29.960963 
L 169.089131 28.25204 
L 170.090592 27.912384 
L 172.093515 27.754652 
L 173.595706 27.424189 
L 175.097898 26.82326 
L 176.099359 26.228137 
L 177.601551 25.149658 
L 181.106665 24.30826 
L 181.607396 24.208589 
L 184.111049 26.219912 
L 186.614702 28.072535 
L 188.617624 29.244396 
L 190.119816 29.840486 
L 191.622007 30.126436 
L 194.141684 30.113856 
L 196.160629 30.031603 
L 196.665366 29.847744 
L 199.189048 26.88374 
L 199.693784 26.814067 
L 200.703257 27.727073 
L 201.207994 27.992701 
L 202.217467 28.182851 
L 203.731676 28.058988 
L 205.750622 27.625467 
L 207.264831 27.209848 
L 207.264831 27.209848 
" style="fill:none;stroke:#dc143c;stroke-linecap:square;stroke-width:1.5;"/>
   </g>
   <g id="line2d_32">
    <path clip-path="url(#p0c80d90cf0)" d="M 108 6.817928 
L 115.010228 6.70858 
L 122.521187 6.365537 
L 132.035068 5.687677 
L 139.045296 5.14626 
L 139.546027 5.20916 
L 142.04968 8.526367 
L 151.563561 21.690202 
L 153.566483 23.986022 
L 154.567944 25.012247 
L 155.068675 25.360612 
L 160.075981 26.601661 
L 164.081825 27.381128 
L 167.086209 27.77836 
L 169.589862 27.915287 
L 170.591323 27.595469 
L 174.096437 26.244588 
L 177.601551 24.994829 
L 179.103743 23.359933 
L 179.604473 22.738199 
L 180.105204 22.911414 
L 181.607396 24.166979 
L 183.610318 23.857805 
L 187.115432 23.429123 
L 190.620546 23.22591 
L 193.132211 23.244296 
L 194.64642 23.458637 
L 196.160629 23.933284 
L 197.170102 24.47083 
L 198.179575 25.25078 
L 199.189048 26.267328 
L 199.693784 26.286682 
L 203.226939 22.160494 
L 203.731676 21.893898 
L 206.760094 22.684009 
L 207.264831 22.799647 
L 207.264831 22.799647 
" style="fill:none;stroke:#dc143c;stroke-linecap:square;stroke-width:1.5;"/>
   </g>
   <g id="line2d_33">
    <path clip-path="url(#p0c80d90cf0)" d="M 132.808777 -1 
L 134.03799 -0.220977 
L 135.540182 0.945078 
L 137.042374 2.355471 
L 139.546027 5.111908 
L 145.554794 4.809024 
L 148.058447 4.779026 
L 149.059908 5.179162 
L 164.081825 12.192422 
L 168.08767 14.328092 
L 171.592784 16.464246 
L 174.597168 18.547177 
L 178.102282 21.261519 
L 179.604473 22.494828 
L 180.105204 22.085983 
L 182.608857 18.507018 
L 183.109588 18.442668 
L 185.61324 20.215457 
L 187.616163 21.307968 
L 189.118355 21.878415 
L 190.620546 22.218555 
L 192.122738 22.330806 
L 195.151157 22.233554 
L 198.179575 21.933089 
L 201.207994 21.407155 
L 201.71273 21.295388 
L 202.722203 21.570209 
L 203.226939 21.738102 
L 203.731676 21.585692 
L 204.741149 20.469473 
L 207.264831 19.566628 
L 207.264831 19.566628 
" style="fill:none;stroke:#dc143c;stroke-linecap:square;stroke-width:1.5;"/>
   </g>
   <g id="line2d_34">
    <path clip-path="url(#p0c80d90cf0)" d="M 135.575703 -1 
L 148.559177 4.781929 
L 152.565022 4.927565 
L 157.071597 5.338829 
L 163.581095 6.216998 
L 169.089131 6.97566 
L 171.592784 8.900859 
L 176.60009 13.019789 
L 182.608857 18.051241 
L 183.109588 17.755131 
L 187.616163 11.046689 
L 188.116893 10.597686 
L 191.121277 10.758804 
L 192.122738 10.769449 
L 192.627474 10.964436 
L 193.636947 12.093719 
L 195.655893 15.123041 
L 197.674839 18.022211 
L 198.684312 19.171814 
L 199.693784 20.052403 
L 200.703257 20.700265 
L 201.71273 21.18604 
L 202.217467 21.176364 
L 204.741149 20.452539 
L 207.264831 17.759002 
L 207.264831 17.759002 
" style="fill:none;stroke:#dc143c;stroke-linecap:square;stroke-width:1.5;"/>
   </g>
   <g id="line2d_35">
    <path clip-path="url(#p0c80d90cf0)" d="M 160.817176 -1 
L 161.077442 1.15071 
L 167.086209 5.440919 
L 169.089131 6.949048 
L 171.092054 7.214193 
L 176.099359 7.804477 
L 179.103743 8.861668 
L 182.108126 9.66581 
L 185.11251 10.237709 
L 187.616163 10.551721 
L 188.116893 10.348508 
L 189.619085 8.387988 
L 190.119816 8.006239 
L 192.122738 8.005755 
L 192.627474 7.845604 
L 193.636947 6.998884 
L 194.141684 6.530527 
L 194.64642 6.315702 
L 197.170102 6.009915 
L 199.693784 5.507205 
L 203.226939 4.640164 
L 207.264831 5.06304 
L 207.264831 5.06304 
" style="fill:none;stroke:#dc143c;stroke-linecap:square;stroke-width:1.5;"/>
   </g>
   <g id="line2d_36">
    <path clip-path="url(#p0c80d90cf0)" d="M 160.894863 -1 
L 161.077442 0.637356 
L 167.086209 3.239931 
L 173.595706 6.721644 
L 175.598629 7.602232 
L 177.100821 7.740611 
L 182.608857 7.958339 
L 189.619085 8.006239 
L 190.119816 7.803026 
L 191.121277 6.835346 
L 191.622007 6.530043 
L 192.627474 6.413921 
L 194.141684 6.352474 
L 194.64642 6.093619 
L 195.655893 5.376084 
L 196.665366 4.886438 
L 197.674839 4.595167 
L 199.189048 4.418565 
L 201.207994 4.458724 
L 202.722203 4.588393 
L 203.731676 4.315507 
L 206.760094 3.137841 
L 207.264831 2.920596 
L 207.264831 2.920596 
" style="fill:none;stroke:#dc143c;stroke-linecap:square;stroke-width:1.5;"/>
   </g>
   <g id="line2d_37">
    <path clip-path="url(#p0c80d90cf0)" d="M 219.161583 307.584 
L 219.161583 41.472 
" style="fill:none;stroke:#d3d3d3;stroke-linecap:square;stroke-width:1.5;"/>
   </g>
   <g id="line2d_38">
    <path clip-path="url(#p0c80d90cf0)" d="M 288.142228 307.584 
L 288.142228 41.472 
" style="fill:none;stroke:#d3d3d3;stroke-linecap:square;stroke-width:1.5;"/>
   </g>
   <g id="line2d_39">
    <path clip-path="url(#p0c80d90cf0)" d="M 347.625986 307.584 
L 347.625986 41.472 
" style="fill:none;stroke:#d3d3d3;stroke-linecap:square;stroke-width:1.5;"/>
   </g>
   <g id="line2d_40">
    <path clip-path="url(#p0c80d90cf0)" d="M 416.606632 307.584 
L 416.606632 41.472 
" style="fill:none;stroke:#d3d3d3;stroke-linecap:square;stroke-width:1.5;"/>
   </g>
   <g id="line2d_41">
    <path clip-path="url(#p0c80d90cf0)" d="M 219.161583 124.367823 
L 221.151409 126.268831 
L 223.141235 128.492076 
L 225.131062 131.045299 
L 227.120888 133.928502 
L 229.110714 137.134426 
L 231.763816 141.889121 
L 234.416918 147.1533 
L 237.070019 152.881482 
L 240.386397 160.619535 
L 243.702774 168.918843 
L 247.682426 179.508649 
L 252.325354 192.590231 
L 257.631558 208.319869 
L 263.601037 226.798203 
L 270.233791 248.062003 
L 278.856372 276.480442 
L 288.142228 307.584 
L 320.891713 255.933596 
L 336.932277 231.064704 
L 346.95763 215.885192 
L 347.625986 214.892836 
L 348.952537 214.794616 
L 350.279088 214.500442 
L 351.605639 214.013215 
L 352.93219 213.335839 
L 354.258741 212.47412 
L 356.248567 210.849869 
L 358.238393 208.850642 
L 360.22822 206.505469 
L 362.218046 203.846285 
L 364.871148 199.870572 
L 367.524249 195.475369 
L 370.840627 189.509622 
L 374.820279 181.845596 
L 380.789758 169.780562 
L 389.412339 152.367644 
L 393.391991 144.786355 
L 396.708369 138.868024 
L 400.024746 133.417083 
L 402.677847 129.453949 
L 405.330949 125.886113 
L 407.984051 122.741153 
L 409.973877 120.668383 
L 411.963704 118.841403 
L 413.95353 117.254408 
L 415.943356 115.89772 
L 416.606632 115.494198 
L 416.606632 115.494198 
" style="fill:none;stroke:#191970;stroke-linecap:square;stroke-width:1.5;"/>
   </g>
   <g id="line2d_42">
    <path clip-path="url(#p0c80d90cf0)" d="M 219.161583 105.348557 
L 222.47796 106.307044 
L 225.131062 107.28682 
L 227.784163 108.48384 
L 230.437265 109.931973 
L 233.090367 111.682506 
L 235.080193 113.253051 
L 237.070019 115.14293 
L 238.39657 116.672348 
L 239.723121 118.531261 
L 241.049672 120.8595 
L 242.376223 123.775603 
L 243.702774 127.28683 
L 245.6926 133.418534 
L 248.345702 142.56311 
L 252.325354 157.33281 
L 257.631558 178.093417 
L 263.601037 202.383636 
L 270.897067 233.00587 
L 280.846198 275.815937 
L 288.142228 307.584 
L 312.871431 250.709576 
L 324.901854 223.599537 
L 330.917065 210.516503 
L 333.590493 205.179264 
L 334.927206 202.980211 
L 335.595563 202.175101 
L 336.26392 201.685939 
L 336.932277 201.570301 
L 337.600634 201.797222 
L 338.268991 202.27574 
L 339.605704 203.669683 
L 341.610775 206.243712 
L 344.952559 210.966474 
L 347.625986 214.892352 
L 348.952537 214.794132 
L 350.279088 214.499958 
L 351.605639 214.012731 
L 352.93219 213.335355 
L 354.258741 212.47412 
L 356.248567 210.849869 
L 358.238393 208.850158 
L 360.22822 206.504986 
L 362.218046 203.845801 
L 364.871148 199.870088 
L 367.524249 195.474885 
L 370.840627 189.509138 
L 374.820279 181.845112 
L 380.789758 169.780078 
L 389.412339 152.367644 
L 393.391991 144.786355 
L 396.708369 138.868024 
L 400.024746 133.417083 
L 402.677847 129.453949 
L 405.330949 125.885629 
L 407.984051 122.740669 
L 410.637153 120.032133 
L 412.626979 118.285955 
L 414.616805 116.776858 
L 416.606632 115.493714 
L 416.606632 115.493714 
" style="fill:none;stroke:#191970;stroke-linecap:square;stroke-width:1.5;"/>
   </g>
   <g id="line2d_43">
    <path clip-path="url(#p0c80d90cf0)" d="M 219.161583 52.437266 
L 219.824858 52.230182 
L 220.488133 52.379205 
L 222.47796 53.491553 
L 226.457612 64.810506 
L 231.10054 78.825416 
L 239.059846 103.352233 
L 241.049672 108.596575 
L 242.376223 111.503002 
L 243.702774 113.905267 
L 245.029325 115.908849 
L 247.019151 118.449976 
L 249.672253 121.404787 
L 253.651905 125.454528 
L 258.294833 129.875374 
L 262.274486 133.406922 
L 266.254138 136.631716 
L 269.570516 139.027208 
L 272.886893 141.110139 
L 275.539995 142.523436 
L 278.193096 143.691909 
L 280.846198 144.601044 
L 283.4993 145.237778 
L 286.152402 145.594852 
L 290.815655 145.976602 
L 292.820726 146.588175 
L 294.825796 147.508439 
L 296.830867 148.709814 
L 298.835937 150.160366 
L 301.509365 152.428608 
L 304.182792 155.013281 
L 307.524576 158.59902 
L 311.534717 163.299041 
L 316.213215 169.1806 
L 322.228427 177.163476 
L 332.922136 191.503043 
L 334.25885 192.925048 
L 334.927206 193.453402 
L 335.595563 193.764511 
L 336.26392 193.762575 
L 336.932277 193.392438 
L 337.600634 192.684096 
L 338.937347 190.609874 
L 340.942418 186.78657 
L 345.620916 177.088965 
L 347.625986 172.867461 
L 348.952537 172.754726 
L 350.279088 172.41749 
L 351.605639 171.857203 
L 352.93219 171.078221 
L 354.258741 170.084413 
L 355.585292 168.882555 
L 357.575118 166.703823 
L 359.564944 164.099796 
L 361.55477 161.099988 
L 363.544597 157.737784 
L 366.197699 152.74891 
L 368.8508 147.257326 
L 372.167177 139.805222 
L 376.14683 130.195676 
L 380.789758 118.355628 
L 398.698195 71.905536 
L 402.014572 64.129743 
L 404.667674 58.417528 
L 406.6575 54.568581 
L 408.647326 51.21557 
L 410.637153 48.418491 
L 412.626979 46.10622 
L 415.280081 43.481388 
L 416.606632 42.29985 
L 416.606632 42.29985 
" style="fill:none;stroke:#dc143c;stroke-linecap:square;stroke-width:1.5;"/>
   </g>
   <g id="line2d_44">
    <path clip-path="url(#p0c80d90cf0)" d="M 219.161583 51.576031 
L 219.824858 51.992617 
L 220.488133 52.015357 
L 221.814684 51.680056 
L 222.47796 53.352207 
L 224.467786 54.036357 
L 226.457612 54.426816 
L 228.447439 54.530358 
L 230.437265 54.360046 
L 232.427091 53.937654 
L 234.416918 53.289308 
L 237.070019 52.130995 
L 240.386397 50.352883 
L 244.366049 48.118026 
L 245.029325 48.796854 
L 258.958109 70.0563 
L 262.274486 74.592783 
L 265.590863 78.755259 
L 268.243965 81.772969 
L 270.897067 84.481505 
L 273.550168 86.85474 
L 276.20327 88.86945 
L 278.193096 90.133724 
L 280.182923 91.177851 
L 282.172749 91.996024 
L 284.162575 92.58389 
L 286.152402 92.938061 
L 288.142228 93.056602 
L 290.147298 92.895967 
L 292.152369 92.420352 
L 294.157439 91.647176 
L 296.16251 90.601597 
L 298.16758 89.314583 
L 300.841008 87.278584 
L 302.177721 86.143496 
L 302.846078 86.278003 
L 308.192933 95.458383 
L 314.208144 106.245112 
L 320.223356 117.4702 
L 326.906924 130.401792 
L 334.25885 145.114883 
L 342.947488 163.04309 
L 347.625986 172.866493 
L 348.952537 172.753759 
L 350.279088 172.416522 
L 351.605639 171.856236 
L 352.93219 171.077253 
L 354.258741 170.083446 
L 355.585292 168.881103 
L 357.575118 166.702856 
L 359.564944 164.098345 
L 361.55477 161.098537 
L 363.544597 157.736333 
L 366.197699 152.747459 
L 368.8508 147.255875 
L 372.167177 139.803771 
L 376.14683 130.193741 
L 380.789758 118.354176 
L 398.698195 71.903601 
L 402.014572 64.128292 
L 404.667674 58.416561 
L 406.6575 54.568097 
L 408.647326 51.215086 
L 410.637153 48.416556 
L 412.626979 46.103316 
L 415.280081 43.478001 
L 416.606632 42.296947 
L 416.606632 42.296947 
" style="fill:none;stroke:#dc143c;stroke-linecap:square;stroke-width:1.5;"/>
   </g>
   <g id="line2d_45">
    <path clip-path="url(#p0c80d90cf0)" d="M 219.161583 44.684214 
L 221.814684 51.562483 
L 225.794337 50.03113 
L 230.437265 47.960778 
L 236.406744 45.000645 
L 240.386397 42.995612 
L 241.049672 42.920617 
L 244.366049 47.786112 
L 245.029325 47.783693 
L 247.019151 46.951004 
L 248.345702 46.596349 
L 249.672253 46.449262 
L 250.998803 46.52716 
L 252.325354 46.818432 
L 254.315181 47.58048 
L 256.305007 48.607672 
L 259.621384 50.60448 
L 266.254138 54.67551 
L 270.233791 56.822308 
L 272.886893 58.079324 
L 275.539995 60.12258 
L 278.193096 61.827149 
L 280.182923 62.864018 
L 282.172749 63.681224 
L 284.162575 64.270541 
L 286.152402 64.626163 
L 288.142228 64.745188 
L 288.810585 65.016138 
L 289.478941 65.665452 
L 290.815655 67.386954 
L 293.489083 71.289608 
L 298.16758 78.592689 
L 302.177721 85.159365 
L 302.846078 85.550308 
L 306.187862 82.367608 
L 310.198003 78.172716 
L 314.876501 72.928858 
L 321.56007 65.049523 
L 346.95763 34.680338 
L 347.625986 33.936676 
L 350.279088 33.845714 
L 353.595465 33.479931 
L 356.911842 32.853842 
L 360.22822 32.00809 
L 369.514076 29.464059 
L 371.503902 29.295199 
L 372.830453 29.36971 
L 374.157004 29.617436 
L 375.483555 30.036442 
L 377.473381 30.940255 
L 380.126483 32.493865 
L 386.095962 36.457482 
L 390.075614 38.918292 
L 392.728716 40.324815 
L 395.381818 41.470548 
L 397.371644 42.122281 
L 399.36147 42.56693 
L 401.351297 42.776916 
L 403.341123 42.728049 
L 405.330949 42.412101 
L 410.637153 41.153149 
L 411.963704 41.13428 
L 413.95353 41.358298 
L 416.606632 41.8223 
L 416.606632 41.8223 
" style="fill:none;stroke:#dc143c;stroke-linecap:square;stroke-width:1.5;"/>
   </g>
   <g id="line2d_46">
    <path clip-path="url(#p0c80d90cf0)" d="M 219.161583 29.664852 
L 221.814684 29.68469 
L 224.467786 29.941125 
L 226.457612 30.354324 
L 228.447439 31.01525 
L 230.437265 31.980027 
L 232.427091 33.292685 
L 234.416918 34.974513 
L 236.406744 37.01535 
L 238.39657 39.376005 
L 241.049672 42.673375 
L 244.366049 41.189921 
L 246.355875 40.473354 
L 248.345702 39.979354 
L 249.672253 39.822589 
L 250.998803 39.842427 
L 252.325354 40.067412 
L 253.651905 40.515932 
L 254.978456 41.187502 
L 256.305007 42.065188 
L 258.294833 43.695245 
L 260.947935 46.258629 
L 270.897067 56.350564 
L 272.886893 58.06239 
L 276.20327 59.365855 
L 278.856372 60.19564 
L 281.509473 60.8256 
L 284.162575 61.24896 
L 286.815677 61.46185 
L 288.142228 61.488461 
L 288.810585 61.225252 
L 289.478941 60.598679 
L 291.484012 58.094323 
L 298.835937 48.511388 
L 303.514435 42.853363 
L 307.524576 38.342039 
L 311.534717 34.169887 
L 314.876501 30.97751 
L 318.218286 28.08076 
L 320.891713 26.016699 
L 323.56514 24.236652 
L 325.570211 23.141722 
L 327.575281 22.316291 
L 328.911995 21.951475 
L 330.248709 21.763261 
L 331.585422 21.772454 
L 332.922136 21.991634 
L 334.25885 22.4208 
L 335.595563 23.04834 
L 337.600634 24.312131 
L 339.605704 25.886062 
L 342.279132 28.329454 
L 345.620916 31.750687 
L 347.625986 33.933289 
L 350.279088 33.842327 
L 353.595465 33.476544 
L 356.911842 32.850455 
L 360.22822 32.004703 
L 369.514076 29.46164 
L 371.503902 29.293747 
L 372.830453 29.369226 
L 374.157004 29.616952 
L 375.483555 30.035958 
L 377.473381 30.938803 
L 380.126483 32.491446 
L 386.095962 36.454095 
L 390.075614 38.914906 
L 392.728716 40.320945 
L 395.381818 41.466678 
L 397.371644 42.11841 
L 399.36147 42.563059 
L 401.351297 42.773046 
L 403.341123 42.724662 
L 405.330949 42.409198 
L 410.637153 41.152666 
L 411.963704 41.13428 
L 413.95353 41.358298 
L 416.606632 41.821816 
L 416.606632 41.821816 
" style="fill:none;stroke:#dc143c;stroke-linecap:square;stroke-width:1.5;"/>
   </g>
   <g id="line2d_47">
    <path clip-path="url(#p0c80d90cf0)" d="M 219.161583 27.210332 
L 224.467786 25.676076 
L 225.794337 25.48641 
L 227.784163 25.466089 
L 234.416918 25.724943 
L 237.733295 25.551245 
L 241.049672 28.415094 
L 243.702774 30.405612 
L 245.6926 31.584246 
L 247.019151 32.147436 
L 248.345702 32.479834 
L 249.672253 32.546604 
L 250.998803 32.332746 
L 252.325354 31.852293 
L 253.651905 31.1425 
L 255.641732 29.746138 
L 258.294833 27.474993 
L 262.274486 23.637658 
L 266.917414 19.036823 
L 268.243965 18.280581 
L 273.550168 15.891379 
L 276.866545 14.614525 
L 280.182923 13.598461 
L 282.836024 13.011564 
L 285.489126 12.650619 
L 288.142228 12.528691 
L 296.16251 12.427569 
L 304.851149 12.089848 
L 313.539788 11.519885 
L 322.228427 10.724936 
L 330.917065 9.714678 
L 340.274061 8.400568 
L 348.289262 7.23403 
L 350.279088 7.505464 
L 352.268914 8.054139 
L 354.258741 8.817638 
L 356.911842 10.094008 
L 360.22822 12.001789 
L 365.534423 15.42786 
L 368.8508 17.457085 
L 370.840627 18.460086 
L 372.830453 19.209554 
L 374.820279 19.709361 
L 378.136656 20.423025 
L 380.126483 21.103788 
L 382.116309 22.031309 
L 384.769411 23.520084 
L 390.73889 27.240814 
L 396.708369 30.871066 
L 400.688021 33.022218 
L 403.341123 34.227464 
L 405.330949 34.913065 
L 406.6575 35.191757 
L 407.984051 35.236754 
L 409.310602 34.938225 
L 410.637153 34.206175 
L 411.963704 33.044475 
L 413.290254 31.554248 
L 415.943356 28.103501 
L 416.606632 27.225815 
L 416.606632 27.225815 
" style="fill:none;stroke:#dc143c;stroke-linecap:square;stroke-width:1.5;"/>
   </g>
   <g id="line2d_48">
    <path clip-path="url(#p0c80d90cf0)" d="M 219.161583 22.799647 
L 222.47796 23.41993 
L 224.467786 23.541857 
L 225.794337 23.397189 
L 227.120888 23.042051 
L 229.110714 22.234038 
L 232.427091 20.663977 
L 237.733295 25.486894 
L 240.386397 25.04418 
L 243.039498 24.367772 
L 245.6926 23.460572 
L 248.345702 22.332741 
L 250.998803 21.001697 
L 251.662079 20.966377 
L 252.98863 21.641818 
L 254.315181 22.087434 
L 255.641732 22.306614 
L 256.968282 22.319677 
L 258.294833 22.158559 
L 260.28466 21.664074 
L 262.937761 20.690104 
L 266.917414 18.904251 
L 268.243965 17.761421 
L 271.560342 14.741292 
L 274.213444 12.566431 
L 276.866545 10.672197 
L 278.856372 9.468403 
L 280.846198 8.472177 
L 282.836024 7.699968 
L 284.825851 7.164357 
L 286.815677 6.873569 
L 289.478941 6.816476 
L 302.177721 6.681001 
L 320.891713 6.448274 
L 324.901854 6.655357 
L 329.580352 7.162422 
L 332.253779 7.36757 
L 334.25885 7.322573 
L 336.26392 7.067105 
L 338.937347 6.452628 
L 340.274061 6.064589 
L 340.942418 6.031204 
L 347.625986 7.21516 
L 349.615813 7.381117 
L 351.605639 7.844152 
L 353.595465 8.54185 
L 356.248567 9.749998 
L 358.901669 11.20297 
L 362.881321 13.689907 
L 368.187525 17.076303 
L 370.177351 18.149944 
L 372.167177 18.989407 
L 374.157004 19.564209 
L 378.799932 20.61898 
L 380.789758 21.387318 
L 383.44286 22.748844 
L 387.422512 25.14869 
L 396.708369 30.870582 
L 400.688021 33.021734 
L 403.341123 34.22698 
L 405.330949 34.912581 
L 406.6575 35.191273 
L 407.984051 35.23627 
L 409.310602 34.938225 
L 410.637153 34.205691 
L 411.963704 33.043991 
L 413.290254 31.55328 
L 415.943356 28.102049 
L 416.606632 27.22388 
L 416.606632 27.22388 
" style="fill:none;stroke:#dc143c;stroke-linecap:square;stroke-width:1.5;"/>
   </g>
   <g id="line2d_49">
    <path clip-path="url(#p0c80d90cf0)" d="M 219.161583 19.566144 
L 221.814684 18.402993 
L 224.467786 17.028887 
L 226.457612 15.872509 
L 227.120888 16.097979 
L 229.110714 17.699005 
L 232.427091 20.513987 
L 236.406744 18.120914 
L 241.049672 15.034015 
L 243.039498 13.63862 
L 243.702774 13.622653 
L 247.682426 17.780291 
L 249.672253 19.558886 
L 250.998803 20.546404 
L 251.662079 20.639301 
L 254.978456 18.667653 
L 258.958109 16.000243 
L 263.601037 12.587236 
L 277.529821 2.054039 
L 280.846198 -0.063245 
L 282.533102 -1 
M 307.795919 -1 
L 323.56514 2.543685 
L 335.595563 5.016591 
L 340.274061 5.907341 
L 340.942418 5.857989 
L 347.625986 3.731996 
L 354.258741 3.729577 
L 356.248567 4.151002 
L 358.238393 4.832248 
L 360.891495 6.003141 
L 364.207872 7.718838 
L 374.157004 13.143652 
L 376.14683 13.868928 
L 377.473381 14.145684 
L 378.799932 14.217293 
L 380.126483 14.085204 
L 382.116309 13.579108 
L 384.769411 12.576591 
L 389.412339 10.76703 
L 391.402165 10.208195 
L 393.391991 9.87241 
L 395.381818 9.791124 
L 397.371644 9.959501 
L 399.36147 10.34367 
L 402.014572 11.09846 
L 405.994225 12.505467 
L 415.280081 15.877348 
L 416.606632 16.311352 
L 416.606632 16.311352 
" style="fill:none;stroke:#dc143c;stroke-linecap:square;stroke-width:1.5;"/>
   </g>
   <g id="line2d_50">
    <path clip-path="url(#p0c80d90cf0)" d="M 219.161583 17.759002 
L 221.151409 15.904443 
L 222.47796 14.986598 
L 223.141235 14.710326 
L 223.804511 14.601462 
L 224.467786 14.667264 
L 225.794337 15.21739 
L 226.457612 15.629622 
L 227.120888 15.465116 
L 230.437265 13.287836 
L 235.080193 9.944502 
L 237.070019 8.458629 
L 237.733295 8.200742 
L 238.39657 8.325573 
L 239.059846 8.682163 
L 243.039498 12.900764 
L 243.702774 13.165908 
L 250.998803 7.791898 
L 254.315181 5.305444 
L 256.305007 4.407921 
L 262.937761 1.411983 
L 268.210623 -1 
M 316.642506 -1 
L 328.243638 0.397371 
L 328.911995 0.785894 
L 330.917065 1.471012 
L 332.922136 1.901629 
L 335.595563 2.176934 
L 338.268991 2.219996 
L 340.942418 2.2079 
L 344.952559 3.023654 
L 347.625986 3.726674 
L 354.258741 3.725222 
L 356.248567 4.147131 
L 358.238393 4.828861 
L 360.891495 6.000238 
L 364.207872 7.716419 
L 374.157004 13.141233 
L 376.14683 13.866993 
L 377.473381 14.143749 
L 378.799932 14.215841 
L 380.126483 14.084237 
L 382.116309 13.578624 
L 384.769411 12.576591 
L 389.412339 10.76703 
L 391.402165 10.207711 
L 393.391991 9.871926 
L 395.381818 9.790157 
L 397.371644 9.958533 
L 399.36147 10.342218 
L 402.014572 11.096525 
L 405.994225 12.503532 
L 415.280081 15.874445 
L 416.606632 16.308449 
L 416.606632 16.308449 
" style="fill:none;stroke:#dc143c;stroke-linecap:square;stroke-width:1.5;"/>
   </g>
   <g id="line2d_51">
    <path clip-path="url(#p0c80d90cf0)" d="M 219.161583 8.227354 
L 221.151409 9.338734 
L 222.47796 9.866604 
L 223.141235 9.977403 
L 223.804511 9.939663 
L 224.467786 9.74516 
L 225.794337 8.989885 
L 227.784163 7.412083 
L 230.437265 5.095457 
L 231.10054 4.841441 
L 235.080193 4.196966 
L 236.406744 3.932306 
L 237.070019 7.97866 
L 237.733295 7.912858 
L 238.39657 8.02027 
L 239.059846 8.432018 
L 241.049672 8.574751 
L 243.039498 8.479918 
L 245.029325 8.192517 
L 247.682426 7.573686 
L 250.998803 6.518431 
L 254.315181 5.244964 
L 256.305007 3.821507 
L 262.992742 -1 
M 328.692873 -1 
L 328.911995 0.483011 
L 338.937347 1.875502 
L 340.942418 2.106294 
L 344.952559 1.701804 
L 348.289262 1.278927 
L 351.605639 1.479237 
L 354.258741 1.613745 
L 356.248567 1.517944 
L 358.901669 1.166193 
L 363.544597 0.29141 
L 369.764209 -1 
M 385.422811 -1 
L 387.422512 -0.115983 
L 396.045093 3.82441 
L 405.330949 7.828669 
L 409.973877 10.164649 
L 413.95353 12.428536 
L 416.606632 14.104074 
L 416.606632 14.104074 
" style="fill:none;stroke:#dc143c;stroke-linecap:square;stroke-width:1.5;"/>
   </g>
   <g id="line2d_52">
    <path clip-path="url(#p0c80d90cf0)" d="M 219.161583 5.062556 
L 223.141235 5.29238 
L 226.457612 5.254157 
L 229.77399 4.999657 
L 230.437265 4.924662 
L 231.10054 4.512914 
L 236.406744 0.006428 
L 237.070019 6.749706 
L 237.733295 7.375795 
L 238.39657 7.426598 
L 247.019151 0.999268 
L 249.944995 -1 
M 338.898559 -1 
L 344.284202 0.528008 
L 347.625986 1.267799 
L 350.279088 1.371825 
L 354.258741 1.609874 
L 356.248567 1.514074 
L 358.901669 1.161838 
L 363.544597 0.287055 
L 369.743411 -1 
M 385.424032 -1 
L 387.422512 -0.115983 
L 396.045093 3.82441 
L 404.667674 7.515625 
L 409.310602 9.812897 
L 413.290254 12.027433 
L 416.606632 14.101655 
L 416.606632 14.101655 
" style="fill:none;stroke:#dc143c;stroke-linecap:square;stroke-width:1.5;"/>
   </g>
   <g id="line2d_53">
    <path clip-path="url(#p0c80d90cf0)" d="M 428.503383 307.584 
L 428.503383 41.472 
" style="fill:none;stroke:#d3d3d3;stroke-linecap:square;stroke-width:1.5;"/>
   </g>
   <g id="line2d_54">
    <path clip-path="url(#p0c80d90cf0)" d="M 443.645476 307.584 
L 443.645476 41.472 
" style="fill:none;stroke:#d3d3d3;stroke-linecap:square;stroke-width:1.5;"/>
   </g>
   <g id="line2d_55">
    <path clip-path="url(#p0c80d90cf0)" d="M 503.129235 307.584 
L 503.129235 41.472 
" style="fill:none;stroke:#d3d3d3;stroke-linecap:square;stroke-width:1.5;"/>
   </g>
   <g id="line2d_56">
    <path clip-path="url(#p0c80d90cf0)" d="M 428.503383 115.493714 
L 430.774697 114.286049 
L 433.046011 113.328046 
L 435.317325 112.595028 
L 437.967191 111.99168 
L 440.617058 111.631219 
L 443.266924 111.493325 
L 444.021956 111.563482 
L 457.198738 114.009777 
L 466.234245 115.483069 
L 474.893273 116.662671 
L 482.422863 117.46633 
L 489.575973 118.01452 
L 496.729083 118.339177 
L 503.129235 118.433042 
L 503.129235 118.433042 
" style="fill:none;stroke:#191970;stroke-linecap:square;stroke-width:1.5;"/>
   </g>
   <g id="line2d_57">
    <path clip-path="url(#p0c80d90cf0)" d="M 428.503383 115.49323 
L 430.774697 114.285565 
L 433.046011 113.328046 
L 435.317325 112.594545 
L 437.967191 111.991196 
L 440.617058 111.630735 
L 443.266924 111.492841 
L 444.021956 111.417846 
L 465.857766 107.285852 
L 474.893273 105.842557 
L 482.422863 104.870523 
L 489.199494 104.219758 
L 495.599645 103.827364 
L 501.999796 103.666245 
L 503.129235 103.662374 
L 503.129235 103.662374 
" style="fill:none;stroke:#191970;stroke-linecap:square;stroke-width:1.5;"/>
   </g>
   <g id="line2d_58">
    <path clip-path="url(#p0c80d90cf0)" d="M 428.503383 42.300334 
L 428.881936 42.096154 
L 429.63904 42.158569 
L 436.452982 43.367685 
L 439.859953 43.716534 
L 443.266924 43.851525 
L 443.645476 43.852977 
L 454.563381 47.146476 
L 462.092971 49.1907 
L 469.246081 50.898171 
L 475.646232 52.197765 
L 481.669904 53.200282 
L 487.693576 53.972006 
L 493.340768 54.473265 
L 498.98796 54.752924 
L 503.129235 54.813888 
L 503.129235 54.813888 
" style="fill:none;stroke:#dc143c;stroke-linecap:square;stroke-width:1.5;"/>
   </g>
   <g id="line2d_59">
    <path clip-path="url(#p0c80d90cf0)" d="M 428.503383 42.297431 
L 428.881936 42.09567 
L 429.63904 42.158085 
L 436.831534 43.415585 
L 440.238505 43.741693 
L 443.645476 43.852009 
L 459.834094 38.680243 
L 469.246081 35.838167 
L 471.504958 35.234335 
L 477.905109 36.287171 
L 484.30526 37.113085 
L 490.328932 37.675791 
L 496.352604 38.026092 
L 502.376276 38.161083 
L 503.129235 38.162534 
L 503.129235 38.162534 
" style="fill:none;stroke:#dc143c;stroke-linecap:square;stroke-width:1.5;"/>
   </g>
   <g id="line2d_60">
    <path clip-path="url(#p0c80d90cf0)" d="M 428.503383 41.8223 
L 428.881936 41.759885 
L 430.017593 40.827041 
L 435.317325 35.87881 
L 442.888371 28.703462 
L 443.266924 28.457188 
L 443.645476 28.352678 
L 453.057463 31.037023 
L 460.210573 32.855293 
L 467.363684 34.436483 
L 471.504958 35.207724 
L 477.52863 33.671048 
L 482.046384 32.68982 
L 489.575973 33.26559 
L 496.729083 33.588311 
L 503.129235 33.681692 
L 503.129235 33.681692 
" style="fill:none;stroke:#dc143c;stroke-linecap:square;stroke-width:1.5;"/>
   </g>
   <g id="line2d_61">
    <path clip-path="url(#p0c80d90cf0)" d="M 428.503383 41.821332 
L 428.881936 41.756498 
L 430.017593 40.822687 
L 435.317325 35.873971 
L 442.888371 28.697656 
L 443.266924 28.450898 
L 446.280833 27.643853 
L 466.610725 30.857518 
L 475.646232 32.025992 
L 482.046384 32.687885 
L 487.317096 31.757944 
L 492.21133 31.12363 
L 497.105563 30.71914 
L 501.999796 30.548344 
L 503.129235 30.542054 
L 503.129235 30.542054 
" style="fill:none;stroke:#dc143c;stroke-linecap:square;stroke-width:1.5;"/>
   </g>
   <g id="line2d_62">
    <path clip-path="url(#p0c80d90cf0)" d="M 428.503383 27.225331 
L 430.774697 24.432123 
L 432.288906 22.930767 
L 433.424563 22.109207 
L 434.181668 21.753101 
L 434.938773 21.585208 
L 435.695877 21.631173 
L 436.452982 21.880351 
L 437.588639 22.528696 
L 439.481401 23.97441 
L 443.266924 27.112596 
L 444.398435 27.337098 
L 446.280833 27.555794 
L 451.928025 25.93493 
L 460.210573 24.836613 
L 461.340012 24.773714 
L 464.351848 25.259005 
L 482.422863 28.644434 
L 488.446535 29.386644 
L 494.093727 29.857421 
L 499.740919 30.105147 
L 503.129235 30.145789 
L 503.129235 30.145789 
" style="fill:none;stroke:#dc143c;stroke-linecap:square;stroke-width:1.5;"/>
   </g>
   <g id="line2d_63">
    <path clip-path="url(#p0c80d90cf0)" d="M 428.503383 27.224364 
L 430.774697 24.430671 
L 432.288906 22.9298 
L 433.424563 22.108239 
L 434.181668 21.752133 
L 434.938773 21.584724 
L 435.695877 21.630689 
L 436.452982 21.879383 
L 437.588639 22.526761 
L 439.481401 23.971507 
L 443.266924 27.111145 
L 443.645476 27.214687 
L 452.680984 25.687688 
L 455.69282 24.976927 
L 457.951697 24.670656 
L 459.834094 24.647432 
L 461.716491 24.663882 
L 468.869602 23.9807 
L 476.399191 23.502182 
L 485.058219 23.17559 
L 492.21133 23.153818 
L 503.129235 23.206072 
L 503.129235 23.206072 
" style="fill:none;stroke:#dc143c;stroke-linecap:square;stroke-width:1.5;"/>
   </g>
   <g id="line2d_64">
    <path clip-path="url(#p0c80d90cf0)" d="M 428.503383 16.310385 
L 432.667459 17.753679 
L 435.695877 18.987955 
L 437.210087 19.196974 
L 441.752715 19.358577 
L 444.021956 19.454377 
L 450.798586 20.686717 
L 457.198738 21.621012 
L 463.222409 22.278551 
L 469.246081 22.708685 
L 475.646232 22.926897 
L 483.175822 22.945766 
L 489.199494 22.757553 
L 501.246837 22.340966 
L 503.129235 22.330806 
L 503.129235 22.330806 
" style="fill:none;stroke:#dc143c;stroke-linecap:square;stroke-width:1.5;"/>
   </g>
   <g id="line2d_65">
    <path clip-path="url(#p0c80d90cf0)" d="M 428.503383 16.307965 
L 432.667459 17.753196 
L 435.695877 18.987471 
L 437.210087 19.19649 
L 441.752715 19.357125 
L 444.021956 19.301484 
L 446.657312 18.780872 
L 451.551545 20.283679 
L 454.563381 21.018148 
L 456.822258 21.362642 
L 458.704655 21.422154 
L 460.587053 21.238779 
L 462.84593 20.767519 
L 466.234245 19.78871 
L 472.634396 17.641912 
L 483.175822 14.113751 
L 488.070055 12.718356 
L 491.83485 11.858573 
L 495.223165 11.291512 
L 498.611481 10.935406 
L 502.376276 10.773804 
L 503.129235 10.769449 
L 503.129235 10.769449 
" style="fill:none;stroke:#dc143c;stroke-linecap:square;stroke-width:1.5;"/>
   </g>
   <g id="line2d_66">
    <path clip-path="url(#p0c80d90cf0)" d="M 428.503383 14.104558 
L 431.910354 16.228616 
L 433.424563 16.905024 
L 434.938773 17.30903 
L 436.831534 17.568369 
L 439.859953 17.716908 
L 444.021956 17.887703 
L 446.657312 18.750874 
L 453.810422 17.100979 
L 461.716491 15.044659 
L 470.37552 12.567398 
L 481.669904 9.090524 
L 488.446535 7.041462 
L 494.093727 6.811638 
L 494.846686 6.767608 
L 495.223165 7.582879 
L 499.36444 7.908503 
L 503.129235 8.005755 
L 503.129235 8.005755 
" style="fill:none;stroke:#dc143c;stroke-linecap:square;stroke-width:1.5;"/>
   </g>
   <g id="line2d_67">
    <path clip-path="url(#p0c80d90cf0)" d="M 428.503383 14.101655 
L 431.910354 16.227164 
L 433.424563 16.90454 
L 434.938773 17.307095 
L 436.831534 17.565949 
L 439.859953 17.713521 
L 443.645476 17.753679 
L 451.175066 15.012726 
L 463.222409 10.374152 
L 477.52863 4.939661 
L 481.669904 3.46153 
L 482.046384 7.019689 
L 488.070055 7.048719 
L 494.093727 5.15497 
L 494.846686 4.922243 
L 495.223165 6.744868 
L 502.376276 6.422147 
L 503.129235 6.418276 
L 503.129235 6.418276 
" style="fill:none;stroke:#dc143c;stroke-linecap:square;stroke-width:1.5;"/>
   </g>
   <g id="line2d_68">
    <path clip-path="url(#p0c80d90cf0)" d="M 515.025986 307.584 
L 515.025986 41.472 
" style="fill:none;stroke:#d3d3d3;stroke-linecap:square;stroke-width:1.5;"/>
   </g>
   <g id="line2d_69">
    <path clip-path="url(#p0c80d90cf0)" d="M 574.509745 307.584 
L 574.509745 41.472 
" style="fill:none;stroke:#d3d3d3;stroke-linecap:square;stroke-width:1.5;"/>
   </g>
   <g id="line2d_70">
    <path clip-path="url(#p0c80d90cf0)" d="M 633.993503 307.584 
L 633.993503 41.472 
" style="fill:none;stroke:#d3d3d3;stroke-linecap:square;stroke-width:1.5;"/>
   </g>
   <g id="line2d_71">
    <path clip-path="url(#p0c80d90cf0)" d="M 693.477262 307.584 
L 693.477262 41.472 
" style="fill:none;stroke:#d3d3d3;stroke-linecap:square;stroke-width:1.5;"/>
   </g>
   <g id="line2d_72">
    <path clip-path="url(#p0c80d90cf0)" d="M 777.6 307.584 
L 777.6 41.472 
" style="fill:none;stroke:#d3d3d3;stroke-linecap:square;stroke-width:1.5;"/>
   </g>
   <g id="line2d_73">
    <path clip-path="url(#p0c80d90cf0)" d="M 515.025986 307.584 
L 531.549253 247.670093 
L 540.141351 217.343002 
L 547.411588 192.500237 
L 553.359964 172.948262 
L 558.647409 156.353518 
L 562.612993 144.562337 
L 565.917646 135.339863 
L 568.561369 128.534653 
L 570.544161 123.924626 
L 572.526953 119.955203 
L 573.848814 117.829693 
L 574.509745 116.977167 
L 580.458121 116.84895 
L 585.745566 116.521874 
L 591.693942 115.921428 
L 597.642318 115.089224 
L 604.251624 113.926072 
L 612.843723 112.146509 
L 622.757682 110.088737 
L 627.384197 109.361042 
L 630.68885 109.035418 
L 633.993503 108.921231 
L 635.315365 110.743857 
L 637.298157 114.137994 
L 639.941879 119.339274 
L 643.246533 126.449303 
L 647.873047 137.022175 
L 666.379105 180.044744 
L 670.344689 188.345987 
L 673.649342 194.711869 
L 676.293065 199.350927 
L 678.936788 203.511468 
L 680.91958 206.275162 
L 682.902372 208.700168 
L 684.885163 210.758423 
L 686.867955 212.4238 
L 688.189817 213.304873 
L 689.511678 213.995796 
L 690.833539 214.4927 
L 692.155401 214.792197 
L 693.477262 214.892836 
L 694.802029 214.783972 
L 696.126797 214.457864 
L 697.451565 213.917898 
L 698.776332 213.167946 
L 700.1011 212.214298 
L 702.088251 210.418284 
L 704.075402 208.210522 
L 706.062553 205.625364 
L 708.049705 202.6991 
L 710.69924 198.332444 
L 713.348775 193.515333 
L 716.660694 186.992686 
L 720.634996 178.635318 
L 727.258834 164.060122 
L 733.882672 149.589919 
L 737.856974 141.394637 
L 741.168893 135.058752 
L 743.818428 130.418726 
L 746.467963 126.241252 
L 748.455114 123.450463 
L 750.442266 120.97804 
L 752.429417 118.836081 
L 754.416568 117.027003 
L 756.40372 115.541614 
L 758.390871 114.358141 
L 760.378022 113.446103 
L 762.365173 112.768727 
L 765.014708 112.161024 
L 767.664244 111.804434 
L 770.976162 111.587674 
L 776.275232 111.493809 
L 777.6 111.490906 
L 777.6 111.490906 
" style="fill:none;stroke:#191970;stroke-linecap:square;stroke-width:1.5;"/>
   </g>
   <g id="line2d_74">
    <path clip-path="url(#p0c80d90cf0)" d="M 515.025986 307.584 
L 530.888322 245.401367 
L 538.81949 215.174915 
L 545.428796 190.799539 
L 551.377172 169.735081 
L 556.003687 154.108984 
L 559.969271 141.433828 
L 563.273924 131.615747 
L 565.256716 126.235446 
L 567.239508 121.483169 
L 568.561369 118.855918 
L 569.88323 116.867336 
L 570.544161 116.176896 
L 571.205092 115.719183 
L 571.866022 115.50581 
L 572.526953 115.538711 
L 573.187884 115.807726 
L 573.848814 116.294953 
L 574.509745 116.976684 
L 579.79719 116.875561 
L 585.084635 116.573645 
L 591.033011 115.999811 
L 596.981387 115.192282 
L 603.590693 114.051871 
L 611.521861 112.431491 
L 623.418613 109.969713 
L 627.384197 109.361042 
L 630.68885 109.035418 
L 633.993503 108.921231 
L 634.654434 108.232243 
L 635.315365 107.763886 
L 635.976295 107.58922 
L 636.637226 107.766789 
L 637.298157 108.304335 
L 637.959087 109.148636 
L 639.280949 111.452682 
L 641.263741 115.688701 
L 644.568394 123.548198 
L 649.855839 136.839767 
L 661.752591 166.906068 
L 666.379105 177.925041 
L 670.344689 186.747379 
L 673.649342 193.503721 
L 676.293065 198.423406 
L 678.936788 202.833608 
L 680.91958 205.762291 
L 682.902372 208.331965 
L 684.885163 210.512148 
L 686.867955 212.276713 
L 688.189817 213.210524 
L 689.511678 213.942574 
L 690.833539 214.468992 
L 692.155401 214.786391 
L 693.477262 214.892352 
L 694.802029 214.783488 
L 696.126797 214.45738 
L 697.451565 213.917414 
L 698.776332 213.167462 
L 700.1011 212.213814 
L 702.088251 210.4178 
L 704.075402 208.210038 
L 706.062553 205.624881 
L 708.049705 202.698616 
L 710.69924 198.331476 
L 713.348775 193.514849 
L 716.660694 186.991718 
L 720.634996 178.633866 
L 727.258834 164.05867 
L 733.882672 149.588467 
L 737.856974 141.393185 
L 741.168893 135.056817 
L 743.818428 130.417275 
L 746.467963 126.239316 
L 748.455114 123.449011 
L 750.442266 120.976589 
L 752.429417 118.835113 
L 754.416568 117.026519 
L 756.40372 115.540646 
L 758.390871 114.357658 
L 760.378022 113.445619 
L 762.365173 112.768243 
L 765.014708 112.16054 
L 767.664244 111.804434 
L 770.976162 111.58719 
L 776.275232 111.493325 
L 777.6 111.490906 
L 777.6 111.490906 
" style="fill:none;stroke:#191970;stroke-linecap:square;stroke-width:1.5;"/>
   </g>
   <g id="line2d_75">
    <path clip-path="url(#p0c80d90cf0)" d="M 515.025986 145.675169 
L 517.008778 145.55808 
L 518.99157 145.206812 
L 520.974362 144.625236 
L 522.957154 143.816256 
L 524.939946 142.786161 
L 526.922738 141.543176 
L 529.566461 139.568141 
L 532.210183 137.253934 
L 534.853906 134.627651 
L 537.497628 131.72074 
L 540.802282 127.74551 
L 544.767866 122.572777 
L 550.055311 115.242601 
L 556.664617 106.07093 
L 559.30834 102.704855 
L 561.291132 100.440968 
L 563.273924 98.512865 
L 564.595785 97.467287 
L 565.917646 96.638469 
L 567.900438 95.749655 
L 569.88323 94.946481 
L 571.205092 94.119598 
L 572.526953 92.846615 
L 573.848814 91.104307 
L 574.509745 90.090662 
L 584.423705 89.975025 
L 593.015803 89.92906 
L 597.642318 90.111468 
L 601.607902 90.4608 
L 605.573485 91.01141 
L 610.2 91.885225 
L 616.809307 93.404966 
L 624.079544 95.040829 
L 628.045128 95.704174 
L 631.349781 96.034153 
L 633.993503 96.118825 
L 635.315365 97.933709 
L 635.976295 98.585925 
L 636.637226 98.987028 
L 637.298157 99.131697 
L 637.959087 99.078474 
L 641.263741 98.294653 
L 642.585602 98.440289 
L 643.907463 99.003479 
L 645.229324 99.980352 
L 646.551186 101.330749 
L 647.873047 103.000965 
L 649.855839 105.981903 
L 651.838631 109.389105 
L 654.482354 114.380882 
L 658.447937 122.425206 
L 669.683759 145.624366 
L 672.988412 151.871708 
L 675.632134 156.488026 
L 678.275857 160.679048 
L 680.258649 163.49548 
L 682.241441 165.994998 
L 684.224233 168.146634 
L 686.207025 169.922327 
L 688.189817 171.296916 
L 689.511678 171.980582 
L 690.833539 172.47168 
L 692.155401 172.768274 
L 693.477262 172.867461 
L 694.802029 172.778435 
L 696.126797 172.511355 
L 697.451565 172.068157 
L 698.776332 171.450778 
L 700.763483 170.205373 
L 702.750635 168.590316 
L 704.737786 166.623022 
L 706.724937 164.323814 
L 708.712089 161.716401 
L 711.361624 157.802135 
L 714.011159 153.443704 
L 717.323077 147.46441 
L 720.634996 141.006113 
L 724.609299 132.782285 
L 730.570753 119.851661 
L 743.156044 92.320197 
L 748.455114 81.365092 
L 752.429417 73.609137 
L 756.40372 66.355891 
L 759.715638 60.782538 
L 762.365173 56.699896 
L 765.014708 53.018842 
L 767.00186 50.568192 
L 768.989011 48.425748 
L 770.976162 46.636024 
L 772.30093 45.663506 
L 773.625697 44.885491 
L 774.950465 44.316495 
L 776.275232 43.969582 
L 777.6 43.852977 
L 777.6 43.852977 
" style="fill:none;stroke:#dc143c;stroke-linecap:square;stroke-width:1.5;"/>
   </g>
   <g id="line2d_76">
    <path clip-path="url(#p0c80d90cf0)" d="M 515.025986 93.056602 
L 517.669709 92.947738 
L 520.313432 92.624049 
L 522.957154 92.091825 
L 525.600877 91.360259 
L 528.90553 90.187914 
L 532.210183 88.760586 
L 536.175767 86.770552 
L 540.802282 84.176686 
L 551.377172 78.089011 
L 554.681825 76.522337 
L 556.664617 75.780127 
L 558.647409 75.258547 
L 559.969271 75.075172 
L 561.291132 75.06114 
L 562.612993 75.260966 
L 563.934854 75.727388 
L 565.256716 76.516531 
L 566.578577 77.675812 
L 567.900438 79.216842 
L 569.2223 81.102367 
L 571.205092 84.38764 
L 574.509745 90.090662 
L 584.423705 89.975025 
L 593.015803 89.928576 
L 597.642318 90.110984 
L 601.607902 90.4608 
L 605.573485 91.01141 
L 610.2 91.885225 
L 616.809307 93.404483 
L 624.079544 95.040346 
L 628.045128 95.70369 
L 631.349781 96.033669 
L 633.993503 96.118341 
L 637.298157 91.143498 
L 638.620018 89.672141 
L 639.280949 89.151045 
L 639.941879 88.80268 
L 640.60281 88.642529 
L 641.263741 88.678333 
L 641.924671 88.908157 
L 642.585602 89.320873 
L 643.907463 90.622886 
L 645.229324 92.426158 
L 646.551186 94.586988 
L 648.533978 98.274816 
L 651.1777 103.703501 
L 655.143284 112.415524 
L 667.700967 140.49034 
L 671.66655 148.609659 
L 674.971204 154.797489 
L 677.614926 159.262848 
L 680.258649 163.213402 
L 682.241441 165.79372 
L 684.224233 168.011643 
L 686.207025 169.83959 
L 688.189817 171.253371 
L 689.511678 171.955907 
L 690.833539 172.461036 
L 692.155401 172.765371 
L 693.477262 172.866493 
L 694.802029 172.777467 
L 696.126797 172.510387 
L 697.451565 172.06719 
L 698.776332 171.44981 
L 700.763483 170.204406 
L 702.750635 168.589348 
L 704.737786 166.622054 
L 706.724937 164.322847 
L 708.712089 161.715433 
L 711.361624 157.801167 
L 714.011159 153.442737 
L 717.323077 147.463442 
L 720.634996 141.005146 
L 724.609299 132.781317 
L 730.570753 119.850693 
L 743.156044 92.319229 
L 748.455114 81.364608 
L 752.429417 73.608653 
L 756.40372 66.355407 
L 759.715638 60.782054 
L 762.365173 56.699412 
L 765.014708 53.018842 
L 767.00186 50.567708 
L 768.989011 48.425265 
L 770.976162 46.63554 
L 772.30093 45.663022 
L 773.625697 44.884524 
L 774.950465 44.316012 
L 776.275232 43.968614 
L 777.6 43.852009 
L 777.6 43.852009 
" style="fill:none;stroke:#dc143c;stroke-linecap:square;stroke-width:1.5;"/>
   </g>
   <g id="line2d_77">
    <path clip-path="url(#p0c80d90cf0)" d="M 515.025986 64.745188 
L 517.008778 64.660516 
L 519.652501 64.284572 
L 522.296224 63.614938 
L 524.939946 62.664192 
L 527.583669 61.451205 
L 530.227391 60.00162 
L 533.532045 57.910464 
L 538.158559 54.64406 
L 542.124143 51.857626 
L 544.106935 50.656251 
L 545.428796 50.011292 
L 546.750658 49.555515 
L 548.072519 49.355689 
L 549.39438 49.478584 
L 550.716241 49.970166 
L 552.038103 50.840594 
L 553.359964 52.057452 
L 554.681825 53.561226 
L 556.664617 56.207831 
L 559.969271 61.146386 
L 563.273924 65.961078 
L 565.256716 68.372052 
L 566.578577 69.63052 
L 567.900438 70.539172 
L 569.2223 71.071396 
L 570.544161 71.239288 
L 571.866022 71.089782 
L 573.187884 70.686743 
L 574.509745 70.091136 
L 579.79719 70.21887 
L 586.406497 70.6461 
L 593.676734 71.101878 
L 597.642318 71.149294 
L 600.946971 71.000755 
L 604.251624 70.647068 
L 607.556277 70.075653 
L 610.860931 69.294252 
L 614.826515 68.110295 
L 619.453029 66.47298 
L 628.045128 63.310602 
L 630.68885 62.610486 
L 632.671642 62.311473 
L 633.993503 62.25196 
L 635.315365 63.074972 
L 638.620018 65.665935 
L 639.280949 65.975109 
L 639.941879 66.145421 
L 640.60281 66.158001 
L 641.263741 66.00414 
L 641.924671 65.683837 
L 642.585602 65.207255 
L 643.907463 63.852987 
L 644.568394 63.01546 
L 646.551186 61.449754 
L 648.533978 59.402143 
L 651.1777 56.177349 
L 660.430729 44.341171 
L 663.074452 41.499095 
L 665.057244 39.654213 
L 667.040036 38.088507 
L 669.022828 36.81504 
L 671.00562 35.826555 
L 672.988412 35.097892 
L 674.971204 34.588892 
L 677.614926 34.174241 
L 680.91958 33.94103 
L 685.546094 33.885389 
L 699.438716 34.062474 
L 704.075402 34.3581 
L 708.712089 34.884035 
L 712.686391 35.573023 
L 715.99831 36.351037 
L 719.310229 37.335168 
L 722.622148 38.533156 
L 726.59645 40.232402 
L 731.233137 42.481774 
L 738.519358 46.058803 
L 741.168893 47.15083 
L 743.818428 48.005775 
L 745.805579 48.438812 
L 747.792731 48.656056 
L 749.779882 48.627026 
L 751.767033 48.32898 
L 753.754184 47.74934 
L 755.741336 46.885202 
L 757.728487 45.746726 
L 759.715638 44.353751 
L 762.365173 42.149376 
L 765.014708 39.628086 
L 768.989011 35.48448 
L 772.963314 31.375711 
L 774.950465 29.628081 
L 776.275232 28.747492 
L 776.937616 28.462026 
L 777.6 28.352678 
L 777.6 28.352678 
" style="fill:none;stroke:#dc143c;stroke-linecap:square;stroke-width:1.5;"/>
   </g>
   <g id="line2d_78">
    <path clip-path="url(#p0c80d90cf0)" d="M 515.025986 61.488461 
L 517.669709 61.379597 
L 520.313432 61.053489 
L 522.957154 60.513039 
L 525.600877 59.761636 
L 528.244599 58.805084 
L 531.549253 57.333243 
L 534.853906 55.574968 
L 538.158559 53.560259 
L 542.124143 50.86527 
L 550.716241 44.789691 
L 552.038103 44.158764 
L 552.699033 43.987484 
L 553.359964 43.97442 
L 554.020895 44.173279 
L 554.681825 44.611638 
L 555.342756 45.272563 
L 556.664617 47.064707 
L 558.647409 50.334013 
L 564.595785 60.591421 
L 566.578577 63.421885 
L 567.900438 65.002591 
L 569.88323 66.94037 
L 571.866022 68.483336 
L 573.848814 69.736481 
L 574.509745 70.091136 
L 579.79719 70.21887 
L 586.406497 70.645617 
L 593.676734 71.101394 
L 597.642318 71.14881 
L 600.946971 71.000271 
L 604.251624 70.646584 
L 607.556277 70.075653 
L 610.860931 69.293768 
L 614.826515 68.109811 
L 619.453029 66.472497 
L 628.045128 63.310118 
L 630.68885 62.610486 
L 632.671642 62.311473 
L 633.993503 62.251476 
L 634.654434 62.046812 
L 635.315365 62.001815 
L 636.637226 62.308086 
L 639.941879 63.658483 
L 641.263741 63.88734 
L 642.585602 63.785249 
L 643.907463 63.328504 
L 644.568394 62.97143 
L 645.890255 61.113485 
L 648.533978 56.785536 
L 655.804215 44.462131 
L 658.447937 40.467548 
L 660.430729 37.80546 
L 662.413521 35.52609 
L 663.735383 34.267139 
L 665.057244 33.244785 
L 666.379105 32.469673 
L 667.700967 31.932611 
L 669.022828 31.606019 
L 671.00562 31.427482 
L 672.988412 31.506831 
L 675.632134 31.838262 
L 687.528886 33.64734 
L 691.49447 33.902807 
L 703.413018 34.299556 
L 708.049705 34.788718 
L 712.024007 35.437064 
L 715.335926 36.175887 
L 718.647845 37.117924 
L 721.959764 38.273818 
L 725.934066 39.929034 
L 730.570753 42.146957 
L 738.519358 46.057352 
L 741.168893 47.150346 
L 743.818428 48.005292 
L 745.805579 48.438812 
L 747.792731 48.655572 
L 749.779882 48.626542 
L 751.767033 48.328013 
L 753.754184 47.747889 
L 755.741336 46.883267 
L 757.728487 45.744791 
L 759.715638 44.350848 
L 762.365173 42.146473 
L 765.014708 39.624215 
L 768.989011 35.480125 
L 772.963314 31.370388 
L 774.950465 29.622275 
L 776.275232 28.741202 
L 776.937616 28.455252 
L 777.6 28.345421 
L 777.6 28.345421 
" style="fill:none;stroke:#dc143c;stroke-linecap:square;stroke-width:1.5;"/>
   </g>
   <g id="line2d_79">
    <path clip-path="url(#p0c80d90cf0)" d="M 515.025986 12.528691 
L 517.669709 12.632233 
L 520.313432 12.945761 
L 522.957154 13.480888 
L 525.600877 14.254548 
L 528.244599 15.288998 
L 530.888322 16.608914 
L 533.532045 18.234616 
L 536.175767 20.173847 
L 538.81949 22.406769 
L 542.785074 26.136207 
L 546.089727 29.169884 
L 548.73345 31.198141 
L 552.038103 35.968804 
L 553.359964 37.415969 
L 554.020895 37.87465 
L 554.681825 38.110764 
L 555.342756 38.142213 
L 556.664617 37.787558 
L 558.647409 36.801009 
L 562.612993 34.744689 
L 564.595785 33.989414 
L 566.578577 33.48864 
L 569.2223 33.124308 
L 573.848814 32.585795 
L 574.509745 32.470157 
L 582.440913 32.578537 
L 586.406497 32.87755 
L 589.050219 33.267041 
L 591.693942 33.847649 
L 594.337664 34.626148 
L 597.642318 35.856553 
L 600.946971 37.323556 
L 604.912555 39.314557 
L 610.860931 42.594509 
L 623.418613 49.646477 
L 626.723266 51.226698 
L 629.366989 52.240827 
L 631.349781 52.769664 
L 633.332573 53.028035 
L 634.654434 53.028518 
L 635.315365 52.795308 
L 635.976295 52.361787 
L 637.298157 51.036065 
L 638.620018 49.331981 
L 641.263741 45.76608 
L 647.873047 37.206467 
L 651.1777 33.305265 
L 653.821423 30.479639 
L 656.465146 27.975767 
L 659.108868 25.841549 
L 661.752591 24.072146 
L 669.022828 19.566628 
L 676.953996 14.120525 
L 680.258649 12.18081 
L 683.563302 10.465597 
L 686.867955 8.964242 
L 689.511678 7.964145 
L 691.49447 7.425631 
L 692.816331 7.239836 
L 694.802029 7.275156 
L 696.789181 7.566912 
L 699.438716 8.226386 
L 703.413018 9.519206 
L 710.69924 12.205486 
L 721.29738 16.059756 
L 729.245985 18.70007 
L 736.532207 20.88606 
L 742.49366 22.466281 
L 748.455114 23.819581 
L 753.754184 24.809034 
L 759.053255 25.583178 
L 764.352325 26.134272 
L 770.313779 26.5107 
L 774.288081 26.777779 
L 777.6 27.215654 
L 777.6 27.215654 
" style="fill:none;stroke:#dc143c;stroke-linecap:square;stroke-width:1.5;"/>
   </g>
   <g id="line2d_80">
    <path clip-path="url(#p0c80d90cf0)" d="M 515.025986 6.817928 
L 517.669709 6.920986 
L 520.313432 7.238385 
L 522.957154 7.789962 
L 525.600877 8.610555 
L 527.583669 9.426309 
L 529.566461 10.434632 
L 531.549253 11.651005 
L 533.532045 13.088978 
L 535.514837 14.754839 
L 537.497628 16.650524 
L 540.141351 19.526469 
L 542.785074 22.77739 
L 545.428796 26.362161 
L 548.73345 31.005089 
L 550.055311 31.556183 
L 551.377172 31.816489 
L 552.699033 31.801974 
L 554.020895 31.56586 
L 556.003687 30.956221 
L 559.30834 29.877742 
L 560.630201 29.614533 
L 561.952063 29.511959 
L 563.273924 29.57631 
L 565.256716 29.932416 
L 567.900438 30.685271 
L 572.526953 32.040023 
L 574.509745 32.469673 
L 582.440913 32.578537 
L 585.745566 32.806426 
L 589.050219 33.267041 
L 591.693942 33.847165 
L 594.337664 34.625664 
L 597.642318 35.856069 
L 600.946971 37.323072 
L 604.912555 39.314557 
L 610.2 42.219049 
L 624.079544 49.981778 
L 627.384197 51.505874 
L 630.02792 52.442588 
L 632.010711 52.888205 
L 633.993503 53.045453 
L 634.654434 52.856271 
L 635.315365 52.489521 
L 636.637226 51.371366 
L 638.620018 49.145702 
L 639.941879 47.435812 
L 651.1777 30.826068 
L 654.482354 26.542633 
L 657.126076 23.416059 
L 659.769799 20.603013 
L 661.752591 18.768776 
L 663.074452 17.760937 
L 664.396313 17.022113 
L 666.379105 16.33748 
L 669.683759 15.331092 
L 672.327481 14.296159 
L 676.293065 12.437245 
L 681.58051 9.954179 
L 684.224233 8.92118 
L 686.867955 8.105426 
L 689.511678 7.541268 
L 692.155401 7.251932 
L 694.139646 7.230159 
L 696.126797 7.445952 
L 698.776332 8.040108 
L 702.088251 9.062461 
L 707.387321 10.96492 
L 721.959764 16.288612 
L 729.908369 18.908122 
L 737.19459 21.070886 
L 743.156044 22.6274 
L 749.117498 23.953605 
L 754.416568 24.916447 
L 759.715638 25.663012 
L 765.014708 26.186043 
L 771.638546 26.578437 
L 774.950465 26.856161 
L 777.6 27.214687 
L 777.6 27.214687 
" style="fill:none;stroke:#dc143c;stroke-linecap:square;stroke-width:1.5;"/>
   </g>
   <g id="line2d_81">
    <path clip-path="url(#p0c80d90cf0)" d="M 522.804524 -1 
L 525.600877 0.172869 
L 528.90553 1.780186 
L 532.871114 3.969078 
L 537.497628 6.804864 
L 543.446004 10.753966 
L 552.699033 16.979535 
L 555.342756 18.535565 
L 557.325548 19.514857 
L 559.30834 20.241101 
L 560.630201 20.629624 
L 562.612993 21.732296 
L 563.934854 22.247585 
L 565.256716 22.566436 
L 566.578577 22.687396 
L 567.900438 22.629819 
L 569.88323 22.286292 
L 573.848814 21.208297 
L 574.509745 21.034115 
L 579.136259 21.147333 
L 587.067427 21.421187 
L 590.37208 21.265874 
L 593.015803 20.942669 
L 596.320456 20.281743 
L 599.62511 19.368253 
L 603.590693 18.011082 
L 608.217208 16.17878 
L 614.826515 13.303319 
L 628.045128 7.51127 
L 631.349781 6.32054 
L 632.671642 5.993464 
L 633.993503 5.865247 
L 639.280949 8.228805 
L 647.212116 11.728904 
L 651.838631 13.518144 
L 655.143284 14.569528 
L 657.787007 15.202875 
L 659.769799 15.50092 
L 661.752591 15.56382 
L 663.074452 15.382863 
L 664.396313 14.919345 
L 665.718175 14.185359 
L 672.988412 9.594685 
L 676.293065 7.908019 
L 679.597718 6.498593 
L 682.902372 5.354312 
L 685.546094 4.640648 
L 688.189817 4.12681 
L 690.833539 3.825861 
L 693.477262 3.731996 
L 696.126797 3.620713 
L 703.413018 3.118487 
L 708.049705 3.109778 
L 718.647845 3.177032 
L 722.622148 2.966561 
L 726.59645 2.546588 
L 732.557904 1.817441 
L 733.882672 1.883244 
L 735.869823 2.275638 
L 738.519358 3.089457 
L 743.156044 4.809992 
L 751.104649 8.062848 
L 759.053255 11.542141 
L 766.339476 15.012726 
L 771.638546 17.463859 
L 775.612849 19.036339 
L 776.937616 19.337772 
L 777.6 19.379382 
L 777.6 19.379382 
" style="fill:none;stroke:#dc143c;stroke-linecap:square;stroke-width:1.5;"/>
   </g>
   <g id="line2d_82">
    <path clip-path="url(#p0c80d90cf0)" d="M 534.07597 -1 
L 536.836698 0.683804 
L 540.141351 2.957852 
L 543.446004 5.525107 
L 546.750658 8.368151 
L 551.377172 12.672392 
L 556.664617 17.56982 
L 559.30834 19.712748 
L 560.630201 20.543017 
L 561.952063 20.687201 
L 563.934854 20.654784 
L 569.2223 20.274002 
L 571.205092 20.397865 
L 573.187884 20.724457 
L 574.509745 21.034115 
L 579.136259 21.146849 
L 587.067427 21.421187 
L 590.37208 21.265874 
L 593.015803 20.942185 
L 596.320456 20.28126 
L 599.62511 19.36777 
L 603.590693 18.011082 
L 608.217208 16.17878 
L 614.826515 13.303319 
L 627.384197 7.77835 
L 630.68885 6.529075 
L 632.671642 5.993464 
L 634.654434 5.597683 
L 635.976295 5.20287 
L 636.637226 5.195612 
L 637.959087 5.575427 
L 640.60281 6.728417 
L 646.551186 9.652262 
L 651.838631 12.19968 
L 654.482354 13.281546 
L 656.465146 13.923602 
L 658.447937 14.353252 
L 660.430729 14.505178 
L 661.752591 14.427279 
L 663.735383 14.032466 
L 665.718175 13.341059 
L 668.361897 12.084526 
L 671.66655 10.218355 
L 678.936788 6.000238 
L 681.58051 4.69387 
L 684.224233 3.645389 
L 686.207025 3.13397 
L 687.528886 3.0193 
L 688.850747 3.119939 
L 692.816331 3.710223 
L 694.802029 3.696676 
L 698.776332 3.385567 
L 702.750635 3.133486 
L 707.387321 3.09623 
L 719.310229 3.150904 
L 723.284531 2.907049 
L 727.258834 2.453207 
L 732.557904 1.815506 
L 733.882672 1.882276 
L 735.869823 2.275154 
L 738.519358 3.088973 
L 743.156044 4.809024 
L 751.104649 8.06188 
L 759.053255 11.541174 
L 766.339476 15.012242 
L 771.638546 17.463375 
L 775.612849 19.034404 
L 776.937616 19.33632 
L 777.6 19.377446 
L 777.6 19.377446 
" style="fill:none;stroke:#dc143c;stroke-linecap:square;stroke-width:1.5;"/>
   </g>
   <g id="line2d_83">
    <path clip-path="url(#p0c80d90cf0)" d="M 548.968349 -1 
L 559.30834 2.057426 
L 561.952063 2.611907 
L 563.934854 2.864955 
L 565.917646 2.921564 
L 567.900438 2.737705 
L 569.88323 2.290153 
L 571.866022 1.587133 
L 573.848814 0.665418 
L 574.509745 0.318989 
L 577.153467 0.227059 
L 580.458121 -0.135337 
L 583.762774 -0.740137 
L 584.917488 -1 
M 618.129367 -1 
L 623.418613 0.642194 
L 632.010711 3.383631 
L 633.332573 3.604746 
L 633.993503 3.635712 
L 635.315365 4.081329 
L 635.976295 4.223094 
L 636.637226 4.218739 
L 637.959087 3.836506 
L 643.246533 1.66358 
L 649.194908 -0.658368 
L 650.137662 -1 
M 672.781042 -1 
L 685.546094 1.092165 
L 687.528886 1.448755 
L 689.511678 1.44682 
L 694.139646 1.268767 
L 698.113948 1.117325 
L 702.088251 0.714286 
L 715.357896 -1 
M 723.557127 -1 
L 726.59645 -0.656916 
L 733.220288 0.225124 
L 734.545055 0.111421 
L 736.532207 -0.313874 
L 738.79487 -1 
M 750.243254 -1 
L 754.416568 1.718738 
L 759.053255 4.969175 
L 763.027557 7.995594 
L 767.664244 11.836316 
L 772.30093 15.678973 
L 773.625697 16.574561 
L 774.950465 17.241293 
L 776.275232 17.631752 
L 777.6 17.757066 
L 777.6 17.757066 
" style="fill:none;stroke:#dc143c;stroke-linecap:square;stroke-width:1.5;"/>
   </g>
   <g id="line2d_84">
    <path clip-path="url(#p0c80d90cf0)" d="M 572.216376 -1 
L 574.509745 0.318505 
L 577.153467 0.227059 
L 580.458121 -0.135821 
L 583.762774 -0.740137 
L 584.917488 -1 
M 618.131027 -1 
L 623.418613 0.642194 
L 632.010711 3.383631 
L 633.332573 3.604262 
L 633.993503 3.635228 
L 640.60281 1.314732 
L 645.229324 -0.022118 
L 649.452274 -1 
M 679.159342 -1 
L 684.224233 0.710899 
L 686.207025 0.946045 
L 690.172609 1.207803 
L 694.139646 1.264896 
L 698.113948 1.113454 
L 702.088251 0.710899 
L 715.317879 -1 
M 723.580369 -1 
L 726.59645 -0.658368 
L 733.220288 0.222705 
L 734.545055 0.108518 
L 736.532207 -0.317261 
L 738.784724 -1 
M 750.244025 -1 
L 754.416568 1.718254 
L 759.053255 4.968691 
L 763.027557 7.99511 
L 767.664244 11.835348 
L 772.30093 15.67849 
L 773.625697 16.57311 
L 774.950465 17.238874 
L 776.275232 17.628365 
L 777.6 17.753679 
L 777.6 17.753679 
" style="fill:none;stroke:#dc143c;stroke-linecap:square;stroke-width:1.5;"/>
   </g>
   <g id="patch_3">
    <path d="M 108 307.584 
L 108 41.472 
" style="fill:none;stroke:#000000;stroke-linecap:square;stroke-linejoin:miter;stroke-width:0.8;"/>
   </g>
   <g id="patch_4">
    <path d="M 777.6 307.584 
L 777.6 41.472 
" style="fill:none;stroke:#000000;stroke-linecap:square;stroke-linejoin:miter;stroke-width:0.8;"/>
   </g>
   <g id="patch_5">
    <path d="M 108 307.584 
L 777.6 307.584 
" style="fill:none;stroke:#000000;stroke-linecap:square;stroke-linejoin:miter;stroke-width:0.8;"/>
   </g>
   <g id="patch_6">
    <path d="M 108 41.472 
L 777.6 41.472 
" style="fill:none;stroke:#000000;stroke-linecap:square;stroke-linejoin:miter;stroke-width:0.8;"/>
   </g>
  </g>
 </g>
 <defs>
  <clipPath id="p0c80d90cf0">
   <rect height="266.112" width="669.6" x="108" y="41.472"/>
  </clipPath>
 </defs>
</svg>
