<?xml version="1.0" encoding="utf-8" standalone="no"?>
<!DOCTYPE svg PUBLIC "-//W3C//DTD SVG 1.1//EN"
  "http://www.w3.org/Graphics/SVG/1.1/DTD/svg11.dtd">
<!-- Created with matplotlib (https://matplotlib.org/) -->
<svg height="345.6pt" version="1.1" viewBox="0 0 864 345.6" width="864pt" xmlns="http://www.w3.org/2000/svg" xmlns:xlink="http://www.w3.org/1999/xlink">
 <defs>
  <style type="text/css">
*{stroke-linecap:butt;stroke-linejoin:round;}
  </style>
 </defs>
 <g id="figure_1">
  <g id="patch_1">
   <path d="M 0 345.6 
L 864 345.6 
L 864 0 
L 0 0 
z
" style="fill:#ffffff;"/>
  </g>
  <g id="axes_1">
   <g id="patch_2">
    <path d="M 108 307.584 
L 777.6 307.584 
L 777.6 41.472 
L 108 41.472 
z
" style="fill:#ffffff;"/>
   </g>
   <g id="matplotlib.axis_1">
    <g id="xtick_1">
     <g id="line2d_1">
      <defs>
       <path d="M 0 0 
L 0 3.5 
" id="m7c30959b2d" style="stroke:#000000;stroke-width:0.8;"/>
      </defs>
      <g>
       <use style="stroke:#000000;stroke-width:0.8;" x="108" xlink:href="#m7c30959b2d" y="307.584"/>
      </g>
     </g>
     <g id="text_1">
      <!-- Γ -->
      <defs>
       <path d="M 9.8125 0 
L 9.8125 72.90625 
L 55.171875 72.90625 
L 55.171875 64.59375 
L 19.671875 64.59375 
L 19.671875 0 
z
" id="DejaVuSans-915"/>
      </defs>
      <g transform="translate(105.214062 322.182437)scale(0.1 -0.1)">
       <use xlink:href="#DejaVuSans-915"/>
      </g>
     </g>
    </g>
    <g id="xtick_2">
     <g id="line2d_2">
      <g>
       <use style="stroke:#000000;stroke-width:0.8;" x="173.464611" xlink:href="#m7c30959b2d" y="307.584"/>
      </g>
     </g>
     <g id="text_2">
      <!-- X -->
      <defs>
       <path d="M 6.296875 72.90625 
L 16.890625 72.90625 
L 35.015625 45.796875 
L 53.21875 72.90625 
L 63.8125 72.90625 
L 40.375 37.890625 
L 65.375 0 
L 54.78125 0 
L 34.28125 31 
L 13.625 0 
L 2.984375 0 
L 29 38.921875 
z
" id="DejaVuSans-88"/>
      </defs>
      <g transform="translate(170.039611 322.182437)scale(0.1 -0.1)">
       <use xlink:href="#DejaVuSans-88"/>
      </g>
     </g>
    </g>
    <g id="xtick_3">
     <g id="line2d_3">
      <g>
       <use style="stroke:#000000;stroke-width:0.8;" x="238.929221" xlink:href="#m7c30959b2d" y="307.584"/>
      </g>
     </g>
     <g id="text_3">
      <!-- M -->
      <defs>
       <path d="M 9.8125 72.90625 
L 24.515625 72.90625 
L 43.109375 23.296875 
L 61.8125 72.90625 
L 76.515625 72.90625 
L 76.515625 0 
L 66.890625 0 
L 66.890625 64.015625 
L 48.09375 14.015625 
L 38.1875 14.015625 
L 19.390625 64.015625 
L 19.390625 0 
L 9.8125 0 
z
" id="DejaVuSans-77"/>
      </defs>
      <g transform="translate(234.615159 322.182437)scale(0.1 -0.1)">
       <use xlink:href="#DejaVuSans-77"/>
      </g>
     </g>
    </g>
    <g id="xtick_4">
     <g id="line2d_4">
      <g>
       <use style="stroke:#000000;stroke-width:0.8;" x="331.510162" xlink:href="#m7c30959b2d" y="307.584"/>
      </g>
     </g>
     <g id="text_4">
      <!-- Γ -->
      <g transform="translate(328.724224 322.182437)scale(0.1 -0.1)">
       <use xlink:href="#DejaVuSans-915"/>
      </g>
     </g>
    </g>
    <g id="xtick_5">
     <g id="line2d_5">
      <g>
       <use style="stroke:#000000;stroke-width:0.8;" x="396.974772" xlink:href="#m7c30959b2d" y="307.584"/>
      </g>
     </g>
     <g id="text_5">
      <!-- Z -->
      <defs>
       <path d="M 5.609375 72.90625 
L 62.890625 72.90625 
L 62.890625 65.375 
L 16.796875 8.296875 
L 64.015625 8.296875 
L 64.015625 0 
L 4.5 0 
L 4.5 7.515625 
L 50.59375 64.59375 
L 5.609375 64.59375 
z
" id="DejaVuSans-90"/>
      </defs>
      <g transform="translate(393.549772 322.182437)scale(0.1 -0.1)">
       <use xlink:href="#DejaVuSans-90"/>
      </g>
     </g>
    </g>
    <g id="xtick_6">
     <g id="line2d_6">
      <g>
       <use style="stroke:#000000;stroke-width:0.8;" x="462.439383" xlink:href="#m7c30959b2d" y="307.584"/>
      </g>
     </g>
     <g id="text_6">
      <!-- R -->
      <defs>
       <path d="M 44.390625 34.1875 
Q 47.5625 33.109375 50.5625 29.59375 
Q 53.5625 26.078125 56.59375 19.921875 
L 66.609375 0 
L 56 0 
L 46.6875 18.703125 
Q 43.0625 26.03125 39.671875 28.421875 
Q 36.28125 30.8125 30.421875 30.8125 
L 19.671875 30.8125 
L 19.671875 0 
L 9.8125 0 
L 9.8125 72.90625 
L 32.078125 72.90625 
Q 44.578125 72.90625 50.734375 67.671875 
Q 56.890625 62.453125 56.890625 51.90625 
Q 56.890625 45.015625 53.6875 40.46875 
Q 50.484375 35.9375 44.390625 34.1875 
z
M 19.671875 64.796875 
L 19.671875 38.921875 
L 32.078125 38.921875 
Q 39.203125 38.921875 42.84375 42.21875 
Q 46.484375 45.515625 46.484375 51.90625 
Q 46.484375 58.296875 42.84375 61.546875 
Q 39.203125 64.796875 32.078125 64.796875 
z
" id="DejaVuSans-82"/>
      </defs>
      <g transform="translate(458.965164 322.182437)scale(0.1 -0.1)">
       <use xlink:href="#DejaVuSans-82"/>
      </g>
     </g>
    </g>
    <g id="xtick_7">
     <g id="line2d_7">
      <g>
       <use style="stroke:#000000;stroke-width:0.8;" x="527.903994" xlink:href="#m7c30959b2d" y="307.584"/>
      </g>
     </g>
     <g id="text_7">
      <!-- A -->
      <defs>
       <path d="M 34.1875 63.1875 
L 20.796875 26.90625 
L 47.609375 26.90625 
z
M 28.609375 72.90625 
L 39.796875 72.90625 
L 67.578125 0 
L 57.328125 0 
L 50.6875 18.703125 
L 17.828125 18.703125 
L 11.1875 0 
L 0.78125 0 
z
" id="DejaVuSans-65"/>
      </defs>
      <g transform="translate(524.483681 322.182437)scale(0.1 -0.1)">
       <use xlink:href="#DejaVuSans-65"/>
      </g>
     </g>
    </g>
    <g id="xtick_8">
     <g id="line2d_8">
      <g>
       <use style="stroke:#000000;stroke-width:0.8;" x="620.484934" xlink:href="#m7c30959b2d" y="307.584"/>
      </g>
     </g>
     <g id="text_8">
      <!-- Z -->
      <g transform="translate(617.059934 322.182437)scale(0.1 -0.1)">
       <use xlink:href="#DejaVuSans-90"/>
      </g>
     </g>
    </g>
    <g id="xtick_9">
     <g id="line2d_9">
      <g>
       <use style="stroke:#000000;stroke-width:0.8;" x="633.577856" xlink:href="#m7c30959b2d" y="307.584"/>
      </g>
     </g>
     <g id="text_9">
      <!-- X -->
      <g transform="translate(630.152856 322.182437)scale(0.1 -0.1)">
       <use xlink:href="#DejaVuSans-88"/>
      </g>
     </g>
    </g>
    <g id="xtick_10">
     <g id="line2d_10">
      <g>
       <use style="stroke:#000000;stroke-width:0.8;" x="699.042467" xlink:href="#m7c30959b2d" y="307.584"/>
      </g>
     </g>
     <g id="text_10">
      <!-- R -->
      <g transform="translate(695.568248 322.182437)scale(0.1 -0.1)">
       <use xlink:href="#DejaVuSans-82"/>
      </g>
     </g>
    </g>
    <g id="xtick_11">
     <g id="line2d_11">
      <g>
       <use style="stroke:#000000;stroke-width:0.8;" x="712.135389" xlink:href="#m7c30959b2d" y="307.584"/>
      </g>
     </g>
     <g id="text_11">
      <!-- M -->
      <g transform="translate(707.821327 322.182437)scale(0.1 -0.1)">
       <use xlink:href="#DejaVuSans-77"/>
      </g>
     </g>
    </g>
    <g id="xtick_12">
     <g id="line2d_12">
      <g>
       <use style="stroke:#000000;stroke-width:0.8;" x="777.6" xlink:href="#m7c30959b2d" y="307.584"/>
      </g>
     </g>
     <g id="text_12">
      <!-- A -->
      <g transform="translate(774.179688 322.182437)scale(0.1 -0.1)">
       <use xlink:href="#DejaVuSans-65"/>
      </g>
     </g>
    </g>
   </g>
   <g id="matplotlib.axis_2">
    <g id="ytick_1">
     <g id="line2d_13">
      <defs>
       <path d="M 0 0 
L -3.5 0 
" id="m6b2e01cd11" style="stroke:#000000;stroke-width:0.8;"/>
      </defs>
      <g>
       <use style="stroke:#000000;stroke-width:0.8;" x="108" xlink:href="#m6b2e01cd11" y="307.584"/>
      </g>
     </g>
     <g id="text_13">
      <!-- 0.00 -->
      <defs>
       <path d="M 31.78125 66.40625 
Q 24.171875 66.40625 20.328125 58.90625 
Q 16.5 51.421875 16.5 36.375 
Q 16.5 21.390625 20.328125 13.890625 
Q 24.171875 6.390625 31.78125 6.390625 
Q 39.453125 6.390625 43.28125 13.890625 
Q 47.125 21.390625 47.125 36.375 
Q 47.125 51.421875 43.28125 58.90625 
Q 39.453125 66.40625 31.78125 66.40625 
z
M 31.78125 74.21875 
Q 44.046875 74.21875 50.515625 64.515625 
Q 56.984375 54.828125 56.984375 36.375 
Q 56.984375 17.96875 50.515625 8.265625 
Q 44.046875 -1.421875 31.78125 -1.421875 
Q 19.53125 -1.421875 13.0625 8.265625 
Q 6.59375 17.96875 6.59375 36.375 
Q 6.59375 54.828125 13.0625 64.515625 
Q 19.53125 74.21875 31.78125 74.21875 
z
" id="DejaVuSans-48"/>
       <path d="M 10.6875 12.40625 
L 21 12.40625 
L 21 0 
L 10.6875 0 
z
" id="DejaVuSans-46"/>
      </defs>
      <g transform="translate(78.734375 311.383219)scale(0.1 -0.1)">
       <use xlink:href="#DejaVuSans-48"/>
       <use x="63.623047" xlink:href="#DejaVuSans-46"/>
       <use x="95.410156" xlink:href="#DejaVuSans-48"/>
       <use x="159.033203" xlink:href="#DejaVuSans-48"/>
      </g>
     </g>
    </g>
    <g id="ytick_2">
     <g id="line2d_14">
      <g>
       <use style="stroke:#000000;stroke-width:0.8;" x="108" xlink:href="#m6b2e01cd11" y="272.1024"/>
      </g>
     </g>
     <g id="text_14">
      <!-- 0.05 -->
      <defs>
       <path d="M 10.796875 72.90625 
L 49.515625 72.90625 
L 49.515625 64.59375 
L 19.828125 64.59375 
L 19.828125 46.734375 
Q 21.96875 47.46875 24.109375 47.828125 
Q 26.265625 48.1875 28.421875 48.1875 
Q 40.625 48.1875 47.75 41.5 
Q 54.890625 34.8125 54.890625 23.390625 
Q 54.890625 11.625 47.5625 5.09375 
Q 40.234375 -1.421875 26.90625 -1.421875 
Q 22.3125 -1.421875 17.546875 -0.640625 
Q 12.796875 0.140625 7.71875 1.703125 
L 7.71875 11.625 
Q 12.109375 9.234375 16.796875 8.0625 
Q 21.484375 6.890625 26.703125 6.890625 
Q 35.15625 6.890625 40.078125 11.328125 
Q 45.015625 15.765625 45.015625 23.390625 
Q 45.015625 31 40.078125 35.4375 
Q 35.15625 39.890625 26.703125 39.890625 
Q 22.75 39.890625 18.8125 39.015625 
Q 14.890625 38.140625 10.796875 36.28125 
z
" id="DejaVuSans-53"/>
      </defs>
      <g transform="translate(78.734375 275.901619)scale(0.1 -0.1)">
       <use xlink:href="#DejaVuSans-48"/>
       <use x="63.623047" xlink:href="#DejaVuSans-46"/>
       <use x="95.410156" xlink:href="#DejaVuSans-48"/>
       <use x="159.033203" xlink:href="#DejaVuSans-53"/>
      </g>
     </g>
    </g>
    <g id="ytick_3">
     <g id="line2d_15">
      <g>
       <use style="stroke:#000000;stroke-width:0.8;" x="108" xlink:href="#m6b2e01cd11" y="236.6208"/>
      </g>
     </g>
     <g id="text_15">
      <!-- 0.10 -->
      <defs>
       <path d="M 12.40625 8.296875 
L 28.515625 8.296875 
L 28.515625 63.921875 
L 10.984375 60.40625 
L 10.984375 69.390625 
L 28.421875 72.90625 
L 38.28125 72.90625 
L 38.28125 8.296875 
L 54.390625 8.296875 
L 54.390625 0 
L 12.40625 0 
z
" id="DejaVuSans-49"/>
      </defs>
      <g transform="translate(78.734375 240.420019)scale(0.1 -0.1)">
       <use xlink:href="#DejaVuSans-48"/>
       <use x="63.623047" xlink:href="#DejaVuSans-46"/>
       <use x="95.410156" xlink:href="#DejaVuSans-49"/>
       <use x="159.033203" xlink:href="#DejaVuSans-48"/>
      </g>
     </g>
    </g>
    <g id="ytick_4">
     <g id="line2d_16">
      <g>
       <use style="stroke:#000000;stroke-width:0.8;" x="108" xlink:href="#m6b2e01cd11" y="201.1392"/>
      </g>
     </g>
     <g id="text_16">
      <!-- 0.15 -->
      <g transform="translate(78.734375 204.938419)scale(0.1 -0.1)">
       <use xlink:href="#DejaVuSans-48"/>
       <use x="63.623047" xlink:href="#DejaVuSans-46"/>
       <use x="95.410156" xlink:href="#DejaVuSans-49"/>
       <use x="159.033203" xlink:href="#DejaVuSans-53"/>
      </g>
     </g>
    </g>
    <g id="ytick_5">
     <g id="line2d_17">
      <g>
       <use style="stroke:#000000;stroke-width:0.8;" x="108" xlink:href="#m6b2e01cd11" y="165.6576"/>
      </g>
     </g>
     <g id="text_17">
      <!-- 0.20 -->
      <defs>
       <path d="M 19.1875 8.296875 
L 53.609375 8.296875 
L 53.609375 0 
L 7.328125 0 
L 7.328125 8.296875 
Q 12.9375 14.109375 22.625 23.890625 
Q 32.328125 33.6875 34.8125 36.53125 
Q 39.546875 41.84375 41.421875 45.53125 
Q 43.3125 49.21875 43.3125 52.78125 
Q 43.3125 58.59375 39.234375 62.25 
Q 35.15625 65.921875 28.609375 65.921875 
Q 23.96875 65.921875 18.8125 64.3125 
Q 13.671875 62.703125 7.8125 59.421875 
L 7.8125 69.390625 
Q 13.765625 71.78125 18.9375 73 
Q 24.125 74.21875 28.421875 74.21875 
Q 39.75 74.21875 46.484375 68.546875 
Q 53.21875 62.890625 53.21875 53.421875 
Q 53.21875 48.921875 51.53125 44.890625 
Q 49.859375 40.875 45.40625 35.40625 
Q 44.1875 33.984375 37.640625 27.21875 
Q 31.109375 20.453125 19.1875 8.296875 
z
" id="DejaVuSans-50"/>
      </defs>
      <g transform="translate(78.734375 169.456819)scale(0.1 -0.1)">
       <use xlink:href="#DejaVuSans-48"/>
       <use x="63.623047" xlink:href="#DejaVuSans-46"/>
       <use x="95.410156" xlink:href="#DejaVuSans-50"/>
       <use x="159.033203" xlink:href="#DejaVuSans-48"/>
      </g>
     </g>
    </g>
    <g id="ytick_6">
     <g id="line2d_18">
      <g>
       <use style="stroke:#000000;stroke-width:0.8;" x="108" xlink:href="#m6b2e01cd11" y="130.176"/>
      </g>
     </g>
     <g id="text_18">
      <!-- 0.25 -->
      <g transform="translate(78.734375 133.975219)scale(0.1 -0.1)">
       <use xlink:href="#DejaVuSans-48"/>
       <use x="63.623047" xlink:href="#DejaVuSans-46"/>
       <use x="95.410156" xlink:href="#DejaVuSans-50"/>
       <use x="159.033203" xlink:href="#DejaVuSans-53"/>
      </g>
     </g>
    </g>
    <g id="ytick_7">
     <g id="line2d_19">
      <g>
       <use style="stroke:#000000;stroke-width:0.8;" x="108" xlink:href="#m6b2e01cd11" y="94.6944"/>
      </g>
     </g>
     <g id="text_19">
      <!-- 0.30 -->
      <defs>
       <path d="M 40.578125 39.3125 
Q 47.65625 37.796875 51.625 33 
Q 55.609375 28.21875 55.609375 21.1875 
Q 55.609375 10.40625 48.1875 4.484375 
Q 40.765625 -1.421875 27.09375 -1.421875 
Q 22.515625 -1.421875 17.65625 -0.515625 
Q 12.796875 0.390625 7.625 2.203125 
L 7.625 11.71875 
Q 11.71875 9.328125 16.59375 8.109375 
Q 21.484375 6.890625 26.8125 6.890625 
Q 36.078125 6.890625 40.9375 10.546875 
Q 45.796875 14.203125 45.796875 21.1875 
Q 45.796875 27.640625 41.28125 31.265625 
Q 36.765625 34.90625 28.71875 34.90625 
L 20.21875 34.90625 
L 20.21875 43.015625 
L 29.109375 43.015625 
Q 36.375 43.015625 40.234375 45.921875 
Q 44.09375 48.828125 44.09375 54.296875 
Q 44.09375 59.90625 40.109375 62.90625 
Q 36.140625 65.921875 28.71875 65.921875 
Q 24.65625 65.921875 20.015625 65.03125 
Q 15.375 64.15625 9.8125 62.3125 
L 9.8125 71.09375 
Q 15.4375 72.65625 20.34375 73.4375 
Q 25.25 74.21875 29.59375 74.21875 
Q 40.828125 74.21875 47.359375 69.109375 
Q 53.90625 64.015625 53.90625 55.328125 
Q 53.90625 49.265625 50.4375 45.09375 
Q 46.96875 40.921875 40.578125 39.3125 
z
" id="DejaVuSans-51"/>
      </defs>
      <g transform="translate(78.734375 98.493619)scale(0.1 -0.1)">
       <use xlink:href="#DejaVuSans-48"/>
       <use x="63.623047" xlink:href="#DejaVuSans-46"/>
       <use x="95.410156" xlink:href="#DejaVuSans-51"/>
       <use x="159.033203" xlink:href="#DejaVuSans-48"/>
      </g>
     </g>
    </g>
    <g id="ytick_8">
     <g id="line2d_20">
      <g>
       <use style="stroke:#000000;stroke-width:0.8;" x="108" xlink:href="#m6b2e01cd11" y="59.2128"/>
      </g>
     </g>
     <g id="text_20">
      <!-- 0.35 -->
      <g transform="translate(78.734375 63.012019)scale(0.1 -0.1)">
       <use xlink:href="#DejaVuSans-48"/>
       <use x="63.623047" xlink:href="#DejaVuSans-46"/>
       <use x="95.410156" xlink:href="#DejaVuSans-51"/>
       <use x="159.033203" xlink:href="#DejaVuSans-53"/>
      </g>
     </g>
    </g>
   </g>
   <g id="line2d_21">
    <path clip-path="url(#p9375b8b399)" d="M 108 307.584 
L 108 41.472 
" style="fill:none;stroke:#d3d3d3;stroke-linecap:square;stroke-width:1.5;"/>
   </g>
   <g id="line2d_22">
    <path clip-path="url(#p9375b8b399)" d="M 173.464611 307.584 
L 173.464611 41.472 
" style="fill:none;stroke:#d3d3d3;stroke-linecap:square;stroke-width:1.5;"/>
   </g>
   <g id="line2d_23">
    <path clip-path="url(#p9375b8b399)" d="M 238.929221 307.584 
L 238.929221 41.472 
" style="fill:none;stroke:#d3d3d3;stroke-linecap:square;stroke-width:1.5;"/>
   </g>
   <g id="line2d_24">
    <path clip-path="url(#p9375b8b399)" d="M 331.510162 307.584 
L 331.510162 41.472 
" style="fill:none;stroke:#d3d3d3;stroke-linecap:square;stroke-width:1.5;"/>
   </g>
   <g id="line2d_25">
    <path clip-path="url(#p9375b8b399)" d="M 396.974772 307.584 
L 396.974772 41.472 
" style="fill:none;stroke:#d3d3d3;stroke-linecap:square;stroke-width:1.5;"/>
   </g>
   <g id="line2d_26">
    <path clip-path="url(#p9375b8b399)" d="M 462.439383 307.584 
L 462.439383 41.472 
" style="fill:none;stroke:#d3d3d3;stroke-linecap:square;stroke-width:1.5;"/>
   </g>
   <g id="line2d_27">
    <path clip-path="url(#p9375b8b399)" d="M 527.903994 307.584 
L 527.903994 41.472 
" style="fill:none;stroke:#d3d3d3;stroke-linecap:square;stroke-width:1.5;"/>
   </g>
   <g id="line2d_28">
    <path clip-path="url(#p9375b8b399)" d="M 620.484934 307.584 
L 620.484934 41.472 
" style="fill:none;stroke:#d3d3d3;stroke-linecap:square;stroke-width:1.5;"/>
   </g>
   <g id="line2d_29">
    <path clip-path="url(#p9375b8b399)" d="M 108 307.584 
L 127.005855 250.487293 
L 137.564663 219.503057 
L 146.011709 195.41176 
L 153.402875 175.030419 
L 159.73816 158.250461 
L 165.017564 144.960473 
L 168.185207 137.488048 
L 170.296968 132.903825 
L 172.40873 128.982399 
L 173.464611 127.501397 
L 175.576372 127.92008 
L 177.688134 128.156387 
L 179.799896 128.207481 
L 181.911657 128.07478 
L 184.023419 127.758993 
L 186.135181 127.262961 
L 188.246942 126.590939 
L 190.358704 125.746477 
L 192.470465 124.735251 
L 195.638108 122.919303 
L 198.80575 120.762732 
L 201.973393 118.290374 
L 205.141035 115.528486 
L 208.308678 112.504034 
L 212.532201 108.113541 
L 216.755724 103.383134 
L 222.035128 97.120632 
L 231.538056 85.723232 
L 233.649817 83.497117 
L 235.761579 81.675491 
L 236.81746 81.016243 
L 237.873341 80.591883 
L 238.929221 80.447118 
L 239.981278 80.546467 
L 241.033334 80.840964 
L 242.08539 81.322095 
L 243.137446 81.978504 
L 244.189502 82.796 
L 246.293614 84.863158 
L 248.397727 87.432736 
L 250.501839 90.434479 
L 252.605951 93.810908 
L 254.710064 97.515897 
L 257.866232 103.60241 
L 261.0224 110.221858 
L 265.230625 119.716734 
L 269.43885 129.824732 
L 274.69913 143.131042 
L 279.959411 157.024217 
L 286.271748 174.29595 
L 293.636141 195.083201 
L 303.104646 222.550217 
L 314.677264 256.885122 
L 331.510162 307.584 
L 354.73954 251.717156 
L 366.354229 224.361198 
L 374.801275 204.988244 
L 381.13656 190.969464 
L 385.360083 182.073517 
L 388.527726 175.855012 
L 390.639488 172.103187 
L 392.751249 168.905586 
L 393.80713 167.6247 
L 394.863011 166.637602 
L 395.918892 166.010287 
L 396.974772 165.793849 
L 399.086534 165.686695 
L 401.198296 165.365941 
L 403.310057 164.833008 
L 405.421819 164.091442 
L 407.533581 163.146212 
L 409.645342 162.002286 
L 411.757104 160.666049 
L 414.924746 158.320005 
L 418.092389 155.587212 
L 421.260031 152.500313 
L 424.427674 149.09266 
L 427.595316 145.400445 
L 431.818839 140.098784 
L 436.042363 134.445856 
L 442.377648 125.520814 
L 452.936456 110.501453 
L 456.104098 106.363589 
L 458.21586 103.869232 
L 460.327622 101.719757 
L 461.383502 100.829169 
L 462.439383 100.098957 
L 465.607026 100.563766 
L 468.774668 100.717756 
L 471.942311 100.563057 
L 475.109953 100.11315 
L 478.277595 99.383648 
L 481.445238 98.39655 
L 484.61288 97.173145 
L 487.780523 95.741107 
L 492.004046 93.55615 
L 496.227569 91.124241 
L 503.618735 86.539309 
L 509.95402 82.651945 
L 514.177543 80.324352 
L 517.345186 78.834834 
L 520.512828 77.649039 
L 522.62459 77.062174 
L 524.736351 76.660522 
L 526.848113 76.456148 
L 528.95605 76.456148 
L 531.060162 76.661232 
L 533.164275 77.072818 
L 535.268387 77.695875 
L 537.372499 78.53537 
L 539.476611 79.59556 
L 541.580724 80.879994 
L 543.684836 82.388671 
L 545.788948 84.119464 
L 547.893061 86.065275 
L 551.049229 89.360806 
L 554.205397 93.062246 
L 557.361566 97.108568 
L 561.56979 102.922583 
L 566.830071 110.64125 
L 583.662969 135.751579 
L 587.871194 141.524435 
L 592.079418 146.888543 
L 595.235587 150.586436 
L 598.391755 153.960736 
L 601.547924 156.974543 
L 604.704092 159.593085 
L 606.808204 161.103182 
L 608.912317 162.415291 
L 611.016429 163.520188 
L 613.120541 164.412905 
L 615.224654 165.087056 
L 617.328766 165.539091 
L 619.432878 165.765464 
L 620.484934 165.793849 
L 620.484934 165.793849 
" style="fill:none;stroke:#191970;stroke-linecap:square;stroke-width:1.5;"/>
   </g>
   <g id="line2d_30">
    <path clip-path="url(#p9375b8b399)" d="M 108 307.584 
L 127.005855 247.607039 
L 137.564663 215.051535 
L 146.011709 189.735414 
L 153.402875 168.327945 
L 158.682279 153.627209 
L 162.905803 142.419991 
L 166.073445 134.637456 
L 168.185207 130.132712 
L 169.241087 128.311797 
L 170.296968 126.989043 
L 171.352849 126.367405 
L 172.40873 126.562554 
L 173.464611 127.498558 
L 175.576372 126.8975 
L 177.688134 126.114066 
L 179.799896 125.154644 
L 182.967538 123.401853 
L 186.135181 121.296375 
L 189.302823 118.87653 
L 192.470465 116.193411 
L 196.693989 112.322369 
L 211.47632 98.430612 
L 219.923367 90.870903 
L 224.14689 87.363901 
L 227.314532 84.999408 
L 229.426294 83.613496 
L 231.538056 82.426992 
L 233.649817 81.4846 
L 235.761579 80.827481 
L 237.873341 80.489696 
L 238.929221 80.444989 
L 239.981278 80.535113 
L 241.033334 80.804063 
L 242.08539 81.241906 
L 243.137446 81.837287 
L 245.241558 83.443894 
L 247.345671 85.523116 
L 249.449783 88.001861 
L 251.553895 90.828325 
L 253.658007 93.967737 
L 256.814176 99.209079 
L 259.970344 105.026642 
L 263.126513 111.362236 
L 266.282681 118.160511 
L 270.490906 127.86118 
L 274.69913 138.192713 
L 278.907355 149.062146 
L 284.167635 163.28601 
L 290.479972 181.119062 
L 296.792309 199.612782 
L 305.208758 225.046702 
L 314.677264 254.401339 
L 329.406049 300.906611 
L 331.510162 307.584 
L 354.73954 251.71666 
L 366.354229 224.360488 
L 374.801275 204.986825 
L 381.13656 190.968754 
L 385.360083 182.072807 
L 388.527726 175.854302 
L 390.639488 172.101768 
L 392.751249 168.904876 
L 393.80713 167.62399 
L 394.863011 166.637602 
L 395.918892 166.009577 
L 396.974772 165.793849 
L 399.086534 165.668244 
L 401.198296 165.292849 
L 403.310057 164.669792 
L 405.421819 163.804041 
L 407.533581 162.700563 
L 409.645342 161.367165 
L 411.757104 159.812361 
L 413.868866 158.045378 
L 417.036508 155.020926 
L 420.20415 151.582759 
L 423.371793 147.772745 
L 426.539435 143.633461 
L 430.762959 137.682487 
L 434.986482 131.339796 
L 441.321767 121.368048 
L 448.712933 109.769822 
L 451.880575 105.253015 
L 453.992337 102.647246 
L 455.048217 101.54022 
L 456.104098 100.607054 
L 457.159979 99.885358 
L 458.21586 99.407066 
L 459.271741 99.192757 
L 460.327622 99.248109 
L 461.383502 99.557508 
L 462.439383 100.09328 
L 464.551145 99.609311 
L 467.718787 98.614407 
L 470.88643 97.31791 
L 474.054072 95.739688 
L 477.221715 93.910257 
L 481.445238 91.149788 
L 486.724642 87.333387 
L 493.059927 82.438346 
L 499.395212 77.293514 
L 505.730497 71.888247 
L 520.512828 59.012684 
L 522.62459 57.484846 
L 524.736351 56.277052 
L 525.792232 55.853402 
L 526.848113 55.585161 
L 527.903994 55.493619 
L 528.95605 55.585161 
L 530.008106 55.855531 
L 531.060162 56.292664 
L 532.112218 56.88024 
L 534.216331 58.436463 
L 536.320443 60.400014 
L 538.424555 62.679352 
L 541.580724 66.55962 
L 544.736892 70.871344 
L 548.945117 77.122492 
L 553.153341 83.790904 
L 559.465678 94.283523 
L 577.350633 124.425852 
L 582.610913 132.704419 
L 586.819138 138.929311 
L 591.027362 144.706425 
L 594.183531 148.693847 
L 597.339699 152.344194 
L 600.495868 155.621984 
L 603.652036 158.492446 
L 605.756148 160.163629 
L 607.860261 161.631858 
L 609.964373 162.888616 
L 612.068485 163.926098 
L 614.172597 164.740046 
L 616.27671 165.324073 
L 618.380822 165.67676 
L 620.484934 165.793849 
L 620.484934 165.793849 
" style="fill:none;stroke:#191970;stroke-linecap:square;stroke-width:1.5;"/>
   </g>
   <g id="line2d_31">
    <path clip-path="url(#p9375b8b399)" d="M 108 45.689343 
L 111.167642 45.775918 
L 114.335285 46.04274 
L 117.502927 46.512516 
L 120.67057 47.220729 
L 123.838212 48.215633 
L 125.949974 49.067191 
L 128.061736 50.090481 
L 130.173497 51.304661 
L 132.285259 52.726054 
L 134.39702 54.368852 
L 136.508782 56.244409 
L 138.620544 58.359113 
L 140.732305 60.712962 
L 142.844067 63.304538 
L 146.011709 67.618391 
L 149.179352 72.411955 
L 152.346994 77.636266 
L 155.514637 83.235972 
L 159.73816 91.16469 
L 167.129326 105.246628 
L 168.185207 106.963228 
L 169.241087 108.403781 
L 170.296968 109.394427 
L 171.352849 109.732212 
L 172.40873 109.300755 
L 173.464611 108.180956 
L 175.576372 108.774918 
L 177.688134 109.183666 
L 179.799896 109.405781 
L 181.911657 109.441972 
L 184.023419 109.29153 
L 186.135181 108.956584 
L 188.246942 108.435714 
L 190.358704 107.72963 
L 192.470465 106.836204 
L 194.582227 105.752595 
L 196.693989 104.473839 
L 198.80575 102.994256 
L 200.917512 101.310299 
L 204.085154 98.410033 
L 207.252797 95.110954 
L 211.47632 90.267716 
L 223.091009 76.467502 
L 226.258652 73.140747 
L 228.370413 71.163713 
L 230.482175 69.438597 
L 232.593937 68.018623 
L 234.705698 66.957014 
L 236.81746 66.298476 
L 238.929221 66.074941 
L 241.033334 65.898243 
L 243.137446 65.409307 
L 245.241558 64.693998 
L 248.397727 63.360599 
L 266.282681 55.142351 
L 272.595018 52.558581 
L 277.855299 50.638317 
L 282.063523 49.302079 
L 286.271748 48.170926 
L 290.479972 47.260468 
L 294.688197 46.569996 
L 298.896421 46.083189 
L 304.156702 45.721276 
L 310.469039 45.556642 
L 319.937544 45.599929 
L 331.510162 45.689343 
L 332.566043 46.416716 
L 335.733685 49.365237 
L 338.901328 52.606126 
L 342.06897 56.12732 
L 345.236612 59.92598 
L 349.460136 65.412145 
L 353.683659 71.356023 
L 357.907182 77.72497 
L 362.130705 84.479957 
L 367.41011 93.40216 
L 372.689514 102.766464 
L 380.080679 116.385721 
L 387.471845 129.966659 
L 390.639488 135.268319 
L 392.751249 138.261547 
L 393.80713 139.47005 
L 394.863011 140.406055 
L 395.918892 141.002855 
L 396.974772 141.208649 
L 399.086534 141.093688 
L 401.198296 140.750226 
L 403.310057 140.179682 
L 405.421819 139.386314 
L 407.533581 138.377927 
L 409.645342 137.159489 
L 411.757104 135.741644 
L 414.924746 133.26077 
L 418.092389 130.389599 
L 421.260031 127.169999 
L 424.427674 123.645966 
L 428.651197 118.553647 
L 432.87472 113.115737 
L 439.210005 104.5668 
L 447.657052 93.160176 
L 450.824694 89.196881 
L 452.936456 86.801163 
L 453.992337 85.718974 
L 456.104098 84.854643 
L 460.327622 83.417638 
L 462.439383 82.675363 
L 464.551145 83.050758 
L 466.662906 83.269325 
L 468.774668 83.327515 
L 470.88643 83.223199 
L 472.998191 82.953539 
L 475.109953 82.517115 
L 477.221715 81.911089 
L 479.333476 81.131204 
L 481.445238 80.176749 
L 483.557 79.044176 
L 485.668761 77.734905 
L 488.836404 75.447761 
L 492.004046 72.800834 
L 495.171689 69.848764 
L 499.395212 65.559749 
L 513.121662 51.202474 
L 516.289305 48.369623 
L 518.401067 46.711213 
L 520.512828 45.29053 
L 522.62459 44.159376 
L 524.736351 43.368846 
L 526.848113 42.960808 
L 528.95605 42.926036 
L 531.060162 43.064414 
L 533.164275 43.364589 
L 535.268387 43.877652 
L 537.372499 44.680246 
L 538.424555 45.218147 
L 539.476611 46.034224 
L 542.63278 49.151638 
L 545.788948 52.640188 
L 548.945117 56.487103 
L 552.101285 60.661159 
L 555.257454 65.172999 
L 560.517734 73.50266 
L 580.506801 105.68518 
L 584.715026 111.931361 
L 588.92325 117.79505 
L 592.079418 121.889627 
L 595.235587 125.68261 
L 598.391755 129.137099 
L 601.547924 132.217611 
L 604.704092 134.890795 
L 606.808204 136.431406 
L 608.912317 137.768353 
L 611.016429 138.893829 
L 613.120541 139.802868 
L 615.224654 140.489791 
L 617.328766 140.949633 
L 619.432878 141.180263 
L 620.484934 141.208649 
L 620.484934 141.208649 
" style="fill:none;stroke:#dc143c;stroke-linecap:square;stroke-width:1.5;"/>
   </g>
   <g id="line2d_32">
    <path clip-path="url(#p9375b8b399)" d="M 108 45.689343 
L 111.167642 45.544578 
L 116.447047 45.065576 
L 128.061736 44.69231 
L 131.229378 44.817205 
L 133.34114 45.067705 
L 135.452901 45.531095 
L 137.564663 46.298917 
L 139.676425 47.471229 
L 141.788186 49.136026 
L 143.899948 51.329498 
L 146.011709 54.029648 
L 148.123471 57.170479 
L 150.235233 60.673932 
L 153.402875 66.458852 
L 156.570518 72.726322 
L 160.794041 81.624398 
L 171.352849 104.622152 
L 172.40873 106.558028 
L 173.464611 108.175989 
L 175.576372 107.397522 
L 177.688134 106.435971 
L 179.799896 105.295592 
L 181.911657 103.979935 
L 185.0793 101.688533 
L 188.246942 99.035219 
L 191.414585 96.04483 
L 194.582227 92.747879 
L 197.74987 89.17985 
L 201.973393 84.067661 
L 207.252797 77.255903 
L 220.979248 59.153901 
L 223.091009 56.697155 
L 224.14689 55.661092 
L 225.202771 55.035196 
L 226.258652 55.261569 
L 227.314532 56.150028 
L 230.482175 59.645676 
L 233.649817 63.028491 
L 235.761579 64.84444 
L 236.81746 65.502978 
L 237.873341 65.926628 
L 238.929221 66.073522 
L 241.033334 65.889018 
L 243.137446 65.378792 
L 245.241558 64.638646 
L 248.397727 63.296732 
L 252.605951 61.309763 
L 257.866232 58.446397 
L 263.126513 55.270085 
L 268.386793 51.790759 
L 276.803242 46.103768 
L 278.907355 45.075511 
L 281.011467 44.375814 
L 284.167635 43.688181 
L 287.323804 43.233307 
L 291.532028 42.882748 
L 295.740253 42.787658 
L 299.948478 42.909714 
L 305.208758 43.290077 
L 311.521095 43.937971 
L 318.885488 44.925779 
L 324.145769 45.419683 
L 329.406049 45.666635 
L 331.510162 45.689343 
L 332.566043 46.416006 
L 335.733685 49.364527 
L 338.901328 52.605416 
L 342.06897 56.125901 
L 345.236612 59.925271 
L 349.460136 65.410726 
L 353.683659 71.354604 
L 357.907182 77.723551 
L 362.130705 84.478538 
L 367.41011 93.400741 
L 372.689514 102.765045 
L 380.080679 116.384302 
L 387.471845 129.965239 
L 390.639488 135.2669 
L 392.751249 138.260128 
L 393.80713 139.469341 
L 394.863011 140.405345 
L 395.918892 141.002146 
L 396.974772 141.207939 
L 399.086534 141.087302 
L 401.198296 140.725389 
L 403.310057 140.124331 
L 405.421819 139.289094 
L 407.533581 138.224646 
L 409.645342 136.938083 
L 411.757104 135.437921 
L 413.868866 133.733385 
L 417.036508 130.817507 
L 420.20415 127.506364 
L 423.371793 123.843244 
L 426.539435 119.876401 
L 430.762959 114.207151 
L 436.042363 106.715566 
L 443.433528 96.19882 
L 446.601171 92.104243 
L 448.712933 89.711364 
L 450.824694 87.723685 
L 452.936456 86.234167 
L 453.992337 85.679235 
L 456.104098 83.893801 
L 457.159979 83.204039 
L 458.21586 82.70091 
L 459.271741 82.403574 
L 460.327622 82.316289 
L 461.383502 82.419186 
L 462.439383 82.670395 
L 464.551145 82.138171 
L 467.718787 81.051015 
L 470.88643 79.629622 
L 474.054072 77.891024 
L 477.221715 75.855799 
L 480.389357 73.551624 
L 483.557 71.016109 
L 487.780523 67.35086 
L 495.171689 60.533425 
L 501.506973 54.810243 
L 505.730497 51.315305 
L 509.95402 48.178732 
L 514.177543 45.380653 
L 519.456947 42.218533 
L 521.568709 41.032028 
L 522.62459 41.064671 
L 524.736351 42.169568 
L 525.792232 42.567672 
L 526.848113 42.82172 
L 527.903994 42.908295 
L 530.008106 42.702502 
L 532.112218 42.139054 
L 533.164275 41.76082 
L 534.216331 41.656504 
L 537.372499 44.161505 
L 539.476611 45.858945 
L 541.580724 47.466262 
L 543.684836 49.489422 
L 545.788948 51.86598 
L 548.945117 55.927913 
L 552.101285 60.40853 
L 560.517734 73.042818 
L 566.830071 83.060693 
L 579.454745 103.276689 
L 584.715026 111.233083 
L 588.92325 117.201798 
L 592.079418 121.381531 
L 595.235587 125.261798 
L 598.391755 128.802152 
L 601.547924 131.962853 
L 604.704092 134.709129 
L 606.808204 136.292318 
L 608.912317 137.666875 
L 611.016429 138.825704 
L 613.120541 139.760999 
L 615.224654 140.467793 
L 617.328766 140.941117 
L 619.432878 141.178844 
L 620.484934 141.207939 
L 620.484934 141.207939 
" style="fill:none;stroke:#dc143c;stroke-linecap:square;stroke-width:1.5;"/>
   </g>
   <g id="line2d_33">
    <path clip-path="url(#p9375b8b399)" d="M 108 45.23234 
L 114.335285 45.110993 
L 124.894093 42.99558 
L 129.117616 41.78069 
L 133.34114 40.339427 
L 138.620544 38.267302 
L 144.955829 35.508962 
L 154.458756 31.364002 
L 167.129326 26.270263 
L 173.464611 23.811388 
L 184.023419 24.371288 
L 189.302823 24.823324 
L 193.526346 25.377546 
L 197.74987 26.182979 
L 198.80575 26.550568 
L 200.917512 27.815132 
L 203.029274 29.28478 
L 206.196916 31.836617 
L 209.364559 34.756043 
L 212.532201 37.98203 
L 216.755724 42.652828 
L 224.14689 51.044226 
L 225.202771 51.734698 
L 226.258652 51.610512 
L 227.314532 50.86256 
L 231.538056 47.152604 
L 233.649817 45.636121 
L 235.761579 44.535481 
L 236.81746 44.173569 
L 237.873341 43.952164 
L 239.981278 43.913134 
L 242.08539 44.160796 
L 245.241558 44.851268 
L 250.501839 46.128605 
L 253.658007 46.650185 
L 256.814176 46.904233 
L 259.970344 46.898556 
L 263.126513 46.667216 
L 267.334737 46.08035 
L 271.542962 45.250081 
L 274.69913 44.451745 
L 276.803242 43.739984 
L 278.907355 42.741532 
L 281.011467 42.413682 
L 286.271748 41.958808 
L 290.479972 41.81901 
L 294.688197 41.911262 
L 298.896421 42.22492 
L 304.156702 42.855073 
L 314.677264 44.24879 
L 322.041657 44.892426 
L 327.301937 45.162796 
L 331.510162 45.23234 
L 332.566043 44.533352 
L 336.789566 41.233564 
L 339.957208 39.020931 
L 343.124851 37.024027 
L 347.348374 34.660952 
L 351.571897 32.595213 
L 355.795421 30.780684 
L 361.074825 28.805778 
L 366.354229 27.099113 
L 371.633633 25.62166 
L 376.913037 24.359224 
L 382.192441 23.321742 
L 387.471845 22.543276 
L 391.695368 22.140915 
L 395.918892 21.962797 
L 399.086534 22.031631 
L 401.198296 22.263681 
L 403.310057 22.65043 
L 405.421819 23.19117 
L 408.589461 24.291809 
L 411.757104 25.735201 
L 414.924746 27.514248 
L 418.092389 29.616178 
L 421.260031 32.024669 
L 424.427674 34.717013 
L 427.595316 37.664824 
L 431.818839 41.930422 
L 437.098244 47.625219 
L 443.433528 54.435557 
L 445.54529 56.482136 
L 447.657052 58.264732 
L 449.768813 59.643547 
L 450.824694 60.129645 
L 451.880575 60.453946 
L 452.936456 60.603679 
L 453.992337 60.575293 
L 455.048217 60.38937 
L 457.159979 62.093906 
L 458.21586 62.719801 
L 459.271741 63.10797 
L 460.327622 63.241381 
L 461.383502 63.124292 
L 462.439383 62.782959 
L 465.607026 62.851083 
L 468.774668 62.66445 
L 471.942311 62.226607 
L 475.109953 61.542522 
L 478.277595 60.62142 
L 481.445238 59.472525 
L 484.61288 58.107903 
L 487.780523 56.539616 
L 492.004046 54.156672 
L 496.227569 51.474973 
L 498.339331 50.062805 
L 503.618735 47.613155 
L 509.95402 44.370137 
L 515.233424 41.717533 
L 518.401067 40.362845 
L 519.456947 39.974676 
L 520.512828 39.772431 
L 521.568709 40.423874 
L 522.62459 40.457936 
L 525.792232 38.913777 
L 526.848113 38.561799 
L 527.903994 38.42555 
L 528.95605 38.587346 
L 530.008106 39.001771 
L 532.112218 40.202468 
L 533.164275 40.905004 
L 534.216331 41.33717 
L 538.424555 39.406261 
L 540.528668 38.40639 
L 542.63278 38.221885 
L 547.893061 37.837265 
L 552.101285 37.298654 
L 556.30951 36.530123 
L 566.830071 34.161371 
L 573.142408 32.39013 
L 583.662969 29.135757 
L 593.131475 26.287294 
L 598.391755 24.956734 
L 604.704092 23.588564 
L 609.964373 22.710749 
L 614.172597 22.232457 
L 618.380822 21.985505 
L 620.484934 21.954991 
L 620.484934 21.954991 
" style="fill:none;stroke:#dc143c;stroke-linecap:square;stroke-width:1.5;"/>
   </g>
   <g id="line2d_34">
    <path clip-path="url(#p9375b8b399)" d="M 108 45.230211 
L 111.167642 45.151442 
L 115.391166 44.796626 
L 116.447047 44.663215 
L 119.614689 43.76624 
L 122.782331 42.601734 
L 125.949974 41.187438 
L 129.117616 39.54393 
L 133.34114 37.039639 
L 137.564663 34.245817 
L 143.899948 29.741783 
L 146.011709 28.227428 
L 148.123471 28.400579 
L 150.235233 28.240202 
L 152.346994 27.803778 
L 154.458756 27.14453 
L 157.626398 25.842355 
L 160.794041 24.281874 
L 166.073445 21.540566 
L 169.241087 22.370835 
L 173.464611 23.80855 
L 185.0793 23.40335 
L 188.246942 23.50057 
L 190.358704 23.71275 
L 192.470465 24.095951 
L 194.582227 24.687074 
L 196.693989 25.50457 
L 198.80575 26.432059 
L 201.973393 27.306326 
L 205.141035 28.384967 
L 208.308678 29.672949 
L 211.47632 31.163176 
L 215.699843 33.422644 
L 222.035128 37.17163 
L 227.314532 40.236531 
L 230.482175 41.817591 
L 232.593937 42.677665 
L 234.705698 43.331236 
L 236.81746 43.740694 
L 238.929221 43.877652 
L 243.137446 43.977711 
L 257.866232 44.627024 
L 262.074457 44.497161 
L 267.334737 44.080607 
L 273.647074 43.330526 
L 278.907355 42.657085 
L 279.959411 42.123442 
L 286.271748 38.145955 
L 287.323804 37.666244 
L 288.37586 37.309299 
L 289.427916 37.090022 
L 290.479972 37.007705 
L 292.584085 37.180855 
L 294.688197 37.644955 
L 298.896421 38.923002 
L 307.312871 41.566381 
L 312.573151 42.944486 
L 316.781376 43.833655 
L 320.9896 44.512773 
L 325.197825 44.971195 
L 329.406049 45.201826 
L 331.510162 45.230211 
L 332.566043 44.532643 
L 336.789566 41.232854 
L 339.957208 39.020221 
L 343.124851 37.023317 
L 347.348374 34.660242 
L 351.571897 32.595213 
L 355.795421 30.780684 
L 360.018944 29.176916 
L 365.298348 27.420577 
L 370.577752 25.899835 
L 375.857156 24.594822 
L 381.13656 23.509795 
L 386.415964 22.675268 
L 390.639488 22.221103 
L 394.863011 21.984796 
L 406.4777 21.656946 
L 413.868866 21.363868 
L 417.036508 21.476699 
L 419.14827 21.737134 
L 421.260031 22.215426 
L 423.371793 22.974732 
L 425.483555 24.068275 
L 427.595316 25.520892 
L 428.651197 26.383095 
L 432.87472 30.709011 
L 434.986482 33.106148 
L 438.154124 37.195048 
L 442.377648 43.069382 
L 451.880575 56.509812 
L 453.992337 59.103517 
L 455.048217 60.250992 
L 457.159979 59.952946 
L 458.21586 60.227574 
L 462.439383 62.78012 
L 465.607026 62.455818 
L 468.774668 61.878178 
L 471.942311 61.055005 
L 475.109953 60.00333 
L 479.333476 58.300213 
L 495.171689 51.418202 
L 498.339331 50.035129 
L 503.618735 46.207374 
L 512.065782 39.954807 
L 514.177543 38.73282 
L 515.233424 38.331169 
L 516.289305 38.161567 
L 517.345186 38.27014 
L 518.401067 38.627085 
L 520.512828 39.624118 
L 522.62459 39.047897 
L 524.736351 38.651922 
L 526.848113 38.451097 
L 532.112218 38.419163 
L 540.528668 38.304912 
L 543.684836 37.220595 
L 544.736892 37.086474 
L 553.153341 36.809008 
L 557.361566 36.232787 
L 559.465678 35.811975 
L 564.725959 34.405485 
L 595.235587 25.707525 
L 600.495868 24.391867 
L 605.756148 23.314646 
L 609.964373 22.660365 
L 614.172597 22.211878 
L 618.380822 21.983376 
L 620.484934 21.954991 
L 620.484934 21.954991 
" style="fill:none;stroke:#dc143c;stroke-linecap:square;stroke-width:1.5;"/>
   </g>
   <g id="line2d_35">
    <path clip-path="url(#p9375b8b399)" d="M 115.510683 -1 
L 118.558808 -0.454478 
L 120.67057 0.036588 
L 121.726451 3.627325 
L 125.949974 8.848798 
L 135.452901 20.82029 
L 137.564663 23.112401 
L 139.676425 25.066018 
L 141.788186 26.588888 
L 143.899948 27.636305 
L 146.011709 28.221751 
L 150.235233 25.341355 
L 153.402875 23.458701 
L 155.514637 22.43896 
L 157.626398 21.675396 
L 159.73816 21.212006 
L 161.849922 21.059436 
L 163.961683 21.187169 
L 165.017564 21.339031 
L 166.073445 21.361739 
L 173.464611 17.019501 
L 190.358704 16.382251 
L 191.414585 18.247874 
L 194.582227 18.244325 
L 197.74987 18.007308 
L 200.917512 17.564498 
L 205.141035 16.740615 
L 215.699843 14.425796 
L 216.755724 14.349155 
L 217.811605 14.387475 
L 218.867486 14.567012 
L 220.979248 15.297224 
L 224.14689 16.869059 
L 225.202771 18.270582 
L 229.426294 20.389543 
L 232.593937 21.708039 
L 234.705698 22.356643 
L 236.81746 22.768229 
L 238.929221 22.909446 
L 239.981278 22.84416 
L 241.033334 22.65043 
L 243.137446 21.913123 
L 245.241558 20.796162 
L 246.293614 22.041566 
L 249.449783 21.231166 
L 253.658007 19.899897 
L 259.970344 17.625526 
L 268.386793 14.47476 
L 269.43885 22.182783 
L 276.803242 26.140401 
L 281.011467 28.121693 
L 283.115579 28.933512 
L 285.219692 29.517539 
L 286.271748 29.677916 
L 287.323804 29.716236 
L 288.37586 29.608372 
L 289.427916 29.340841 
L 290.479972 28.914352 
L 292.584085 27.662561 
L 294.688197 26.041052 
L 297.844365 23.225942 
L 302.05259 19.108657 
L 308.364927 12.587849 
L 319.937544 0.561006 
L 321.535356 -1 
M 339.556423 -1 
L 343.124851 -0.466542 
L 348.404255 0.529782 
L 357.907182 2.594101 
L 370.577752 5.321217 
L 377.968918 6.717063 
L 384.304203 7.692098 
L 389.583607 8.269028 
L 393.80713 8.528044 
L 400.142415 8.789898 
L 402.254177 9.148262 
L 404.365938 9.681906 
L 406.4777 10.38657 
L 408.589461 11.257289 
L 411.757104 12.861767 
L 414.924746 14.801901 
L 418.092389 17.050724 
L 421.260031 19.577724 
L 424.427674 22.350256 
L 429.707078 27.324776 
L 431.818839 29.444447 
L 441.321767 40.060542 
L 455.048217 55.730636 
L 456.104098 56.668769 
L 457.159979 57.269118 
L 458.21586 57.213767 
L 459.271741 56.577936 
L 460.327622 55.641222 
L 462.439383 53.326403 
L 465.607026 53.688315 
L 468.774668 53.874238 
L 471.942311 53.873529 
L 475.109953 53.669864 
L 478.277595 53.23415 
L 481.445238 52.512455 
L 483.557 51.831918 
L 485.668761 50.956232 
L 487.780523 49.862689 
L 489.892284 48.547031 
L 492.004046 47.023451 
L 495.171689 44.398522 
L 498.339331 41.441486 
L 502.562854 37.138277 
L 506.786378 32.779008 
L 508.898139 30.889258 
L 509.95402 30.150531 
L 511.009901 29.629661 
L 512.065782 32.632824 
L 513.121662 32.469608 
L 514.177543 32.510057 
L 516.289305 32.770492 
L 517.345186 32.669725 
L 518.401067 32.352519 
L 520.512828 31.294458 
L 523.680471 29.350066 
L 524.736351 34.908614 
L 526.848113 35.741012 
L 527.903994 35.880809 
L 528.95605 35.741722 
L 531.060162 34.958288 
L 539.476611 31.180207 
L 540.528668 35.059056 
L 541.580724 35.41671 
L 542.63278 35.633148 
L 543.684836 35.652308 
L 544.736892 35.43587 
L 546.841004 34.560184 
L 551.049229 32.326972 
L 558.413622 28.076986 
L 561.56979 26.241168 
L 562.621847 27.022473 
L 565.778015 26.667657 
L 568.934183 26.104919 
L 572.090352 25.325033 
L 575.24652 24.339355 
L 579.454745 22.74836 
L 584.715026 20.440636 
L 600.495868 13.168328 
L 604.704092 11.556044 
L 607.860261 10.533464 
L 611.016429 9.702485 
L 614.172597 9.090073 
L 617.328766 8.714677 
L 620.484934 8.587653 
L 620.484934 8.587653 
" style="fill:none;stroke:#dc143c;stroke-linecap:square;stroke-width:1.5;"/>
   </g>
   <g id="line2d_36">
    <path clip-path="url(#p9375b8b399)" d="M 633.577856 307.584 
L 633.577856 41.472 
" style="fill:none;stroke:#d3d3d3;stroke-linecap:square;stroke-width:1.5;"/>
   </g>
   <g id="line2d_37">
    <path clip-path="url(#p9375b8b399)" d="M 699.042467 307.584 
L 699.042467 41.472 
" style="fill:none;stroke:#d3d3d3;stroke-linecap:square;stroke-width:1.5;"/>
   </g>
   <g id="line2d_38">
    <path clip-path="url(#p9375b8b399)" d="M 633.577856 127.501397 
L 634.526619 127.491462 
L 635.475381 127.462367 
L 636.424144 127.413403 
L 637.372906 127.345278 
L 638.321669 127.257284 
L 639.270431 127.150129 
L 640.219194 127.023105 
L 641.167956 126.87763 
L 642.116719 126.712996 
L 643.065481 126.529201 
L 644.014244 126.326956 
L 644.963006 126.105551 
L 645.911769 125.866405 
L 646.860531 125.608808 
L 647.809294 125.332762 
L 648.758056 125.038974 
L 649.706818 124.728155 
L 650.655581 124.399596 
L 651.604343 124.054714 
L 652.553106 123.692802 
L 653.501868 123.313859 
L 654.450631 122.920013 
L 655.399393 122.509846 
L 656.348156 122.084066 
L 657.296918 121.643385 
L 658.245681 121.188511 
L 659.194443 120.719444 
L 660.143206 120.236185 
L 661.091968 119.740152 
L 662.040731 119.231346 
L 662.989493 118.710476 
L 663.938256 118.177542 
L 664.887018 117.633254 
L 665.835781 117.079032 
L 666.784543 116.514165 
L 667.733305 115.940782 
L 668.682068 115.358174 
L 669.63083 114.76776 
L 670.579593 114.17025 
L 671.528355 113.566353 
L 672.477118 112.957489 
L 673.42588 112.343657 
L 674.374643 111.726278 
L 675.323405 111.106059 
L 676.272168 110.485131 
L 677.22093 109.863494 
L 678.169693 109.243275 
L 679.118455 108.625895 
L 680.067218 108.012064 
L 681.01598 107.404619 
L 681.964743 106.80356 
L 682.913505 106.212437 
L 683.862268 105.632668 
L 684.81103 105.066381 
L 685.759792 104.516417 
L 686.708555 103.984193 
L 687.657317 103.473967 
L 688.60608 102.98716 
L 689.554842 102.528028 
L 690.503605 102.09941 
L 691.452367 101.703435 
L 692.40113 101.344361 
L 693.349892 101.025737 
L 694.298655 100.74898 
L 695.247417 100.519059 
L 696.19618 100.336684 
L 697.144942 100.205402 
L 698.093705 100.125214 
L 699.042467 100.098957 
" style="fill:none;stroke:#191970;stroke-linecap:square;stroke-width:1.5;"/>
   </g>
   <g id="line2d_39">
    <path clip-path="url(#p9375b8b399)" d="M 633.577856 127.498558 
L 634.526619 127.488624 
L 635.475381 127.459529 
L 636.424144 127.410564 
L 637.372906 127.342439 
L 638.321669 127.254445 
L 639.270431 127.147291 
L 640.219194 127.020266 
L 641.167956 126.874792 
L 642.116719 126.710157 
L 643.065481 126.526363 
L 644.014244 126.324118 
L 644.963006 126.102712 
L 645.911769 125.863566 
L 646.860531 125.60597 
L 647.809294 125.329923 
L 648.758056 125.036135 
L 649.706818 124.725317 
L 650.655581 124.396757 
L 651.604343 124.051876 
L 652.553106 123.689254 
L 653.501868 123.31102 
L 654.450631 122.916465 
L 655.399393 122.506297 
L 656.348156 122.081228 
L 657.296918 121.640546 
L 658.245681 121.185672 
L 659.194443 120.715896 
L 660.143206 120.233346 
L 661.091968 119.737313 
L 662.040731 119.228507 
L 662.989493 118.706928 
L 663.938256 118.173994 
L 664.887018 117.630416 
L 665.835781 117.075484 
L 666.784543 116.510617 
L 667.733305 115.937234 
L 668.682068 115.354626 
L 669.63083 114.764212 
L 670.579593 114.166702 
L 671.528355 113.562805 
L 672.477118 112.953231 
L 673.42588 112.340109 
L 674.374643 111.722729 
L 675.323405 111.102511 
L 676.272168 110.481583 
L 677.22093 109.859945 
L 678.169693 109.239727 
L 679.118455 108.621638 
L 680.067218 108.008516 
L 681.01598 107.400361 
L 681.964743 106.800012 
L 682.913505 106.208179 
L 683.862268 105.62841 
L 684.81103 105.062124 
L 685.759792 104.512159 
L 686.708555 103.979935 
L 687.657317 103.469709 
L 688.60608 102.982902 
L 689.554842 102.52377 
L 690.503605 102.094442 
L 691.452367 101.698468 
L 692.40113 101.339394 
L 693.349892 101.020769 
L 694.298655 100.744013 
L 695.247417 100.514092 
L 696.19618 100.331717 
L 697.144942 100.200435 
L 698.093705 100.120246 
L 699.042467 100.09328 
" style="fill:none;stroke:#191970;stroke-linecap:square;stroke-width:1.5;"/>
   </g>
   <g id="line2d_40">
    <path clip-path="url(#p9375b8b399)" d="M 633.577856 108.180956 
L 634.526619 108.172441 
L 635.475381 108.144765 
L 636.424144 108.099348 
L 637.372906 108.035482 
L 638.321669 107.953164 
L 639.270431 107.853106 
L 640.219194 107.734598 
L 641.167956 107.599058 
L 642.116719 107.445068 
L 643.065481 107.272627 
L 644.014244 107.083155 
L 644.963006 106.876653 
L 645.911769 106.652409 
L 646.860531 106.410424 
L 647.809294 106.152118 
L 648.758056 105.876781 
L 649.706818 105.585122 
L 650.655581 105.276432 
L 651.604343 104.952131 
L 652.553106 104.612217 
L 653.501868 104.255982 
L 654.450631 103.884844 
L 655.399393 103.498095 
L 656.348156 103.097153 
L 657.296918 102.682018 
L 658.245681 102.251981 
L 659.194443 101.80917 
L 660.143206 101.352877 
L 661.091968 100.883101 
L 662.040731 100.40197 
L 662.989493 99.908066 
L 663.938256 99.403518 
L 664.887018 98.887615 
L 665.835781 98.361069 
L 666.784543 97.825296 
L 667.733305 97.280299 
L 668.682068 96.726786 
L 669.63083 96.165467 
L 670.579593 95.597052 
L 671.528355 95.02296 
L 672.477118 94.44319 
L 673.42588 93.859873 
L 674.374643 93.273007 
L 675.323405 92.684013 
L 676.272168 92.094308 
L 677.22093 91.504604 
L 678.169693 90.917029 
L 679.118455 90.333002 
L 680.067218 89.753942 
L 681.01598 89.181979 
L 681.964743 88.618531 
L 682.913505 88.066437 
L 683.862268 87.527826 
L 684.81103 87.004118 
L 685.759792 86.49886 
L 686.708555 86.014181 
L 687.657317 85.552921 
L 688.60608 85.118626 
L 689.554842 84.712007 
L 690.503605 84.338031 
L 691.452367 83.996698 
L 692.40113 83.692265 
L 693.349892 83.425444 
L 694.298655 83.197652 
L 695.247417 83.010309 
L 696.19618 82.864125 
L 697.144942 82.759099 
L 698.093705 82.696652 
L 699.042467 82.675363 
" style="fill:none;stroke:#dc143c;stroke-linecap:square;stroke-width:1.5;"/>
   </g>
   <g id="line2d_41">
    <path clip-path="url(#p9375b8b399)" d="M 633.577856 108.175989 
L 634.526619 108.166764 
L 635.475381 108.139088 
L 636.424144 108.093671 
L 637.372906 108.029805 
L 638.321669 107.948197 
L 639.270431 107.848139 
L 640.219194 107.72963 
L 641.167956 107.593381 
L 642.116719 107.439391 
L 643.065481 107.26766 
L 644.014244 107.078188 
L 644.963006 106.870975 
L 645.911769 106.646732 
L 646.860531 106.405457 
L 647.809294 106.147151 
L 648.758056 105.871814 
L 649.706818 105.580155 
L 650.655581 105.271465 
L 651.604343 104.947163 
L 652.553106 104.60654 
L 653.501868 104.251014 
L 654.450631 103.879877 
L 655.399393 103.493127 
L 656.348156 103.092185 
L 657.296918 102.67705 
L 658.245681 102.247013 
L 659.194443 101.804203 
L 660.143206 101.34791 
L 661.091968 100.878133 
L 662.040731 100.397003 
L 662.989493 99.903099 
L 663.938256 99.397841 
L 664.887018 98.882648 
L 665.835781 98.356101 
L 666.784543 97.820329 
L 667.733305 97.275332 
L 668.682068 96.721819 
L 669.63083 96.1605 
L 670.579593 95.592084 
L 671.528355 95.017992 
L 672.477118 94.438223 
L 673.42588 93.854905 
L 674.374643 93.26804 
L 675.323405 92.679045 
L 676.272168 92.089341 
L 677.22093 91.499637 
L 678.169693 90.912771 
L 679.118455 90.328744 
L 680.067218 89.749684 
L 681.01598 89.177721 
L 681.964743 88.614273 
L 682.913505 88.062179 
L 683.862268 87.522859 
L 684.81103 86.99986 
L 685.759792 86.493893 
L 686.708555 86.009924 
L 687.657317 85.548663 
L 688.60608 85.113658 
L 689.554842 84.707749 
L 690.503605 84.333063 
L 691.452367 83.99244 
L 692.40113 83.688008 
L 693.349892 83.420476 
L 694.298655 83.193394 
L 695.247417 83.005342 
L 696.19618 82.859158 
L 697.144942 82.754132 
L 698.093705 82.690975 
L 699.042467 82.670395 
" style="fill:none;stroke:#dc143c;stroke-linecap:square;stroke-width:1.5;"/>
   </g>
   <g id="line2d_42">
    <path clip-path="url(#p9375b8b399)" d="M 633.577856 23.811388 
L 634.526619 23.835516 
L 635.475381 23.909318 
L 636.424144 24.031374 
L 637.372906 24.200267 
L 638.321669 24.415995 
L 639.270431 24.677139 
L 640.219194 24.980862 
L 641.167956 25.325743 
L 642.116719 25.709654 
L 643.065481 26.131885 
L 644.014244 26.588178 
L 644.963006 27.078534 
L 645.911769 27.599404 
L 646.860531 28.150078 
L 647.809294 28.727719 
L 648.758056 29.330196 
L 649.706818 29.956802 
L 650.655581 30.605405 
L 651.604343 31.273879 
L 652.553106 31.961512 
L 653.501868 32.666177 
L 654.450631 33.387163 
L 655.399393 34.123051 
L 656.348156 34.871713 
L 657.296918 35.633148 
L 658.245681 36.405937 
L 659.194443 37.187952 
L 660.143206 37.979901 
L 661.091968 38.778947 
L 662.040731 39.585798 
L 662.989493 40.397617 
L 663.938256 41.215113 
L 664.887018 42.036157 
L 665.835781 42.86075 
L 666.784543 43.686761 
L 667.733305 44.514192 
L 668.682068 45.341623 
L 669.63083 46.167635 
L 670.579593 46.991518 
L 671.528355 47.812562 
L 672.477118 48.629348 
L 673.42588 49.439748 
L 674.374643 50.243761 
L 675.323405 51.039259 
L 676.272168 51.824821 
L 677.22093 52.599739 
L 678.169693 53.361175 
L 679.118455 54.107707 
L 680.067218 54.837919 
L 681.01598 55.54968 
L 681.964743 56.240152 
L 682.913505 56.907915 
L 683.862268 57.550842 
L 684.81103 58.165383 
L 685.759792 58.74941 
L 686.708555 59.300794 
L 687.657317 59.817406 
L 688.60608 60.295698 
L 689.554842 60.734961 
L 690.503605 61.132355 
L 691.452367 61.487171 
L 692.40113 61.797989 
L 693.349892 62.064811 
L 694.298655 62.288345 
L 695.247417 62.468592 
L 696.19618 62.60697 
L 697.144942 62.704899 
L 698.093705 62.763089 
L 699.042467 62.782959 
" style="fill:none;stroke:#dc143c;stroke-linecap:square;stroke-width:1.5;"/>
   </g>
   <g id="line2d_43">
    <path clip-path="url(#p9375b8b399)" d="M 633.577856 23.80855 
L 634.526619 23.833387 
L 635.475381 23.906479 
L 636.424144 24.028536 
L 637.372906 24.197428 
L 638.321669 24.413156 
L 639.270431 24.673591 
L 640.219194 24.977314 
L 641.167956 25.322195 
L 642.116719 25.706815 
L 643.065481 26.128337 
L 644.014244 26.58534 
L 644.963006 27.074986 
L 645.911769 27.596566 
L 646.860531 28.14653 
L 647.809294 28.724171 
L 648.758056 29.326648 
L 649.706818 29.953253 
L 650.655581 30.601857 
L 651.604343 31.27033 
L 652.553106 31.957964 
L 653.501868 32.663338 
L 654.450631 33.384324 
L 655.399393 34.119503 
L 656.348156 34.868874 
L 657.296918 35.630309 
L 658.245681 36.403099 
L 659.194443 37.185823 
L 660.143206 37.977062 
L 661.091968 38.776818 
L 662.040731 39.58296 
L 662.989493 40.395488 
L 663.938256 41.212275 
L 664.887018 42.034029 
L 665.835781 42.857911 
L 666.784543 43.684633 
L 667.733305 44.512063 
L 668.682068 45.339494 
L 669.63083 46.165506 
L 670.579593 46.989389 
L 671.528355 47.810433 
L 672.477118 48.627219 
L 673.42588 49.437619 
L 674.374643 50.241632 
L 675.323405 51.037839 
L 676.272168 51.823402 
L 677.22093 52.59761 
L 678.169693 53.359755 
L 679.118455 54.106288 
L 680.067218 54.836499 
L 681.01598 55.54826 
L 681.964743 56.238732 
L 682.913505 56.906496 
L 683.862268 57.548713 
L 684.81103 58.163964 
L 685.759792 58.747991 
L 686.708555 59.299375 
L 687.657317 59.815987 
L 688.60608 60.294989 
L 689.554842 60.733541 
L 690.503605 61.130935 
L 691.452367 61.485751 
L 692.40113 61.79657 
L 693.349892 62.063392 
L 694.298655 62.286216 
L 695.247417 62.466463 
L 696.19618 62.604841 
L 697.144942 62.70277 
L 698.093705 62.76096 
L 699.042467 62.78012 
" style="fill:none;stroke:#dc143c;stroke-linecap:square;stroke-width:1.5;"/>
   </g>
   <g id="line2d_44">
    <path clip-path="url(#p9375b8b399)" d="M 633.577856 17.019501 
L 634.526619 17.036532 
L 635.475381 17.086916 
L 636.424144 17.170652 
L 637.372906 17.287741 
L 638.321669 17.437474 
L 639.270431 17.61843 
L 640.219194 17.832029 
L 641.167956 18.075433 
L 642.116719 18.348641 
L 643.065481 18.650235 
L 644.014244 18.980214 
L 644.963006 19.336449 
L 645.911769 19.718941 
L 646.860531 20.126269 
L 647.809294 20.557016 
L 648.758056 21.011181 
L 649.706818 21.486634 
L 650.655581 21.982667 
L 651.604343 22.499279 
L 652.553106 23.035051 
L 653.501868 23.589274 
L 654.450631 24.160527 
L 655.399393 24.748812 
L 656.348156 25.353419 
L 657.296918 25.972218 
L 658.245681 26.605919 
L 659.194443 27.253104 
L 660.143206 27.913771 
L 661.091968 28.585793 
L 662.040731 29.269878 
L 662.989493 29.965317 
L 663.938256 30.669982 
L 664.887018 31.384581 
L 665.835781 32.107696 
L 666.784543 32.838617 
L 667.733305 33.577344 
L 668.682068 34.322458 
L 669.63083 35.072539 
L 670.579593 35.828297 
L 671.528355 36.587603 
L 672.477118 37.349748 
L 673.42588 38.114731 
L 674.374643 38.881134 
L 675.323405 39.647536 
L 676.272168 40.413229 
L 677.22093 41.176793 
L 678.169693 41.937519 
L 679.118455 42.693986 
L 680.067218 43.444067 
L 681.01598 44.187052 
L 681.964743 44.920102 
L 682.913505 45.643217 
L 683.862268 46.352849 
L 684.81103 47.046869 
L 685.759792 47.723858 
L 686.708555 48.380268 
L 687.657317 49.01255 
L 688.60608 49.618575 
L 689.554842 50.194797 
L 690.503605 50.735536 
L 691.452367 51.238665 
L 692.40113 51.697797 
L 693.349892 52.110093 
L 694.298655 52.469167 
L 695.247417 52.770761 
L 696.19618 53.010616 
L 697.144942 53.184476 
L 698.093705 53.290211 
L 699.042467 53.325693 
" style="fill:none;stroke:#dc143c;stroke-linecap:square;stroke-width:1.5;"/>
   </g>
   <g id="line2d_45">
    <path clip-path="url(#p9375b8b399)" d="M 712.135389 307.584 
L 712.135389 41.472 
" style="fill:none;stroke:#d3d3d3;stroke-linecap:square;stroke-width:1.5;"/>
   </g>
   <g id="line2d_46">
    <path clip-path="url(#p9375b8b399)" d="M 777.6 307.584 
L 777.6 41.472 
" style="fill:none;stroke:#d3d3d3;stroke-linecap:square;stroke-width:1.5;"/>
   </g>
   <g id="line2d_47">
    <path clip-path="url(#p9375b8b399)" d="M 712.135389 80.447118 
L 713.084152 80.606076 
L 714.032914 80.753679 
L 714.981677 80.891348 
L 715.930439 81.017662 
L 716.879202 81.133332 
L 717.827964 81.238358 
L 718.776727 81.332739 
L 719.725489 81.416476 
L 720.674252 81.489568 
L 721.623014 81.552725 
L 722.571776 81.605238 
L 723.520539 81.647816 
L 724.469301 81.679749 
L 725.418064 81.702457 
L 726.366826 81.715231 
L 727.315589 81.718069 
L 728.264351 81.711683 
L 729.213114 81.696071 
L 730.161876 81.671234 
L 731.110639 81.637881 
L 732.059401 81.596013 
L 733.008164 81.544919 
L 733.956926 81.48602 
L 734.905689 81.419314 
L 735.854451 81.344803 
L 736.803214 81.262486 
L 737.751976 81.173072 
L 738.700739 81.077272 
L 739.649501 80.975085 
L 740.598264 80.865801 
L 741.547026 80.75155 
L 742.495788 80.631623 
L 743.444551 80.506018 
L 744.393313 80.376155 
L 745.342076 80.241325 
L 746.290838 80.102947 
L 747.239601 79.96102 
L 748.188363 79.815546 
L 749.137126 79.667942 
L 750.085888 79.5175 
L 751.034651 79.365639 
L 751.983413 79.213068 
L 752.932176 79.059078 
L 753.880938 78.904378 
L 754.829701 78.750388 
L 755.778463 78.597108 
L 756.727226 78.445246 
L 757.675988 78.294804 
L 758.624751 78.147201 
L 759.573513 78.002436 
L 760.522275 77.86051 
L 761.471038 77.722841 
L 762.4198 77.58943 
L 763.368563 77.460987 
L 764.317325 77.338221 
L 765.266088 77.221131 
L 766.21485 77.111138 
L 767.163613 77.007532 
L 768.112375 76.911732 
L 769.061138 76.823028 
L 770.0099 76.742839 
L 770.958663 76.671166 
L 771.907425 76.608719 
L 772.856188 76.554787 
L 773.80495 76.51008 
L 774.753713 76.476018 
L 775.702475 76.450471 
L 776.651238 76.435569 
L 777.6 76.430601 
" style="fill:none;stroke:#191970;stroke-linecap:square;stroke-width:1.5;"/>
   </g>
   <g id="line2d_48">
    <path clip-path="url(#p9375b8b399)" d="M 712.135389 80.444989 
L 713.084152 80.275387 
L 714.032914 80.095141 
L 714.981677 79.90354 
L 715.930439 79.701295 
L 716.879202 79.487696 
L 717.827964 79.264162 
L 718.776727 79.029274 
L 719.725489 78.784451 
L 720.674252 78.528273 
L 721.623014 78.261452 
L 722.571776 77.984695 
L 723.520539 77.697294 
L 724.469301 77.399249 
L 725.418064 77.091269 
L 726.366826 76.773353 
L 727.315589 76.445503 
L 728.264351 76.107719 
L 729.213114 75.759999 
L 730.161876 75.403054 
L 731.110639 75.036884 
L 732.059401 74.661489 
L 733.008164 74.276868 
L 733.956926 73.884442 
L 734.905689 73.48279 
L 735.854451 73.072623 
L 736.803214 72.654649 
L 737.751976 72.22887 
L 738.700739 71.795995 
L 739.649501 71.356023 
L 740.598264 70.908245 
L 741.547026 70.45479 
L 742.495788 69.994949 
L 743.444551 69.52872 
L 744.393313 69.057525 
L 745.342076 68.580652 
L 746.290838 68.099522 
L 747.239601 67.614843 
L 748.188363 67.125906 
L 749.137126 66.633422 
L 750.085888 66.138808 
L 751.034651 65.642066 
L 751.983413 65.143904 
L 752.932176 64.645033 
L 753.880938 64.146162 
L 754.829701 63.648 
L 755.778463 63.151967 
L 756.727226 62.658063 
L 757.675988 62.167708 
L 758.624751 61.68161 
L 759.573513 61.201898 
L 760.522275 60.729284 
L 761.471038 60.264475 
L 762.4198 59.809601 
L 763.368563 59.366081 
L 764.317325 58.936044 
L 765.266088 58.520909 
L 766.21485 58.122096 
L 767.163613 57.743152 
L 768.112375 57.385498 
L 769.061138 57.051261 
L 770.0099 56.742571 
L 770.958663 56.463686 
L 771.907425 56.214605 
L 772.856188 55.999586 
L 773.80495 55.820759 
L 774.753713 55.678833 
L 775.702475 55.575936 
L 776.651238 55.514198 
L 777.6 55.493619 
" style="fill:none;stroke:#191970;stroke-linecap:square;stroke-width:1.5;"/>
   </g>
   <g id="line2d_49">
    <path clip-path="url(#p9375b8b399)" d="M 712.135389 66.074941 
L 713.084152 66.068555 
L 714.032914 66.049395 
L 714.981677 66.018171 
L 715.930439 65.974174 
L 716.879202 65.917403 
L 717.827964 65.847859 
L 718.776727 65.766252 
L 719.725489 65.67187 
L 720.674252 65.565426 
L 721.623014 65.446207 
L 722.571776 65.314926 
L 723.520539 65.17158 
L 724.469301 65.015461 
L 725.418064 64.847988 
L 726.366826 64.667741 
L 727.315589 64.475431 
L 728.264351 64.271767 
L 729.213114 64.056038 
L 730.161876 63.828956 
L 731.110639 63.58981 
L 732.059401 63.33931 
L 733.008164 63.077456 
L 733.956926 62.804248 
L 734.905689 62.519685 
L 735.854451 62.224478 
L 736.803214 61.918627 
L 737.751976 61.601421 
L 738.700739 61.274281 
L 739.649501 60.935786 
L 740.598264 60.588067 
L 741.547026 60.229703 
L 742.495788 59.861404 
L 743.444551 59.48317 
L 744.393313 59.095001 
L 745.342076 58.698317 
L 746.290838 58.291698 
L 747.239601 57.875853 
L 748.188363 57.452203 
L 749.137126 57.018618 
L 750.085888 56.577936 
L 751.034651 56.12803 
L 751.983413 55.670317 
L 752.932176 55.205508 
L 753.880938 54.732893 
L 754.829701 54.252472 
L 755.778463 53.765665 
L 756.727226 53.272471 
L 757.675988 52.77218 
L 758.624751 52.266212 
L 759.573513 51.754568 
L 760.522275 51.237956 
L 761.471038 50.716376 
L 762.4198 50.189829 
L 763.368563 49.659734 
L 764.317325 49.1268 
L 765.266088 48.591028 
L 766.21485 48.053837 
L 767.163613 47.515936 
L 768.112375 46.978744 
L 769.061138 46.444391 
L 770.0099 45.915006 
L 770.958663 45.394136 
L 771.907425 44.886749 
L 772.856188 44.400651 
L 773.80495 43.946487 
L 774.753713 43.541287 
L 775.702475 43.210598 
L 776.651238 42.989193 
L 777.6 42.909005 
" style="fill:none;stroke:#dc143c;stroke-linecap:square;stroke-width:1.5;"/>
   </g>
   <g id="line2d_50">
    <path clip-path="url(#p9375b8b399)" d="M 712.135389 66.073522 
L 713.084152 66.067135 
L 714.032914 66.047975 
L 714.981677 66.016752 
L 715.930439 65.972045 
L 716.879202 65.915984 
L 717.827964 65.84644 
L 718.776727 65.764832 
L 719.725489 65.670451 
L 720.674252 65.564006 
L 721.623014 65.444788 
L 722.571776 65.313506 
L 723.520539 65.170161 
L 724.469301 65.014042 
L 725.418064 64.845859 
L 726.366826 64.666322 
L 727.315589 64.474012 
L 728.264351 64.270347 
L 729.213114 64.054619 
L 730.161876 63.826827 
L 731.110639 63.588391 
L 732.059401 63.337891 
L 733.008164 63.076037 
L 733.956926 62.802828 
L 734.905689 62.518266 
L 735.854451 62.223059 
L 736.803214 61.916498 
L 737.751976 61.600002 
L 738.700739 61.272152 
L 739.649501 60.934367 
L 740.598264 60.585938 
L 741.547026 60.227574 
L 742.495788 59.859275 
L 743.444551 59.481751 
L 744.393313 59.093582 
L 745.342076 58.696188 
L 746.290838 58.290278 
L 747.239601 57.874434 
L 748.188363 57.450074 
L 749.137126 57.017199 
L 750.085888 56.575807 
L 751.034651 56.12661 
L 751.983413 55.668898 
L 752.932176 55.204089 
L 753.880938 54.730764 
L 754.829701 54.251053 
L 755.778463 53.764246 
L 756.727226 53.271051 
L 757.675988 52.770761 
L 758.624751 52.264793 
L 759.573513 51.753148 
L 760.522275 51.236536 
L 761.471038 50.714957 
L 762.4198 50.18841 
L 763.368563 49.658315 
L 764.317325 49.125381 
L 765.266088 48.589609 
L 766.21485 48.052418 
L 767.163613 47.514516 
L 768.112375 46.977325 
L 769.061138 46.442972 
L 770.0099 45.913587 
L 770.958663 45.393426 
L 771.907425 44.88604 
L 772.856188 44.399942 
L 773.80495 43.945068 
L 774.753713 43.539868 
L 775.702475 43.209889 
L 776.651238 42.987774 
L 777.6 42.908295 
" style="fill:none;stroke:#dc143c;stroke-linecap:square;stroke-width:1.5;"/>
   </g>
   <g id="line2d_51">
    <path clip-path="url(#p9375b8b399)" d="M 712.135389 43.880491 
L 713.084152 43.875524 
L 714.032914 43.861331 
L 714.981677 43.837203 
L 715.930439 43.803851 
L 716.879202 43.760563 
L 717.827964 43.70805 
L 718.776727 43.645603 
L 719.725489 43.57393 
L 720.674252 43.493032 
L 721.623014 43.402199 
L 722.571776 43.302141 
L 723.520539 43.192148 
L 724.469301 43.073639 
L 725.418064 42.945196 
L 726.366826 42.807527 
L 727.315589 42.660634 
L 728.264351 42.505224 
L 729.213114 42.33988 
L 730.161876 42.16602 
L 731.110639 41.982935 
L 732.059401 41.791334 
L 733.008164 41.590509 
L 733.956926 41.381167 
L 734.905689 41.1626 
L 735.854451 40.936228 
L 736.803214 40.70134 
L 737.751976 40.457936 
L 738.700739 40.206017 
L 739.649501 39.947001 
L 740.598264 39.67947 
L 741.547026 39.404132 
L 742.495788 39.121699 
L 743.444551 38.832169 
L 744.393313 38.535543 
L 745.342076 38.23182 
L 746.290838 37.921711 
L 747.239601 37.605215 
L 748.188363 37.283752 
L 749.137126 36.955902 
L 750.085888 36.623794 
L 751.034651 36.287429 
L 751.983413 35.947515 
L 752.932176 35.605472 
L 753.880938 35.260591 
L 754.829701 34.91642 
L 755.778463 34.572958 
L 756.727226 34.233754 
L 757.675988 33.901646 
L 758.624751 33.581602 
L 759.573513 33.280008 
L 760.522275 33.010348 
L 761.471038 32.790362 
L 762.4198 32.687465 
L 763.368563 32.994736 
L 764.317325 33.297749 
L 765.266088 33.594375 
L 766.21485 33.883195 
L 767.163613 34.161371 
L 768.112375 34.427483 
L 769.061138 34.879519 
L 770.0099 35.39826 
L 770.958663 35.917001 
L 771.907425 36.426516 
L 772.856188 36.916872 
L 773.80495 37.376714 
L 774.753713 37.786171 
L 775.702475 38.120408 
L 776.651238 38.344652 
L 777.6 38.42555 
" style="fill:none;stroke:#dc143c;stroke-linecap:square;stroke-width:1.5;"/>
   </g>
   <g id="line2d_52">
    <path clip-path="url(#p9375b8b399)" d="M 712.135389 43.877652 
L 713.084152 43.873395 
L 714.032914 43.858492 
L 714.981677 43.834365 
L 715.930439 43.801012 
L 716.879202 43.757725 
L 717.827964 43.705212 
L 718.776727 43.642764 
L 719.725489 43.571091 
L 720.674252 43.490193 
L 721.623014 43.399361 
L 722.571776 43.299302 
L 723.520539 43.189309 
L 724.469301 43.070801 
L 725.418064 42.942358 
L 726.366826 42.804689 
L 727.315589 42.658505 
L 728.264351 42.502386 
L 729.213114 42.337041 
L 730.161876 42.163182 
L 731.110639 41.980097 
L 732.059401 41.788496 
L 733.008164 41.58767 
L 733.956926 41.378329 
L 734.905689 41.159762 
L 735.854451 40.933389 
L 736.803214 40.698501 
L 737.751976 40.455097 
L 738.700739 40.203178 
L 739.649501 39.944162 
L 740.598264 39.676631 
L 741.547026 39.401294 
L 742.495788 39.11886 
L 743.444551 38.82933 
L 744.393313 38.532704 
L 745.342076 38.228982 
L 746.290838 37.918873 
L 747.239601 37.602377 
L 748.188363 37.280913 
L 749.137126 36.953063 
L 750.085888 36.620956 
L 751.034651 36.28459 
L 751.983413 35.944676 
L 752.932176 35.602634 
L 753.880938 35.257753 
L 754.829701 34.913581 
L 755.778463 34.570829 
L 756.727226 34.230915 
L 757.675988 33.898807 
L 758.624751 33.578763 
L 759.573513 33.277879 
L 760.522275 33.00751 
L 761.471038 32.788233 
L 762.4198 32.651984 
L 763.368563 32.634953 
L 764.317325 32.767654 
L 765.266088 33.04512 
L 766.21485 33.428321 
L 767.163613 33.878938 
L 768.112375 34.368584 
L 769.061138 34.878099 
L 770.0099 35.39684 
L 770.958663 35.915581 
L 771.907425 36.424388 
L 772.856188 36.915453 
L 773.80495 37.374585 
L 774.753713 37.784752 
L 775.702475 38.118989 
L 776.651238 38.343233 
L 777.6 38.423421 
" style="fill:none;stroke:#dc143c;stroke-linecap:square;stroke-width:1.5;"/>
   </g>
   <g id="line2d_53">
    <path clip-path="url(#p9375b8b399)" d="M 712.135389 22.911575 
L 713.084152 23.040728 
L 714.032914 23.167043 
L 714.981677 23.294776 
L 715.930439 23.417543 
L 716.879202 23.53747 
L 717.827964 23.655269 
L 718.776727 23.770939 
L 719.725489 23.88519 
L 720.674252 23.998022 
L 721.623014 24.109434 
L 722.571776 24.220846 
L 723.520539 24.330839 
L 724.469301 24.441542 
L 725.418064 24.552244 
L 726.366826 24.664366 
L 727.315589 24.777198 
L 728.264351 24.891448 
L 729.213114 25.007118 
L 730.161876 25.126337 
L 731.110639 25.247684 
L 732.059401 25.371869 
L 733.008164 25.500313 
L 733.956926 25.633014 
L 734.905689 25.769973 
L 735.854451 25.911899 
L 736.803214 26.059503 
L 737.751976 26.212783 
L 738.700739 26.37245 
L 739.649501 26.538504 
L 740.598264 26.710945 
L 741.547026 26.891191 
L 742.495788 27.078534 
L 743.444551 27.273683 
L 744.393313 27.476638 
L 745.342076 27.687398 
L 746.290838 27.907384 
L 747.239601 28.134467 
L 748.188363 28.370064 
L 749.137126 28.614178 
L 750.085888 28.866097 
L 751.034651 29.126532 
L 751.983413 29.394063 
L 752.932176 29.669401 
L 753.880938 29.951124 
L 754.829701 30.239235 
L 755.778463 30.533732 
L 756.727226 30.833197 
L 757.675988 31.13692 
L 758.624751 31.44419 
L 759.573513 31.754299 
L 760.522275 32.065118 
L 761.471038 32.376647 
L 762.4198 32.649855 
L 763.368563 32.632824 
L 764.317325 32.766235 
L 765.266088 33.043701 
L 766.21485 33.427612 
L 767.163613 33.878228 
L 768.112375 34.367164 
L 769.061138 34.677983 
L 770.0099 34.912162 
L 770.958663 35.125761 
L 771.907425 35.317362 
L 772.856188 35.484125 
L 773.80495 35.623923 
L 774.753713 35.735335 
L 775.702475 35.815523 
L 776.651238 35.864488 
L 777.6 35.880809 
" style="fill:none;stroke:#dc143c;stroke-linecap:square;stroke-width:1.5;"/>
   </g>
   <g id="patch_3">
    <path d="M 108 307.584 
L 108 41.472 
" style="fill:none;stroke:#000000;stroke-linecap:square;stroke-linejoin:miter;stroke-width:0.8;"/>
   </g>
   <g id="patch_4">
    <path d="M 777.6 307.584 
L 777.6 41.472 
" style="fill:none;stroke:#000000;stroke-linecap:square;stroke-linejoin:miter;stroke-width:0.8;"/>
   </g>
   <g id="patch_5">
    <path d="M 108 307.584 
L 777.6 307.584 
" style="fill:none;stroke:#000000;stroke-linecap:square;stroke-linejoin:miter;stroke-width:0.8;"/>
   </g>
   <g id="patch_6">
    <path d="M 108 41.472 
L 777.6 41.472 
" style="fill:none;stroke:#000000;stroke-linecap:square;stroke-linejoin:miter;stroke-width:0.8;"/>
   </g>
  </g>
 </g>
 <defs>
  <clipPath id="p9375b8b399">
   <rect height="266.112" width="669.6" x="108" y="41.472"/>
  </clipPath>
 </defs>
</svg>
